<svg width="1440" height="1900" viewBox="0 0 1440 1900" fill="none" xmlns="http://www.w3.org/2000/svg">
<mask id="mask0_815_402" style="mask-type:alpha" maskUnits="userSpaceOnUse" x="0" y="0" width="1440" height="1900">
<rect width="1440" height="1900" fill="#C4C4C4"/>
</mask>
<g mask="url(#mask0_815_402)">
<g opacity="0.8">
<path opacity="0.182152" d="M260.5 209C318.214 209 365 162.214 365 104.5C365 46.7862 318.214 0 260.5 0C202.786 0 156 46.7862 156 104.5C156 162.214 202.786 209 260.5 209Z" fill="url(#paint0_linear_815_402)"/>
<path opacity="0.307757" d="M845 62C856.046 62 865 53.0457 865 42C865 30.9543 856.046 22 845 22C833.954 22 825 30.9543 825 42C825 53.0457 833.954 62 845 62Z" fill="url(#paint1_linear_815_402)"/>
<path d="M1356.2 410.996L1365.06 416.085V405.718L1356.2 410.996Z" fill="#FFC239" fill-opacity="0.5"/>
<path d="M1390.88 410.996L1381.84 405.718V416.086L1390.88 410.996Z" fill="#FFC239" fill-opacity="0.5"/>
<path d="M1373.54 428.338L1378.63 419.29H1368.26L1373.54 428.338Z" fill="#FFC239" fill-opacity="0.5"/>
<path d="M1373.54 393.467L1368.26 402.514H1378.63L1373.54 393.467Z" fill="#FFC239" fill-opacity="0.5"/>
</g>
<g opacity="0.5">
<path d="M162.587 673.041C184.485 706.503 154.708 752.938 115.72 746.025C108.716 744.786 101.417 746.4 95.152 750.254L73.5946 763.546C67.6595 767.207 60.1895 765.615 56.4488 759.896L48.1601 747.219C44.4194 741.5 45.6473 733.563 50.9912 728.981C70.4906 712.29 78.7793 707.549 81.3944 693.553C89.0463 652.598 140.689 639.58 162.587 673.041Z" fill="#EDFDFC"/>
<path d="M111.172 691.449C110.74 689.63 110.319 687.583 110.149 685.56C109.148 673.86 118.187 669.824 122.951 672.837C125.998 674.77 127.238 679.249 125.487 683.49C123.906 687.299 120.496 690.062 117.039 693.086C118.904 699.579 121.814 705.559 125.714 710.892C136.379 704.468 143.986 707.981 144.486 713.791C144.804 717.52 142.405 721.363 138.801 722.944C136.641 723.888 131.058 725.172 124.452 717.862C106.454 730.55 82.9747 749.311 82.8951 749.368L79.9162 745.218C79.9844 745.161 103.338 726.525 121.269 713.859C117.562 708.72 114.685 703.035 112.684 696.895C92.173 714.803 74.0948 728.947 73.4695 729.459L70.502 725.309C71.8095 724.24 89.3191 710.608 111.172 691.449ZM119.813 677.203C118.222 676.6 114.003 678.351 115.697 687.47C120.461 683.297 121.905 681.478 119.813 677.203ZM129 714.905C131.615 717.634 135.583 720.09 138.244 717.145C141.666 713.37 136.777 710.539 129 714.905Z" fill="#D1DCE7"/>
<path d="M95.6976 749.948C95.5157 750.05 95.3225 750.141 95.1519 750.255L73.5945 763.546C67.6594 767.207 60.1893 765.615 56.4486 759.896L48.16 747.219C44.4193 741.5 45.6472 733.564 50.9911 728.981C59.6663 721.557 66.1131 716.497 70.843 711.938L95.6976 749.948Z" fill="#D1DCE7"/>
</g>
<path opacity="0.07" fill-rule="evenodd" clip-rule="evenodd" d="M1232.27 1099.04L1327.84 1191.38C1329.51 1192.99 1330.19 1195.36 1329.63 1197.61L1297.49 1326.58C1296.93 1328.83 1295.21 1330.61 1292.98 1331.25L1165.28 1367.88C1163.05 1368.52 1160.66 1367.92 1158.99 1366.31L1063.42 1273.98C1061.76 1272.37 1061.08 1270 1061.64 1267.75L1093.78 1138.78C1094.34 1136.53 1096.05 1134.75 1098.28 1134.11L1225.99 1097.48C1228.21 1096.84 1230.61 1097.43 1232.27 1099.04Z" fill="url(#paint2_linear_815_402)"/>
<g filter="url(#filter0_f_815_402)">
<path d="M1259.5 1737C1453.63 1737 1611 1579.4 1611 1385C1611 1190.6 1453.63 1033 1259.5 1033C1065.37 1033 908 1190.6 908 1385C908 1579.4 1065.37 1737 1259.5 1737Z" fill="url(#paint3_radial_815_402)"/>
</g>
<g style="mix-blend-mode:multiply" opacity="0.5">
<path d="M1244.66 1320.16C1253.57 1327.69 1261.31 1334.23 1269.06 1340.76C1268.85 1341.13 1268.64 1341.5 1268.42 1341.87C1258.89 1338.41 1249.33 1334.99 1238.39 1331.01C1242.29 1341.89 1245.82 1351.77 1249.35 1361.62C1249.04 1361.78 1248.72 1361.96 1248.43 1362.12C1241.76 1354.19 1235.07 1346.29 1227.51 1337.31C1225.41 1348.71 1223.56 1358.88 1221.69 1369.05C1221.35 1369.1 1221.03 1369.15 1220.69 1369.18C1218.82 1359.04 1216.95 1348.92 1214.84 1337.47C1207.52 1346.03 1200.85 1353.85 1194.16 1361.67C1193.82 1361.52 1193.48 1361.36 1193.13 1361.2C1196.59 1351.56 1200.01 1341.92 1203.91 1331.07C1193.06 1334.94 1183.18 1338.47 1173.3 1342C1173.11 1341.71 1172.93 1341.42 1172.74 1341.15C1180.73 1334.41 1188.71 1327.67 1197.64 1320.13C1186.23 1318.03 1176.12 1316.18 1166.03 1314.31C1166.05 1313.95 1166.05 1313.58 1166.08 1313.21C1176.22 1311.36 1186.34 1309.52 1197.64 1307.47C1188.87 1300.04 1180.94 1293.35 1172.98 1286.63C1173.14 1286.29 1173.27 1285.95 1173.43 1285.6C1183.12 1289.11 1192.84 1292.61 1203.94 1296.61C1200.04 1285.68 1196.56 1276.04 1193.11 1266.4C1193.45 1266.22 1193.79 1266.01 1194.14 1265.82C1200.75 1273.65 1207.39 1281.47 1214.82 1290.24C1216.9 1278.91 1218.71 1268.98 1220.53 1259.05C1220.93 1259.03 1221.32 1259.03 1221.72 1259C1223.56 1268.98 1225.41 1278.94 1227.46 1290.16C1234.94 1281.36 1241.66 1273.46 1248.4 1265.56C1248.72 1265.69 1249.04 1265.82 1249.38 1265.95C1245.87 1275.67 1242.37 1285.39 1238.34 1296.61C1249.4 1292.61 1259.1 1289.11 1268.77 1285.63C1268.98 1285.92 1269.22 1286.21 1269.43 1286.5C1261.5 1293.24 1253.57 1299.96 1244.72 1307.49C1255.96 1309.55 1265.98 1311.36 1275.99 1313.18C1276.06 1313.58 1276.12 1313.97 1276.2 1314.34C1266.19 1316.18 1256.18 1318.03 1244.66 1320.16Z" fill="url(#paint4_linear_815_402)"/>
<path d="M1231.88 1553.23C1242.56 1553.07 1253.39 1554.79 1263.12 1552.23C1272.73 1549.69 1281.18 1542.79 1290.67 1537.53C1284.09 1559.2 1289.45 1578.32 1306.1 1594.84C1283.4 1588.73 1264.21 1593.59 1247.5 1610.41C1253.29 1587.74 1248.56 1568.49 1231.88 1553.23Z" fill="url(#paint5_linear_815_402)"/>
<path d="M1177.57 1516.85C1154.02 1526.88 1153.81 1527.09 1143.09 1551.22C1138.82 1533.15 1128.47 1522.11 1111.03 1518.14C1118.35 1513.74 1126.12 1510.76 1131.47 1505.39C1136.92 1499.91 1140.03 1492.09 1144.33 1485C1148.38 1501.49 1158.79 1512.39 1177.57 1516.85Z" fill="url(#paint6_linear_815_402)"/>
<path d="M436.366 1710.28C439.975 1723.53 448.273 1731.27 461.471 1735.12C447.904 1738.49 440.264 1746.84 436.366 1759.72C432.44 1747.05 424.959 1738.8 411.602 1734.98C424.537 1731.24 432.756 1723.53 436.366 1710.28ZM436.366 1750.37C441.424 1745.34 447.114 1739.67 451.777 1735.04C446.956 1730.19 441.266 1724.48 436.392 1719.58C431.65 1724.32 425.854 1730.14 420.981 1735.04C425.775 1739.81 431.492 1745.49 436.366 1750.37Z" fill="url(#paint7_linear_815_402)"/>
<path d="M70.0797 1595.8C80.7308 1589.49 90.3987 1583.75 100.067 1578.01C100.435 1578.41 100.763 1578.78 101.132 1579.19C95.3966 1588.51 89.6614 1597.84 82.9431 1608.84C94.7412 1611.73 105.72 1614.38 116.658 1617.06C116.781 1617.59 116.903 1618.12 117.026 1618.65C106.17 1621.38 95.3556 1624.11 83.1069 1627.2C89.2108 1637.26 94.823 1646.55 100.435 1655.79C99.9437 1656.28 99.4521 1656.81 98.9605 1657.3C89.8661 1651.89 80.7718 1646.47 70.1207 1640.11C67.1712 1651.93 64.3856 1662.96 61.641 1674C61.1084 1673.92 60.5349 1673.84 60.0023 1673.76C57.3805 1663.09 54.7996 1652.46 51.7682 1640.03C41.24 1646.39 31.613 1652.17 21.9861 1657.99C21.4945 1657.67 20.9621 1657.38 20.4705 1657.06C26.2876 1647.61 32.1046 1638.16 38.782 1627.29C26.6562 1624.23 15.8413 1621.5 5.02637 1618.77C5.06733 1618.2 5.10822 1617.63 5.14918 1617.06C15.7183 1614.5 26.3285 1611.93 38.5772 1608.96C32.2275 1598.33 26.5333 1588.76 19.1595 1576.46C31.3673 1583.75 40.9532 1589.45 51.7272 1595.93C54.6767 1583.83 57.2985 1573.16 59.9203 1562.49C60.4529 1562.33 60.9854 1562.16 61.5179 1562C64.2217 1572.83 67.0073 1583.67 70.0797 1595.8Z" stroke="url(#paint8_linear_815_402)" stroke-width="8" stroke-miterlimit="10"/>
<path d="M170.026 1046.77C168.716 1053.52 167.063 1059.31 162.714 1063.74C161.422 1065.05 158.953 1066.35 157.491 1065.91C156.047 1065.47 154.49 1062.94 154.262 1061.16C153.236 1053.22 155.572 1046.2 161.061 1040.63C162.182 1039.49 165.411 1038.59 165.905 1039.19C167.671 1041.35 168.716 1044.2 170.026 1046.77Z" fill="url(#paint9_linear_815_402)"/>
<path d="M192.026 1053.7C190.491 1060.32 188.717 1065.95 184.052 1070.2C182.717 1071.41 180.085 1072.32 178.43 1071.89C177.075 1071.57 175.699 1069.17 175.38 1067.49C174.224 1061.38 175.958 1055.61 179.746 1050.8C181.5 1048.59 184.85 1047.56 187.481 1046C188.976 1048.57 190.511 1051.13 192.026 1053.7Z" fill="url(#paint10_linear_815_402)"/>
<path d="M138.113 1063C138.113 1080.55 144.423 1093.08 160.748 1097.83C176.778 1102.48 188.904 1095.69 197.816 1081.89C199.176 1086.48 193.793 1093.28 186.163 1097.57C172.381 1105.35 155.148 1102.68 144.501 1091.14C137.068 1083.03 133.44 1069.79 138.113 1063Z" fill="url(#paint11_linear_815_402)"/>
</g>
<path d="M62.9858 1354.51L71.0765 1359.23V1349.96L62.9858 1354.51Z" fill="#FFC239" fill-opacity="0.5"/>
<path d="M93.9999 1354.51L85.9092 1349.96V1359.23L93.9999 1354.51Z" fill="#FFC239" fill-opacity="0.5"/>
<path d="M78.493 1370.01L83.2125 1361.92H73.7734L78.493 1370.01Z" fill="#FFC239" fill-opacity="0.5"/>
<path d="M78.493 1339L73.7734 1347.09H83.2125L78.493 1339Z" fill="#FFC239" fill-opacity="0.5"/>
</g>
<defs>
<filter id="filter0_f_815_402" x="508" y="633" width="1503" height="1504" filterUnits="userSpaceOnUse" color-interpolation-filters="sRGB">
<feFlood flood-opacity="0" result="BackgroundImageFix"/>
<feBlend mode="normal" in="SourceGraphic" in2="BackgroundImageFix" result="shape"/>
<feGaussianBlur stdDeviation="200" result="effect1_foregroundBlur_815_402"/>
</filter>
<linearGradient id="paint0_linear_815_402" x1="383.259" y1="123.534" x2="177.9" y2="169.199" gradientUnits="userSpaceOnUse">
<stop stop-color="#D7CBFF" stop-opacity="0"/>
<stop offset="1" stop-color="#5F58FF"/>
</linearGradient>
<linearGradient id="paint1_linear_815_402" x1="825" y1="48.9553" x2="865" y2="37.7642" gradientUnits="userSpaceOnUse">
<stop stop-color="#C2E998" stop-opacity="0"/>
<stop offset="1" stop-color="#02CC87"/>
</linearGradient>
<linearGradient id="paint2_linear_815_402" x1="1186.82" y1="1431.86" x2="1167.11" y2="1099.35" gradientUnits="userSpaceOnUse">
<stop stop-color="#00EAEF" stop-opacity="0"/>
<stop offset="1" stop-color="#2400FF"/>
</linearGradient>
<radialGradient id="paint3_radial_815_402" cx="0" cy="0" r="1" gradientUnits="userSpaceOnUse" gradientTransform="translate(1259.55 1385) rotate(180) scale(351.504 352.004)">
<stop offset="0.00247525" stop-color="#A383FF"/>
<stop offset="0.0154476" stop-color="#A586FF"/>
<stop offset="0.2378" stop-color="#C5B1FF"/>
<stop offset="0.4532" stop-color="#DED3FF"/>
<stop offset="0.6569" stop-color="#F0EBFF"/>
<stop offset="0.8443" stop-color="#FBFAFF"/>
<stop offset="1" stop-color="white"/>
</radialGradient>
<linearGradient id="paint4_linear_815_402" x1="1225.16" y1="1276.46" x2="1225.16" y2="1366.87" gradientUnits="userSpaceOnUse">
<stop stop-color="#007CF5" stop-opacity="0.1"/>
<stop offset="1" stop-color="white" stop-opacity="0"/>
</linearGradient>
<linearGradient id="paint5_linear_815_402" x1="1300.41" y1="1583.55" x2="1227.7" y2="1570.8" gradientUnits="userSpaceOnUse">
<stop stop-color="#0354D0"/>
<stop offset="0.715617" stop-color="#3099FF"/>
<stop offset="1" stop-color="#74B9FF"/>
</linearGradient>
<linearGradient id="paint6_linear_815_402" x1="1111.03" y1="1485" x2="1177.24" y2="1551.54" gradientUnits="userSpaceOnUse">
<stop stop-color="#FFD3A5"/>
<stop offset="1" stop-color="#FD6585"/>
</linearGradient>
<linearGradient id="paint7_linear_815_402" x1="411.602" y1="1743.59" x2="461.408" y2="1729.54" gradientUnits="userSpaceOnUse">
<stop stop-opacity="0"/>
<stop offset="1" stop-color="#02CC87"/>
</linearGradient>
<linearGradient id="paint8_linear_815_402" x1="126.811" y1="1628.2" x2="16.7622" y2="1652.67" gradientUnits="userSpaceOnUse">
<stop stop-color="#D7CBFF" stop-opacity="0"/>
<stop offset="1" stop-color="#5F58FF"/>
</linearGradient>
<linearGradient id="paint9_linear_815_402" x1="168.101" y1="1043.56" x2="151.146" y2="1052.38" gradientUnits="userSpaceOnUse">
<stop stop-color="#D7CBFF"/>
<stop offset="1" stop-color="#5F58FF"/>
</linearGradient>
<linearGradient id="paint10_linear_815_402" x1="189.981" y1="1050.39" x2="172.763" y2="1060.27" gradientUnits="userSpaceOnUse">
<stop stop-color="#D7CBFF"/>
<stop offset="1" stop-color="#5F58FF"/>
</linearGradient>
<linearGradient id="paint11_linear_815_402" x1="190.566" y1="1069.59" x2="162.234" y2="1109.11" gradientUnits="userSpaceOnUse">
<stop stop-color="#D7CBFF"/>
<stop offset="1" stop-color="#5F58FF"/>
</linearGradient>
</defs>
</svg>
