<svg width="624" height="664" viewBox="0 0 624 664" fill="none" xmlns="http://www.w3.org/2000/svg">
<path d="M598.409 123.082C598.427 122.262 598.209 121.454 597.779 120.756C597.35 120.057 596.728 119.497 595.988 119.142C595.248 118.788 594.422 118.654 593.608 118.757C592.794 118.861 592.028 119.196 591.4 119.724C590.772 120.251 590.309 120.949 590.068 121.732C589.826 122.516 589.816 123.353 590.038 124.142C590.26 124.932 590.705 125.64 591.32 126.183C591.934 126.726 592.693 127.081 593.504 127.204V202.627H552.266V261.233H553.688V204.048H594.926V127.204C595.893 127.024 596.768 126.515 597.403 125.764C598.038 125.013 598.393 124.065 598.409 123.082V123.082ZM594.143 125.925C593.581 125.925 593.031 125.758 592.563 125.446C592.096 125.133 591.731 124.689 591.516 124.17C591.301 123.65 591.244 123.079 591.354 122.527C591.464 121.976 591.735 121.469 592.132 121.072C592.53 120.674 593.037 120.403 593.589 120.293C594.14 120.184 594.712 120.24 595.232 120.455C595.752 120.67 596.196 121.035 596.508 121.502C596.821 121.97 596.987 122.519 596.987 123.082C596.969 123.811 596.671 124.506 596.155 125.022C595.639 125.538 594.944 125.836 594.215 125.854L594.143 125.925Z" fill="#A6D7FF"/>
<path d="M531.377 158.802C530.336 158.816 529.338 159.216 528.575 159.925C527.813 160.634 527.342 161.601 527.254 162.638C527.165 163.675 527.465 164.708 528.096 165.536C528.726 166.364 529.643 166.927 530.666 167.118V261.232H532.088V167.118C533.112 166.927 534.028 166.364 534.658 165.536C535.289 164.708 535.589 163.675 535.501 162.638C535.412 161.601 534.941 160.634 534.179 159.925C533.417 159.216 532.418 158.816 531.377 158.802V158.802ZM531.377 165.782C530.812 165.796 530.255 165.641 529.778 165.337C529.301 165.034 528.926 164.595 528.699 164.077C528.473 163.559 528.407 162.985 528.508 162.429C528.61 161.873 528.875 161.36 529.27 160.955C529.664 160.55 530.171 160.272 530.724 160.157C531.278 160.041 531.853 160.093 532.377 160.306C532.901 160.519 533.349 160.883 533.665 161.352C533.981 161.821 534.15 162.373 534.15 162.939C534.15 163.681 533.86 164.393 533.342 164.924C532.824 165.455 532.119 165.763 531.377 165.782V165.782Z" fill="#A6D7FF"/>
<path d="M433.317 65.541H356.431C356.252 64.4867 355.684 63.5378 354.839 62.8824C353.994 62.227 352.934 61.9128 351.868 62.0023C350.802 62.0917 349.808 62.5781 349.084 63.3652C348.36 64.1522 347.958 65.1824 347.958 66.2517C347.958 67.3209 348.36 68.3512 349.084 69.1382C349.808 69.9253 350.802 70.4117 351.868 70.5011C352.934 70.5905 353.994 70.2764 354.839 69.621C355.684 68.9656 356.252 68.0167 356.431 66.9624H431.895V85.4414H490.509V84.0199H433.317V65.541ZM352.264 69.0377C351.699 69.0519 351.142 68.8972 350.665 68.5936C350.188 68.2899 349.813 67.851 349.587 67.3329C349.36 66.8148 349.294 66.2411 349.395 65.6851C349.497 65.129 349.762 64.6158 350.157 64.2111C350.552 63.8063 351.058 63.5284 351.612 63.4129C352.165 63.2973 352.741 63.3493 353.264 63.5622C353.788 63.7751 354.237 64.1393 354.552 64.6082C354.868 65.0772 355.037 65.6296 355.037 66.1948C355.034 66.9271 354.749 67.6299 354.24 68.1568C353.731 68.6838 353.039 68.9942 352.307 69.0235L352.264 69.0377Z" fill="#A6D7FF"/>
<path d="M418.757 97.0833C417.937 97.068 417.13 97.289 416.433 97.72C415.736 98.151 415.178 98.7737 414.825 99.5134C414.473 100.253 414.341 101.079 414.446 101.892C414.551 102.704 414.888 103.469 415.416 104.096C415.945 104.722 416.643 105.183 417.426 105.423C418.21 105.663 419.046 105.673 419.835 105.45C420.624 105.228 421.332 104.783 421.875 104.169C422.418 103.554 422.772 102.797 422.895 101.987H488.59V100.566H422.895C422.714 99.5965 422.203 98.7199 421.448 98.085C420.694 97.4501 419.743 97.0961 418.757 97.0833V97.0833ZM418.757 104.062C418.194 104.062 417.644 103.895 417.177 103.583C416.709 103.271 416.344 102.827 416.129 102.307C415.914 101.788 415.858 101.216 415.967 100.665C416.077 100.113 416.348 99.6068 416.746 99.2093C417.143 98.8117 417.65 98.541 418.202 98.4313C418.753 98.3216 419.325 98.3779 419.845 98.5931C420.365 98.8082 420.809 99.1726 421.121 99.6401C421.434 100.108 421.601 100.657 421.601 101.219C421.601 101.973 421.301 102.696 420.768 103.229C420.234 103.763 419.511 104.062 418.757 104.062Z" fill="#A6D7FF"/>
<path d="M324.365 208.212C325.344 208.1 326.253 207.653 326.939 206.947C327.626 206.241 328.046 205.319 328.13 204.338C328.214 203.357 327.955 202.377 327.399 201.565C326.842 200.753 326.022 200.158 325.076 199.882V134.211H323.654V199.882C322.709 200.158 321.889 200.753 321.332 201.565C320.775 202.377 320.517 203.357 320.601 204.338C320.684 205.319 321.105 206.241 321.791 206.947C322.477 207.653 323.387 208.1 324.365 208.212V208.212ZM324.365 201.233C324.931 201.233 325.483 201.401 325.953 201.717C326.422 202.033 326.786 202.481 326.999 203.005C327.212 203.528 327.264 204.104 327.148 204.657C327.033 205.21 326.755 205.716 326.35 206.111C325.945 206.506 325.432 206.771 324.875 206.872C324.319 206.974 323.745 206.907 323.227 206.681C322.709 206.455 322.27 206.08 321.966 205.603C321.662 205.126 321.507 204.57 321.521 204.004C321.54 203.263 321.848 202.558 322.379 202.04C322.91 201.522 323.623 201.232 324.365 201.233Z" fill="#A6D7FF"/>
<path d="M338.586 185.895V120.224H337.164V185.895C336.109 186.074 335.16 186.641 334.504 187.486C333.848 188.331 333.534 189.391 333.624 190.457C333.713 191.522 334.2 192.515 334.987 193.239C335.774 193.963 336.805 194.365 337.875 194.365C338.944 194.365 339.975 193.963 340.762 193.239C341.55 192.515 342.036 191.522 342.126 190.457C342.215 189.391 341.901 188.331 341.245 187.486C340.589 186.641 339.64 186.074 338.586 185.895V185.895ZM337.875 192.804C337.309 192.818 336.753 192.663 336.276 192.36C335.799 192.056 335.423 191.617 335.197 191.099C334.971 190.581 334.904 190.007 335.006 189.451C335.107 188.895 335.372 188.382 335.767 187.977C336.162 187.572 336.668 187.294 337.222 187.179C337.776 187.063 338.351 187.115 338.875 187.328C339.399 187.541 339.847 187.905 340.163 188.374C340.479 188.843 340.647 189.396 340.647 189.961C340.648 190.705 340.356 191.42 339.835 191.951C339.314 192.483 338.605 192.789 337.86 192.804H337.875Z" fill="#A6D7FF"/>
<path d="M74.182 443.008V441.587H8.47222C8.29395 440.532 7.72597 439.584 6.88083 438.928C6.0357 438.273 4.9751 437.959 3.9092 438.048C2.8433 438.138 1.84991 438.624 1.12587 439.411C0.401834 440.198 0 441.228 0 442.297C0 443.366 0.401834 444.397 1.12587 445.184C1.84991 445.971 2.8433 446.457 3.9092 446.546C4.9751 446.636 6.0357 446.322 6.88083 445.666C7.72597 445.011 8.29395 444.062 8.47222 443.008H74.182ZM4.41957 445.069C3.85709 445.069 3.30724 444.902 2.83955 444.59C2.37187 444.277 2.00735 443.833 1.7921 443.314C1.57684 442.795 1.52052 442.223 1.63026 441.672C1.73999 441.12 2.01085 440.614 2.40859 440.216C2.80632 439.819 3.31307 439.548 3.86475 439.438C4.41642 439.328 4.98825 439.385 5.50791 439.6C6.02758 439.815 6.47174 440.179 6.78424 440.647C7.09674 441.114 7.26354 441.664 7.26354 442.226C7.26354 442.98 6.96391 443.703 6.43056 444.236C5.89721 444.769 5.17384 445.069 4.41957 445.069V445.069Z" fill="#A6D7FF"/>
<path d="M18.3409 451.537C17.5215 451.52 16.7143 451.738 16.016 452.167C15.3177 452.596 14.7577 453.217 14.4032 453.956C14.0486 454.694 13.9145 455.519 14.0167 456.332C14.119 457.145 14.4534 457.911 14.9799 458.539C15.5064 459.167 16.2027 459.63 16.9856 459.873C17.7684 460.116 18.6046 460.128 19.3942 459.908C20.1838 459.688 20.8932 459.245 21.4378 458.633C21.9823 458.021 22.3388 457.265 22.4647 456.455H88.1745V455.034H22.4647C22.2874 454.064 21.7797 453.186 21.0279 452.549C20.2761 451.911 19.3266 451.554 18.3409 451.537V451.537ZM18.3409 458.516C17.7755 458.516 17.2229 458.347 16.7538 458.031C16.2847 457.716 15.9204 457.268 15.7074 456.744C15.4943 456.22 15.4423 455.645 15.558 455.092C15.6736 454.539 15.9516 454.032 16.3565 453.638C16.7613 453.243 17.2747 452.978 17.831 452.877C18.3873 452.775 18.9612 452.842 19.4795 453.068C19.9977 453.294 20.4368 453.669 20.7406 454.146C21.0443 454.623 21.199 455.179 21.1849 455.744C21.1664 456.486 20.8586 457.191 20.3272 457.709C19.7959 458.226 19.0831 458.516 18.3409 458.516V458.516Z" fill="#A6D7FF"/>
<path d="M329.413 589.077C328.428 589.094 327.478 589.451 326.726 590.089C325.975 590.726 325.467 591.604 325.29 592.574H249.839V551.352H191.211V552.773H248.417V593.995H325.29C325.415 594.805 325.772 595.561 326.316 596.174C326.861 596.786 327.571 597.228 328.36 597.448C329.15 597.668 329.986 597.656 330.769 597.413C331.552 597.171 332.248 596.708 332.774 596.08C333.301 595.452 333.635 594.685 333.738 593.873C333.84 593.06 333.706 592.234 333.351 591.496C332.997 590.757 332.437 590.136 331.738 589.707C331.04 589.278 330.233 589.059 329.413 589.077V589.077ZM329.413 596.056C328.851 596.056 328.301 595.89 327.833 595.577C327.366 595.265 327.001 594.821 326.786 594.301C326.571 593.782 326.514 593.21 326.624 592.659C326.734 592.107 327.005 591.601 327.402 591.203C327.8 590.806 328.307 590.535 328.858 590.425C329.41 590.315 329.982 590.372 330.502 590.587C331.021 590.802 331.465 591.167 331.778 591.634C332.09 592.102 332.257 592.651 332.257 593.213C332.257 593.967 331.958 594.691 331.424 595.224C330.891 595.757 330.168 596.056 329.413 596.056Z" fill="#A6D7FF"/>
<path d="M289.484 534.621C290.304 534.638 291.111 534.42 291.809 533.991C292.507 533.562 293.067 532.941 293.422 532.202C293.776 531.464 293.911 530.639 293.808 529.826C293.706 529.013 293.372 528.247 292.845 527.619C292.319 526.991 291.622 526.528 290.839 526.285C290.057 526.042 289.22 526.03 288.431 526.25C287.641 526.47 286.932 526.913 286.387 527.525C285.843 528.137 285.486 528.893 285.36 529.703H191.211V531.124H285.36C285.538 532.094 286.045 532.972 286.797 533.609C287.549 534.247 288.498 534.604 289.484 534.621V534.621ZM289.484 527.642C290.052 527.628 290.612 527.785 291.09 528.091C291.569 528.398 291.944 528.841 292.168 529.364C292.392 529.886 292.454 530.463 292.347 531.021C292.24 531.579 291.967 532.092 291.565 532.494C291.163 532.896 290.65 533.168 290.092 533.275C289.534 533.383 288.956 533.32 288.434 533.097C287.911 532.873 287.468 532.497 287.161 532.019C286.854 531.541 286.697 530.982 286.711 530.414C286.74 529.692 287.043 529.008 287.558 528.501C288.073 527.994 288.761 527.702 289.484 527.685V527.642Z" fill="#A6D7FF"/>
<path d="M48.3022 621.331H29.8164V655.531C28.7618 655.709 27.8125 656.277 27.1569 657.122C26.5012 657.966 26.187 659.027 26.2764 660.092C26.3659 661.158 26.8525 662.151 27.6398 662.875C28.4272 663.598 29.4578 664 30.5274 664C31.5971 664 32.6277 663.598 33.415 662.875C34.2024 662.151 34.689 661.158 34.7784 660.092C34.8679 659.027 34.5536 657.966 33.898 657.122C33.2423 656.277 32.2931 655.709 31.2384 655.531V622.752H49.7242V564.174H48.3022V621.331ZM33.3003 659.71C33.3001 660.275 33.1314 660.828 32.8156 661.297C32.4999 661.765 32.0514 662.13 31.5276 662.343C31.0038 662.555 30.4284 662.607 29.8748 662.492C29.3213 662.376 28.8148 662.098 28.4201 661.694C28.0253 661.289 27.7602 660.776 27.6586 660.22C27.557 659.664 27.6236 659.09 27.8498 658.572C28.076 658.054 28.4516 657.615 28.9285 657.311C29.4055 657.008 29.9621 656.853 30.5274 656.867C31.2693 656.886 31.9745 657.193 32.4926 657.724C33.0107 658.256 33.3005 658.968 33.3003 659.71V659.71Z" fill="#A6D7FF"/>
<path d="M66.2899 631.778V566.093H64.8679V631.778C63.8133 631.957 62.864 632.524 62.2084 633.369C61.5527 634.214 61.2385 635.274 61.3279 636.34C61.4174 637.405 61.904 638.398 62.6913 639.122C63.4787 639.846 64.5093 640.247 65.5789 640.247C66.6486 640.247 67.6792 639.846 68.4665 639.122C69.2539 638.398 69.7405 637.405 69.8299 636.34C69.9194 635.274 69.6052 634.214 68.9495 633.369C68.2938 632.524 67.3446 631.957 66.2899 631.778V631.778ZM65.5647 638.672C65.0195 638.658 64.4906 638.484 64.0441 638.171C63.5975 637.858 63.2532 637.421 63.0542 636.913C62.8552 636.405 62.8103 635.85 62.9252 635.317C63.0401 634.785 63.3096 634.297 63.7001 633.917C64.0906 633.536 64.5846 633.279 65.1205 633.178C65.6563 633.077 66.2102 633.135 66.7127 633.347C67.2153 633.559 67.6442 633.914 67.9459 634.368C68.2475 634.822 68.4085 635.355 68.4087 635.901C68.4088 636.271 68.3348 636.637 68.191 636.978C68.0472 637.319 67.8366 637.628 67.5716 637.886C67.3065 638.144 66.9924 638.347 66.6477 638.482C66.303 638.617 65.9348 638.682 65.5647 638.672V638.672Z" fill="#A6D7FF"/>
<path d="M515.636 42.6836H534.122V8.4691C535.176 8.29089 536.126 7.72312 536.781 6.8783C537.437 6.03348 537.751 4.97326 537.662 3.90776C537.572 2.84226 537.086 1.84922 536.298 1.12545C535.511 0.401686 534.48 0 533.411 0C532.341 0 531.31 0.401686 530.523 1.12545C529.736 1.84922 529.249 2.84226 529.16 3.90776C529.07 4.97326 529.384 6.03348 530.04 6.8783C530.696 7.72312 531.645 8.29089 532.7 8.4691V41.2621H514.214V99.8546H515.636V42.6836ZM530.638 4.41795C530.652 3.87297 530.826 3.34422 531.139 2.89784C531.452 2.45146 531.89 2.10727 532.398 1.90833C532.906 1.70939 533.461 1.66454 533.994 1.77938C534.527 1.89423 535.014 2.16367 535.395 2.554C535.776 2.94433 536.033 3.43821 536.134 3.97387C536.236 4.50952 536.177 5.06316 535.965 5.56552C535.753 6.06788 535.398 6.49666 534.944 6.7982C534.489 7.09975 533.956 7.26068 533.411 7.26086C532.669 7.24231 531.964 6.93463 531.445 6.40347C530.927 5.87232 530.638 5.15978 530.638 4.41795Z" fill="#A6D7FF"/>
<path d="M497.648 32.264V97.9354H499.07V32.264C500.125 32.0858 501.074 31.518 501.73 30.6732C502.385 29.8284 502.699 28.7682 502.61 27.7027C502.521 26.6372 502.034 25.6441 501.247 24.9204C500.459 24.1966 499.429 23.7949 498.359 23.7949C497.289 23.7949 496.259 24.1966 495.471 24.9204C494.684 25.6441 494.197 26.6372 494.108 27.7027C494.019 28.7682 494.333 29.8284 494.988 30.6732C495.644 31.518 496.593 32.0858 497.648 32.264ZM498.359 25.37C498.904 25.3701 499.438 25.5311 499.892 25.8326C500.346 26.1342 500.701 26.5629 500.913 27.0653C501.125 27.5677 501.184 28.1213 501.083 28.6569C500.981 29.1926 500.724 29.6865 500.343 30.0768C499.963 30.4671 499.475 30.7366 498.942 30.8514C498.409 30.9663 497.854 30.9214 497.346 30.7225C496.838 30.5235 496.401 30.1794 496.088 29.733C495.775 29.2866 495.6 28.7578 495.586 28.2129C495.577 27.8429 495.641 27.4748 495.776 27.1303C495.911 26.7857 496.114 26.4717 496.373 26.2068C496.631 25.9418 496.94 25.7313 497.281 25.5875C497.622 25.4438 497.989 25.3698 498.359 25.37V25.37Z" fill="#A6D7FF"/>
<path opacity="0.5" d="M594.214 510.001C594.216 510.487 594.122 510.968 593.936 511.418C593.751 511.867 593.479 512.275 593.135 512.618C592.792 512.962 592.383 513.234 591.934 513.419C591.485 513.604 591.003 513.699 590.517 513.697H4.94498C4.45894 513.699 3.97733 513.604 3.52792 513.419C3.07851 513.234 2.6702 512.962 2.32651 512.618C1.98282 512.275 1.71056 511.867 1.52543 511.418C1.3403 510.968 1.24595 510.487 1.24783 510.001C1.24783 509.517 1.34356 509.037 1.52953 508.589C1.7155 508.142 1.98806 507.735 2.33156 507.393C2.67506 507.051 3.08274 506.78 3.53122 506.596C3.97969 506.412 4.46014 506.318 4.94498 506.32H590.517C591.002 506.318 591.482 506.412 591.931 506.596C592.379 506.78 592.787 507.051 593.13 507.393C593.474 507.735 593.746 508.142 593.932 508.589C594.118 509.037 594.214 509.517 594.214 510.001V510.001Z" fill="#A6D7FF"/>
<path d="M254.304 146.564H88.0464C76.8868 146.564 67.8401 155.607 67.8401 166.763V486.122C67.8401 497.277 76.8868 506.321 88.0464 506.321H254.304C265.464 506.321 274.511 497.277 274.511 486.122V166.763C274.511 155.607 265.464 146.564 254.304 146.564Z" fill="#223D94"/>
<path d="M184.641 483.861C184.644 486.528 183.856 489.135 182.376 491.353C180.895 493.571 178.79 495.301 176.326 496.322C173.863 497.344 171.151 497.612 168.535 497.092C165.918 496.573 163.515 495.289 161.629 493.404C159.743 491.518 158.459 489.116 157.939 486.501C157.419 483.885 157.687 481.175 158.71 478.712C159.732 476.249 161.462 474.145 163.681 472.665C165.9 471.185 168.508 470.397 171.175 470.4C174.746 470.404 178.169 471.823 180.693 474.347C183.218 476.87 184.638 480.292 184.641 483.861Z" fill="white"/>
<path d="M197.695 169.434C197.695 170.215 197.385 170.963 196.833 171.515C196.281 172.067 195.532 172.377 194.751 172.377H147.584C146.804 172.377 146.055 172.067 145.503 171.515C144.951 170.963 144.641 170.215 144.641 169.434C144.641 168.654 144.951 167.906 145.503 167.354C146.055 166.802 146.804 166.492 147.584 166.492H194.751C195.139 166.49 195.522 166.565 195.88 166.712C196.238 166.86 196.563 167.076 196.837 167.35C197.111 167.623 197.327 167.948 197.475 168.306C197.622 168.664 197.697 169.048 197.695 169.434V169.434Z" fill="white"/>
<path d="M173.834 158.106C173.837 158.635 173.682 159.154 173.39 159.596C173.097 160.037 172.68 160.382 172.191 160.586C171.702 160.79 171.163 160.844 170.643 160.741C170.123 160.639 169.646 160.384 169.271 160.009C168.896 159.635 168.641 159.157 168.538 158.638C168.436 158.118 168.49 157.58 168.694 157.091C168.898 156.602 169.243 156.185 169.685 155.892C170.127 155.6 170.645 155.445 171.175 155.448C171.879 155.452 172.554 155.733 173.051 156.23C173.549 156.728 173.831 157.402 173.834 158.106Z" fill="white"/>
<path d="M265.453 179.655H76.8982V463.236H265.453V179.655Z" fill="#DCC5F9"/>
<path opacity="0.5" d="M76.8982 463.236L265.453 179.655V463.236H76.8982Z" fill="#D0B7F9"/>
<path d="M249.242 194.381H93.1086V263.692H249.242V194.381Z" fill="white"/>
<g opacity="0.4">
<path opacity="0.4" d="M158.378 211.127L181.727 241.93L194.524 225.043L214.19 250.999H188.595H174.858H128.146L158.378 211.127Z" fill="#9EC7EF"/>
<path opacity="0.4" d="M178.385 218.063C178.385 219.011 178.666 219.937 179.192 220.725C179.719 221.512 180.467 222.126 181.343 222.489C182.219 222.851 183.182 222.946 184.112 222.761C185.041 222.576 185.895 222.12 186.565 221.45C187.236 220.781 187.692 219.927 187.877 218.998C188.062 218.069 187.967 217.106 187.604 216.23C187.241 215.355 186.627 214.607 185.839 214.081C185.051 213.554 184.125 213.273 183.177 213.273C181.906 213.273 180.687 213.778 179.788 214.676C178.89 215.575 178.385 216.793 178.385 218.063Z" fill="#9EC7EF"/>
</g>
<path d="M163.639 287.487H93.1086V290.628H163.639V287.487Z" fill="#B492F4"/>
<path d="M163.639 295.191H93.1086V298.333H163.639V295.191Z" fill="#B492F4"/>
<path d="M163.639 302.895H93.1086V306.036H163.639V302.895Z" fill="#B492F4"/>
<path d="M163.639 310.6H93.1086V313.741H163.639V310.6Z" fill="#B492F4"/>
<path d="M163.639 273.699H93.1086V280.635H163.639V273.699Z" fill="white"/>
<path d="M249.242 273.699H178.711V280.635H249.242V273.699Z" fill="white"/>
<path d="M249.242 287.487H178.711V290.628H249.242V287.487Z" fill="#B492F4"/>
<path d="M249.242 295.191H178.711V298.333H249.242V295.191Z" fill="#B492F4"/>
<path d="M249.242 302.895H178.711V306.036H249.242V302.895Z" fill="#B492F4"/>
<path d="M249.242 310.6H178.711V313.741H249.242V310.6Z" fill="#B492F4"/>
<path d="M163.639 336.783H93.1086V339.924H163.639V336.783Z" fill="#B492F4"/>
<path d="M163.639 344.473H93.1086V347.614H163.639V344.473Z" fill="#B492F4"/>
<path d="M163.639 352.178H93.1086V355.319H163.639V352.178Z" fill="#B492F4"/>
<path d="M163.639 359.881H93.1086V363.023H163.639V359.881Z" fill="#B492F4"/>
<path d="M163.639 322.981H93.1086V329.917H163.639V322.981Z" fill="white"/>
<path d="M249.242 322.981H178.711V329.917H249.242V322.981Z" fill="white"/>
<path d="M249.242 336.783H178.711V339.924H249.242V336.783Z" fill="#B492F4"/>
<path d="M249.242 344.473H178.711V347.614H249.242V344.473Z" fill="#B492F4"/>
<path d="M249.242 352.178H178.711V355.319H249.242V352.178Z" fill="#B492F4"/>
<path d="M249.242 359.881H178.711V363.023H249.242V359.881Z" fill="#B492F4"/>
<path d="M165.004 377.153H93.1086V449.022H165.004V377.153Z" fill="white"/>
<g opacity="0.4">
<path opacity="0.4" d="M120.738 401.445L134.673 419.825L142.295 409.747L154.026 425.226H138.754H130.564H102.707L120.738 401.445Z" fill="#9EC7EF"/>
<path opacity="0.4" d="M132.668 405.596C132.668 406.158 132.835 406.707 133.148 407.175C133.46 407.642 133.904 408.007 134.424 408.222C134.944 408.437 135.516 408.493 136.067 408.384C136.619 408.274 137.126 408.003 137.523 407.606C137.921 407.208 138.192 406.702 138.302 406.15C138.411 405.599 138.355 405.027 138.14 404.508C137.925 403.988 137.56 403.544 137.092 403.232C136.625 402.92 136.075 402.753 135.512 402.753C134.758 402.753 134.035 403.052 133.501 403.586C132.968 404.119 132.668 404.842 132.668 405.596Z" fill="#9EC7EF"/>
</g>
<path d="M249.242 377.153H178.711V384.089H249.242V377.153Z" fill="white"/>
<path d="M249.242 390.941H178.711V394.082H249.242V390.941Z" fill="#B492F4"/>
<path d="M249.242 398.645H178.711V401.786H249.242V398.645Z" fill="#B492F4"/>
<path d="M249.242 406.349H178.711V409.49H249.242V406.349Z" fill="#B492F4"/>
<path d="M249.242 414.039H178.711V417.18H249.242V414.039Z" fill="#B492F4"/>
<path d="M249.242 421.744H178.711V424.885H249.242V421.744Z" fill="#B492F4"/>
<path d="M249.242 429.448H178.711V432.589H249.242V429.448Z" fill="#B492F4"/>
<path d="M249.242 437.152H178.711V440.293H249.242V437.152Z" fill="#B492F4"/>
<path d="M249.242 444.842H178.711V447.983H249.242V444.842Z" fill="#B492F4"/>
<path d="M504.659 285.867H231.297C225.093 285.867 220.063 290.894 220.063 297.096V484.032C220.063 490.234 225.093 495.262 231.297 495.262H504.659C510.863 495.262 515.892 490.234 515.892 484.032V297.096C515.892 290.894 510.863 285.867 504.659 285.867Z" fill="#4D7AC1"/>
<path d="M505.071 299.513H230.87V481.602H505.071V299.513Z" fill="#223D94"/>
<path d="M197.595 481.658V493.399C197.61 496.827 198.981 500.111 201.407 502.534C203.834 504.957 207.12 506.323 210.55 506.334H525.391C528.819 506.323 532.104 504.957 534.528 502.533C536.952 500.11 538.319 496.826 538.331 493.399V481.672L197.595 481.658Z" fill="#5BA1F4"/>
<path d="M310.359 481.658V485.623C310.363 486.783 310.825 487.895 311.646 488.715C312.466 489.535 313.578 489.997 314.739 490.001H421.202C422.363 489.997 423.475 489.535 424.295 488.715C425.116 487.895 425.578 486.783 425.582 485.623V481.658H310.359Z" fill="#8DC6FF"/>
<path d="M299.296 311.751H242.417V316.015H299.296V311.751Z" fill="#9EC7EF"/>
<path d="M446.244 311.751H320.156V316.015H446.244V311.751Z" fill="#DCC5F9"/>
<path d="M281.706 325.966H242.417V330.23H281.706V325.966Z" fill="#9EC7EF"/>
<path d="M383.193 325.966H296.111V330.23H383.193V325.966Z" fill="#DCC5F9"/>
<path d="M285.403 340.181H242.417V344.445H285.403V340.181Z" fill="#9EC7EF"/>
<path d="M396.474 340.181H301.173V344.445H396.474V340.181Z" fill="#DCC5F9"/>
<path d="M268.183 354.395H242.417V358.659H268.183V354.395Z" fill="#9EC7EF"/>
<path d="M435.322 354.395H277.625V358.659H435.322V354.395Z" fill="#DCC5F9"/>
<path d="M299.296 368.609H242.417V372.873H299.296V368.609Z" fill="#9EC7EF"/>
<path d="M446.244 368.609H320.156V372.873H446.244V368.609Z" fill="#DCC5F9"/>
<path d="M281.706 382.824H242.417V387.088H281.706V382.824Z" fill="#9EC7EF"/>
<path d="M383.193 382.824H296.111V387.088H383.193V382.824Z" fill="#DCC5F9"/>
<path d="M291.361 397.039H242.417V401.303H291.361V397.039Z" fill="#9EC7EF"/>
<path d="M417.789 397.039H309.306V401.303H417.789V397.039Z" fill="#DCC5F9"/>
<path d="M268.183 411.253H242.417V415.517H268.183V411.253Z" fill="#9EC7EF"/>
<path d="M435.322 411.253H277.625V415.517H435.322V411.253Z" fill="#DCC5F9"/>
<path d="M304.187 425.467H242.417V429.731H304.187V425.467Z" fill="#9EC7EF"/>
<path d="M463.777 425.467H326.84V429.731H463.777V425.467Z" fill="#DCC5F9"/>
<path d="M295.2 439.682H242.417V443.946H295.2V439.682Z" fill="#9EC7EF"/>
<path d="M431.554 439.682H314.554V443.946H431.554V439.682Z" fill="#DCC5F9"/>
<path d="M289.1 453.897H242.417V458.161H289.1V453.897Z" fill="#9EC7EF"/>
<path d="M409.713 453.897H306.221V458.161H409.713V453.897Z" fill="#DCC5F9"/>
<path d="M270.401 468.112H242.417V472.376H270.401V468.112Z" fill="#9EC7EF"/>
<path d="M451.932 468.112H280.654V472.376H451.932V468.112Z" fill="#DCC5F9"/>
<path d="M570.368 415.546V400.293H562.121C560.954 393.206 558.165 386.483 553.973 380.649L559.817 374.807L549.038 364.046L543.194 369.888C537.367 365.692 530.645 362.904 523.557 361.744V353.485H508.256V361.744C501.164 362.903 494.437 365.691 488.604 369.888L482.774 364.046L471.981 374.821L477.826 380.663C473.627 386.494 470.838 393.218 469.678 400.308H461.416V415.56H469.678C470.855 422.619 473.643 429.311 477.826 435.119L471.981 440.961L482.774 451.75L488.604 445.908C494.441 450.097 501.166 452.884 508.256 454.053V462.297H523.514V454.053C530.6 452.886 537.321 450.099 543.151 445.908L548.996 451.75L559.789 440.961L553.944 435.119C558.137 429.291 560.925 422.572 562.092 415.489L570.368 415.546ZM515.906 439.298C509.697 439.298 503.626 437.457 498.463 434.009C493.3 430.56 489.275 425.658 486.899 419.923C484.523 414.188 483.901 407.878 485.112 401.789C486.324 395.701 489.314 390.109 493.705 385.719C498.096 381.33 503.691 378.341 509.781 377.13C515.871 375.919 522.184 376.54 527.922 378.916C533.659 381.291 538.562 385.314 542.012 390.475C545.462 395.637 547.304 401.705 547.304 407.912C547.306 412.037 546.494 416.121 544.915 419.932C543.336 423.743 541.021 427.205 538.102 430.12C535.183 433.035 531.718 435.346 527.904 436.921C524.091 438.496 520.004 439.304 515.878 439.298H515.906Z" fill="#A6D7FF"/>
<path d="M346.079 296.058V275.675H335.045C333.49 266.207 329.767 257.226 324.166 249.434L331.973 241.631L317.554 227.217L309.748 235.021C301.953 229.423 292.969 225.701 283.498 224.147V213.116H263.107V224.147C253.636 225.704 244.653 229.425 236.857 235.021L229.093 227.217L214.674 241.631L222.495 249.434C216.89 257.226 213.163 266.206 211.602 275.675H200.568V296.058H211.602C213.165 305.526 216.893 314.506 222.495 322.298L214.674 330.102L229.093 344.516L236.899 336.698C244.695 342.298 253.678 346.024 263.149 347.586V358.617H283.54V347.586C293.013 346.026 301.996 342.3 309.79 336.698L317.597 344.516L332.016 330.102L324.209 322.298C329.8 314.501 333.522 305.523 335.087 296.058H346.079ZM273.302 327.799C265.006 327.799 256.895 325.34 249.997 320.732C243.099 316.125 237.722 309.576 234.547 301.913C231.372 294.251 230.541 285.82 232.16 277.686C233.778 269.551 237.774 262.08 243.64 256.215C249.507 250.351 256.981 246.357 265.118 244.739C273.256 243.121 281.69 243.952 289.355 247.125C297.02 250.299 303.572 255.674 308.181 262.57C312.79 269.465 315.251 277.573 315.251 285.866C315.251 296.988 310.831 307.654 302.964 315.517C295.097 323.381 284.428 327.799 273.302 327.799Z" fill="#A6D7FF"/>
<path d="M496.682 191.908V178.447H489.401C488.371 172.192 485.914 166.258 482.22 161.105L487.368 155.959L477.855 146.436L472.693 151.595C467.545 147.898 461.613 145.437 455.359 144.403V137.125H441.893V144.403C435.637 145.432 429.704 147.893 424.559 151.595L419.397 146.436L409.87 155.959L415.031 161.105C411.327 166.252 408.868 172.188 407.85 178.447H400.556V191.908H407.85C408.871 198.161 411.329 204.093 415.031 209.236L409.87 214.381L419.397 223.905L424.559 218.745C429.704 222.447 435.637 224.909 441.893 225.938V233.272H455.359V225.995C461.613 224.961 467.545 222.499 472.693 218.802L477.855 223.962L487.368 214.438L482.206 209.236C485.905 204.089 488.367 198.16 489.401 191.908H496.682ZM448.619 212.86C443.141 212.857 437.787 211.231 433.233 208.187C428.68 205.142 425.132 200.817 423.037 195.757C420.943 190.697 420.396 185.13 421.467 179.76C422.537 174.389 425.176 169.457 429.051 165.585C432.925 161.714 437.861 159.079 443.234 158.011C448.607 156.944 454.176 157.493 459.237 159.589C464.297 161.686 468.623 165.235 471.666 169.788C474.709 174.341 476.333 179.694 476.333 185.17C476.333 188.808 475.616 192.41 474.223 195.77C472.83 199.13 470.789 202.184 468.215 204.755C465.641 207.326 462.586 209.366 459.223 210.757C455.861 212.147 452.258 212.862 448.619 212.86V212.86Z" fill="#A6D7FF"/>
<path d="M457.463 268.937H368.106V179.613H457.463V268.937ZM369.528 267.516H456.041V181.034H369.528V267.516Z" fill="#EFC45E"/>
<path d="M449.943 187H376V260.916H449.943V187Z" fill="#EFC45E"/>
<path d="M403.7 220.6V229H401.756V225.556H397.94V229H395.996V220.6H397.94V223.912H401.756V220.6H403.7ZM407.427 222.184H404.739V220.6H412.059V222.184H409.371V229H407.427V222.184ZM420.749 229L420.737 223.96L418.265 228.112H417.389L414.929 224.068V229H413.105V220.6H414.713L417.857 225.82L420.953 220.6H422.549L422.573 229H420.749ZM424.566 220.6H426.51V227.416H430.722V229H424.566V220.6Z" fill="#223D94"/>
<path d="M360.626 168.127H299.58V107.104H360.626V168.127ZM301.002 166.705H359.204V108.525H301.002V166.705Z" fill="#7946F2"/>
<path d="M355.179 112.548H305.04V162.668H355.179V112.548Z" fill="#7946F2"/>
<path d="M320.873 137.842C320.266 137.842 319.705 137.73 319.191 137.508C318.686 137.277 318.271 136.951 317.946 136.532L319.102 135.145C319.589 135.804 320.146 136.134 320.771 136.134C321.618 136.134 322.042 135.637 322.042 134.644V130.369H318.883V128.699H324.109V134.529C324.109 135.633 323.835 136.463 323.287 137.02C322.74 137.568 321.935 137.842 320.873 137.842ZM329.117 137.842C328.406 137.842 327.717 137.747 327.05 137.559C326.391 137.362 325.86 137.11 325.458 136.802L326.164 135.235C326.549 135.518 327.007 135.744 327.538 135.916C328.068 136.087 328.599 136.172 329.13 136.172C329.72 136.172 330.157 136.087 330.439 135.916C330.722 135.736 330.863 135.5 330.863 135.209C330.863 134.995 330.778 134.82 330.606 134.683C330.444 134.537 330.23 134.422 329.964 134.336C329.708 134.251 329.357 134.156 328.911 134.054C328.227 133.891 327.666 133.728 327.229 133.566C326.793 133.403 326.416 133.142 326.1 132.783C325.791 132.423 325.637 131.944 325.637 131.345C325.637 130.822 325.779 130.352 326.061 129.932C326.343 129.504 326.767 129.166 327.332 128.918C327.906 128.67 328.603 128.545 329.425 128.545C329.999 128.545 330.559 128.614 331.107 128.751C331.655 128.888 332.134 129.085 332.545 129.341L331.903 130.921C331.073 130.45 330.243 130.215 329.412 130.215C328.83 130.215 328.398 130.309 328.115 130.497C327.841 130.685 327.705 130.934 327.705 131.242C327.705 131.55 327.863 131.781 328.18 131.935C328.505 132.081 328.997 132.226 329.656 132.372C330.341 132.534 330.902 132.697 331.338 132.86C331.775 133.022 332.147 133.279 332.455 133.63C332.772 133.981 332.93 134.456 332.93 135.055C332.93 135.569 332.785 136.04 332.494 136.468C332.211 136.887 331.783 137.221 331.21 137.469C330.636 137.717 329.939 137.842 329.117 137.842Z" fill="white"/>
<path d="M540.009 125.043H478.963V64.0195H540.009V125.043ZM480.385 123.621H538.587V65.441H480.385V123.621Z" fill="#5BA1F4"/>
<path d="M534.139 69H484V119.121H534.139V69Z" fill="#5BA1F4"/>
<path d="M502.598 98.132C501.813 98.132 501.102 97.9633 500.464 97.626C499.833 97.2813 499.335 96.8083 498.968 96.207C498.609 95.5983 498.429 94.9127 498.429 94.15C498.429 93.3873 498.609 92.7053 498.968 92.104C499.335 91.4953 499.833 91.0223 500.464 90.685C501.102 90.3403 501.817 90.168 502.609 90.168C503.276 90.168 503.878 90.2853 504.413 90.52C504.956 90.7547 505.41 91.092 505.777 91.532L504.633 92.588C504.112 91.9867 503.467 91.686 502.697 91.686C502.22 91.686 501.795 91.7923 501.421 92.005C501.047 92.2103 500.754 92.5 500.541 92.874C500.336 93.248 500.233 93.6733 500.233 94.15C500.233 94.6267 500.336 95.052 500.541 95.426C500.754 95.8 501.047 96.0933 501.421 96.306C501.795 96.5113 502.22 96.614 502.697 96.614C503.467 96.614 504.112 96.3097 504.633 95.701L505.777 96.757C505.41 97.2043 504.956 97.5453 504.413 97.78C503.87 98.0147 503.265 98.132 502.598 98.132ZM509.446 98.132C508.837 98.132 508.247 98.0513 507.675 97.89C507.11 97.7213 506.656 97.505 506.311 97.241L506.916 95.899C507.246 96.141 507.638 96.3353 508.093 96.482C508.548 96.6287 509.002 96.702 509.457 96.702C509.963 96.702 510.337 96.6287 510.579 96.482C510.821 96.328 510.942 96.1263 510.942 95.877C510.942 95.6937 510.869 95.5433 510.722 95.426C510.583 95.3013 510.399 95.2023 510.172 95.129C509.952 95.0557 509.651 94.975 509.27 94.887C508.683 94.7477 508.203 94.6083 507.829 94.469C507.455 94.3297 507.132 94.106 506.861 93.798C506.597 93.49 506.465 93.0793 506.465 92.566C506.465 92.1187 506.586 91.7153 506.828 91.356C507.07 90.9893 507.433 90.6997 507.917 90.487C508.408 90.2743 509.006 90.168 509.71 90.168C510.201 90.168 510.682 90.2267 511.151 90.344C511.62 90.4613 512.031 90.63 512.383 90.85L511.833 92.203C511.122 91.7997 510.41 91.598 509.699 91.598C509.2 91.598 508.83 91.6787 508.588 91.84C508.353 92.0013 508.236 92.214 508.236 92.478C508.236 92.742 508.372 92.94 508.643 93.072C508.922 93.1967 509.343 93.3213 509.908 93.446C510.495 93.5853 510.975 93.7247 511.349 93.864C511.723 94.0033 512.042 94.2233 512.306 94.524C512.577 94.8247 512.713 95.2317 512.713 95.745C512.713 96.185 512.588 96.5883 512.339 96.955C512.097 97.3143 511.73 97.6003 511.239 97.813C510.748 98.0257 510.15 98.132 509.446 98.132ZM516.461 98.132C515.852 98.132 515.262 98.0513 514.69 97.89C514.125 97.7213 513.67 97.505 513.326 97.241L513.931 95.899C514.261 96.141 514.653 96.3353 515.108 96.482C515.562 96.6287 516.017 96.702 516.472 96.702C516.978 96.702 517.352 96.6287 517.594 96.482C517.836 96.328 517.957 96.1263 517.957 95.877C517.957 95.6937 517.883 95.5433 517.737 95.426C517.597 95.3013 517.414 95.2023 517.187 95.129C516.967 95.0557 516.666 94.975 516.285 94.887C515.698 94.7477 515.218 94.6083 514.844 94.469C514.47 94.3297 514.147 94.106 513.876 93.798C513.612 93.49 513.48 93.0793 513.48 92.566C513.48 92.1187 513.601 91.7153 513.843 91.356C514.085 90.9893 514.448 90.6997 514.932 90.487C515.423 90.2743 516.021 90.168 516.725 90.168C517.216 90.168 517.696 90.2267 518.166 90.344C518.635 90.4613 519.046 90.63 519.398 90.85L518.848 92.203C518.136 91.7997 517.425 91.598 516.714 91.598C516.215 91.598 515.845 91.6787 515.603 91.84C515.368 92.0013 515.251 92.214 515.251 92.478C515.251 92.742 515.386 92.94 515.658 93.072C515.936 93.1967 516.358 93.3213 516.923 93.446C517.509 93.5853 517.99 93.7247 518.364 93.864C518.738 94.0033 519.057 94.2233 519.321 94.524C519.592 94.8247 519.728 95.2317 519.728 95.745C519.728 96.185 519.603 96.5883 519.354 96.955C519.112 97.3143 518.745 97.6003 518.254 97.813C517.762 98.0257 517.165 98.132 516.461 98.132Z" fill="white"/>
<path d="M567.709 314.466H495.003V241.801H567.68L567.709 314.466ZM496.453 313.045H566.287V243.223H496.425L496.453 313.045Z" fill="#7946F2"/>
<path d="M560.922 248H501V307.9H560.922V248Z" fill="#7946F2"/>
<path d="M519.12 282.12C518.647 282.12 518.21 282.033 517.81 281.86C517.417 281.68 517.093 281.427 516.84 281.1L517.74 280.02C518.12 280.533 518.553 280.79 519.04 280.79C519.7 280.79 520.03 280.403 520.03 279.63V276.3H517.57V275H521.64V279.54C521.64 280.4 521.427 281.047 521 281.48C520.573 281.907 519.947 282.12 519.12 282.12ZM527.704 280.5H524.454L523.834 282H522.174L525.294 275H526.894L530.024 282H528.324L527.704 280.5ZM527.194 279.27L526.084 276.59L524.974 279.27H527.194ZM537.099 275L534.069 282H532.469L529.449 275H531.199L533.329 280L535.489 275H537.099ZM542.059 280.5H538.809L538.189 282H536.529L539.649 275H541.249L544.379 282H542.679L542.059 280.5ZM541.549 279.27L540.439 276.59L539.329 279.27H541.549Z" fill="white"/>
<path d="M117.197 492.347H44.5193V419.697H117.197V492.347ZM45.9413 490.926H115.775V421.118H45.9413V490.926Z" fill="#5BA1F4"/>
<path d="M110.922 426H51V485.9H110.922V426Z" fill="#5BA1F4"/>
<path d="M72.246 452.3C72.928 452.3 73.5183 452.414 74.017 452.641C74.523 452.868 74.9117 453.191 75.183 453.609C75.4543 454.027 75.59 454.522 75.59 455.094C75.59 455.659 75.4543 456.154 75.183 456.579C74.9117 456.997 74.523 457.32 74.017 457.547C73.5183 457.767 72.928 457.877 72.246 457.877H70.695V460H68.913V452.3H72.246ZM72.147 456.425C72.6823 456.425 73.0893 456.311 73.368 456.084C73.6467 455.849 73.786 455.519 73.786 455.094C73.786 454.661 73.6467 454.331 73.368 454.104C73.0893 453.869 72.6823 453.752 72.147 453.752H70.695V456.425H72.147ZM83.9242 452.3V460H82.1422V456.843H78.6442V460H76.8622V452.3H78.6442V455.336H82.1422V452.3H83.9242ZM89.079 452.3C89.761 452.3 90.3513 452.414 90.85 452.641C91.356 452.868 91.7447 453.191 92.016 453.609C92.2873 454.027 92.423 454.522 92.423 455.094C92.423 455.659 92.2873 456.154 92.016 456.579C91.7447 456.997 91.356 457.32 90.85 457.547C90.3513 457.767 89.761 457.877 89.079 457.877H87.528V460H85.746V452.3H89.079ZM88.98 456.425C89.5153 456.425 89.9223 456.311 90.201 456.084C90.4797 455.849 90.619 455.519 90.619 455.094C90.619 454.661 90.4797 454.331 90.201 454.104C89.9223 453.869 89.5153 453.752 88.98 453.752H87.528V456.425H88.98Z" fill="white"/>
<path d="M215.854 576.668H126.497V487.344H215.854V576.668ZM127.919 575.247H214.432V488.765H127.919V575.247Z" fill="#7946F2"/>
<path d="M207.943 495H134V568.916H207.943V495Z" fill="#7946F2"/>
<path d="M163.27 537.18C162.2 537.18 161.23 536.95 160.36 536.49C159.5 536.02 158.82 535.375 158.32 534.555C157.83 533.725 157.585 532.79 157.585 531.75C157.585 530.71 157.83 529.78 158.32 528.96C158.82 528.13 159.5 527.485 160.36 527.025C161.23 526.555 162.205 526.32 163.285 526.32C164.195 526.32 165.015 526.48 165.745 526.8C166.485 527.12 167.105 527.58 167.605 528.18L166.045 529.62C165.335 528.8 164.455 528.39 163.405 528.39C162.755 528.39 162.175 528.535 161.665 528.825C161.155 529.105 160.755 529.5 160.465 530.01C160.185 530.52 160.045 531.1 160.045 531.75C160.045 532.4 160.185 532.98 160.465 533.49C160.755 534 161.155 534.4 161.665 534.69C162.175 534.97 162.755 535.11 163.405 535.11C164.455 535.11 165.335 534.695 166.045 533.865L167.605 535.305C167.105 535.915 166.485 536.38 165.745 536.7C165.005 537.02 164.18 537.18 163.27 537.18ZM175.983 532.665H173.373V535.215H171.438V532.665H168.843V530.835H171.438V528.285H173.373V530.835H175.983V532.665ZM185.05 532.665H182.44V535.215H180.505V532.665H177.91V530.835H180.505V528.285H182.44V530.835H185.05V532.665Z" fill="white"/>
<path d="M86.1552 599.468H25.1238V538.445H86.1552V599.468ZM26.5458 598.047H84.7332V539.866H26.5458V598.047Z" fill="#EFC45E"/>
<path d="M81.1391 544H31V594.121H81.1391V544Z" fill="#EFC45E"/>
<path d="M52.456 567.336L48.46 568.8L52.456 570.252V571.752L46.744 569.58V568.02L52.456 565.848V567.336ZM56.7476 562.896H58.4156L54.4556 574.2H52.7876L56.7476 562.896ZM64.3388 568.02V569.58L58.6268 571.752V570.252L62.6228 568.8L58.6268 567.336V565.848L64.3388 568.02Z" fill="#223D94"/>
<path d="M155.462 105.526L143.304 109.989L155.462 114.41V118.973L138.086 112.363V107.615L155.462 101.077V105.526Z" fill="#A6D7FF"/>
<path d="M172.213 92.0225H177.289L165.231 126.422H160.155L172.213 92.0225Z" fill="#A6D7FF"/>
<path d="M198.975 107.615V112.363L181.584 118.973V114.41L193.756 109.989L181.584 105.526V101.077L198.975 107.615Z" fill="#A6D7FF"/>
<path d="M270.672 62.598H265.339V57.2676H262.495V62.598H257.163V65.441H262.495V70.7714H265.339V65.441H270.672V62.598Z" fill="#A6D7FF"/>
<path d="M568.093 159.357H562.76V154.026H559.916V159.357H554.584V162.2H559.916V167.53H562.76V162.2H568.093V159.357Z" fill="#A6D7FF"/>
<path d="M611.919 289.221H606.586V283.891H603.742V289.221H598.41V292.064H603.742V297.394H606.586V292.064H611.919V289.221Z" fill="#A6D7FF"/>
<path d="M72.333 55.8461H67.0006V50.5156H64.1566V55.8461H58.8242V58.689H64.1566V64.0195H67.0006V58.689H72.333V55.8461Z" fill="#A6D7FF"/>
<path d="M43.9222 206.79H38.5897V201.46H35.7458V206.79H30.4133V209.633H35.7458V214.964H38.5897V209.633H43.9222V206.79Z" fill="#A6D7FF"/>
<path d="M605.164 355.106H599.831V349.775H596.987V355.106H591.655V357.949H596.987V363.279H599.831V357.949H605.164V355.106Z" fill="#A6D7FF"/>
<path d="M33.0872 343.051H27.7548V337.721H24.9108V343.051H19.5784V345.894H24.9108V351.225H27.7548V345.894H33.0872V343.051Z" fill="#A6D7FF"/>
<path d="M326.91 549.93H321.578V544.6H318.734V549.93H313.402V552.773H318.734V558.103H321.578V552.773H326.91V549.93Z" fill="#A6D7FF"/>
<path d="M470.531 598.047H465.199V592.717H462.355V598.047H457.022V600.89H462.355V606.221H465.199V600.89H470.531V598.047Z" fill="#A6D7FF"/>
<g opacity="0.5">
<path opacity="0.5" d="M394.042 594.18C388.105 594.18 382.302 592.421 377.365 589.123C372.429 585.826 368.581 581.14 366.309 575.657C364.037 570.174 363.443 564.14 364.601 558.319C365.759 552.499 368.618 547.152 372.816 542.955C377.015 538.759 382.363 535.901 388.186 534.743C394.009 533.585 400.045 534.179 405.53 536.451C411.015 538.722 415.703 542.568 419.002 547.503C422.3 552.437 424.06 558.239 424.06 564.173C424.053 572.13 420.888 579.758 415.26 585.383C409.632 591.009 402.001 594.173 394.042 594.18V594.18ZM394.042 535.602C388.386 535.602 382.857 537.279 378.154 540.421C373.451 543.562 369.786 548.028 367.622 553.252C365.458 558.476 364.892 564.224 365.997 569.77C367.101 575.315 369.826 580.409 373.827 584.406C377.828 588.403 382.924 591.124 388.472 592.226C394.02 593.327 399.771 592.759 404.996 590.593C410.221 588.427 414.686 584.761 417.826 580.059C420.967 575.356 422.641 569.828 422.638 564.173C422.627 556.597 419.61 549.334 414.25 543.978C408.889 538.622 401.622 535.61 394.042 535.602Z" fill="#5BA1F4"/>
<path opacity="0.5" d="M605.164 469.774C601.555 469.774 598.028 468.704 595.028 466.7C592.028 464.696 589.689 461.848 588.308 458.516C586.928 455.183 586.566 451.516 587.27 447.979C587.974 444.441 589.712 441.191 592.263 438.641C594.815 436.09 598.065 434.353 601.604 433.65C605.143 432.946 608.812 433.307 612.145 434.688C615.479 436.068 618.328 438.405 620.333 441.405C622.338 444.404 623.408 447.93 623.408 451.537C623.404 456.372 621.481 461.009 618.06 464.428C614.639 467.848 610.001 469.77 605.164 469.774V469.774ZM605.164 434.721C601.837 434.721 598.584 435.707 595.818 437.555C593.052 439.403 590.895 442.029 589.622 445.101C588.349 448.174 588.016 451.555 588.665 454.817C589.314 458.079 590.916 461.075 593.269 463.427C595.621 465.779 598.619 467.38 601.882 468.029C605.145 468.678 608.527 468.345 611.601 467.072C614.675 465.8 617.302 463.644 619.151 460.879C620.999 458.114 621.986 454.862 621.986 451.537C621.978 447.079 620.203 442.806 617.05 439.654C613.897 436.502 609.623 434.728 605.164 434.721V434.721Z" fill="#5BA1F4"/>
<path opacity="0.5" d="M552.266 573.143C549.288 573.143 546.376 572.26 543.9 570.606C541.424 568.952 539.494 566.601 538.354 563.85C537.214 561.099 536.916 558.073 537.497 555.153C538.078 552.233 539.512 549.55 541.618 547.445C543.724 545.34 546.407 543.906 549.328 543.325C552.25 542.745 555.277 543.043 558.029 544.182C560.781 545.321 563.133 547.251 564.787 549.726C566.442 552.202 567.325 555.112 567.325 558.089C567.321 562.081 565.734 565.907 562.91 568.729C560.087 571.552 556.259 573.139 552.266 573.143V573.143ZM552.266 544.472C549.569 544.472 546.931 545.272 544.689 546.77C542.446 548.269 540.698 550.399 539.666 552.89C538.634 555.382 538.365 558.124 538.893 560.768C539.42 563.413 540.72 565.842 542.629 567.748C544.537 569.654 546.968 570.951 549.615 571.475C552.261 572 555.003 571.728 557.495 570.694C559.986 569.66 562.115 567.91 563.612 565.667C565.109 563.423 565.906 560.786 565.903 558.089C565.896 554.478 564.456 551.016 561.9 548.464C559.344 545.911 555.879 544.476 552.266 544.472V544.472Z" fill="#5BA1F4"/>
<path opacity="0.5" d="M44.5193 142.554C38.5823 142.554 32.7786 140.795 27.8421 137.497C22.9057 134.2 19.0582 129.514 16.7862 124.031C14.5142 118.548 13.9198 112.514 15.078 106.693C16.2363 100.873 19.0952 95.5259 23.2933 91.3294C27.4914 87.1328 32.8401 84.2749 38.663 83.1171C44.486 81.9593 50.5216 82.5535 56.0067 84.8247C61.4917 87.0958 66.1799 90.9419 69.4783 95.8765C72.7768 100.811 74.5373 106.613 74.5373 112.547C74.5298 120.504 71.3647 128.132 65.7369 133.757C60.109 139.383 52.4782 142.547 44.5193 142.554V142.554ZM44.5193 84.0189C38.8629 84.0189 33.3336 85.6957 28.6307 88.8374C23.9278 91.979 20.2626 96.4443 18.0986 101.668C15.9347 106.893 15.3692 112.641 16.4737 118.186C17.5783 123.732 20.3032 128.825 24.3038 132.822C28.3045 136.82 33.4011 139.541 38.9492 140.642C44.4972 141.744 50.2473 141.176 55.4723 139.01C60.6973 136.844 65.1625 133.178 68.3029 128.475C71.4434 123.773 73.1181 118.244 73.1153 112.59C73.104 105.014 70.0871 97.7507 64.7264 92.3946C59.3656 87.0385 52.0986 84.0264 44.5193 84.0189V84.0189Z" fill="#5BA1F4"/>
<path opacity="0.5" d="M178.711 68.2407C175.103 68.2407 171.576 67.1711 168.575 65.1672C165.575 63.1632 163.237 60.315 161.856 56.9825C160.475 53.6501 160.114 49.9832 160.818 46.4455C161.522 42.9078 163.259 39.6582 165.811 37.1077C168.362 34.5572 171.613 32.8202 175.152 32.1165C178.691 31.4129 182.359 31.774 185.693 33.1544C189.027 34.5347 191.876 36.8722 193.881 39.8713C195.885 42.8704 196.955 46.3964 196.955 50.0034C196.952 54.8391 195.028 59.4756 191.608 62.895C188.187 66.3143 183.549 68.237 178.711 68.2407V68.2407ZM178.711 33.1876C175.384 33.1876 172.132 34.1738 169.365 36.0216C166.599 37.8693 164.443 40.4956 163.17 43.5683C161.897 46.641 161.563 50.0221 162.212 53.284C162.862 56.546 164.464 59.5423 166.816 61.894C169.169 64.2457 172.166 65.8473 175.429 66.4961C178.693 67.145 182.075 66.812 185.149 65.5392C188.223 64.2665 190.85 62.1111 192.698 59.3458C194.547 56.5804 195.533 53.3293 195.533 50.0034C195.526 45.5459 193.751 41.2731 190.598 38.1211C187.445 34.9692 183.17 33.1951 178.711 33.1876V33.1876Z" fill="#5BA1F4"/>
<path opacity="0.5" d="M33.1009 302.127C30.3294 302.132 27.6186 301.316 25.3115 299.781C23.0044 298.246 21.2048 296.061 20.1403 293.503C19.0758 290.945 18.7944 288.129 19.3316 285.411C19.8688 282.693 21.2006 280.196 23.1583 278.235C25.116 276.274 27.6117 274.938 30.3294 274.395C33.0472 273.853 35.8649 274.128 38.4259 275.187C40.9869 276.246 43.1761 278.041 44.7164 280.344C46.2568 282.647 47.079 285.355 47.079 288.125C47.079 291.834 45.6072 295.391 42.9866 298.016C40.366 300.641 36.8107 302.119 33.1009 302.127V302.127ZM33.1009 275.56C30.6101 275.554 28.1736 276.287 26.1001 277.667C24.0265 279.046 22.4091 281.01 21.4527 283.309C20.4962 285.608 20.2438 288.139 20.7273 290.582C21.2108 293.024 22.4085 295.268 24.1688 297.03C25.9291 298.791 28.1727 299.991 30.6156 300.477C33.0584 300.963 35.5907 300.714 37.8916 299.76C40.1925 298.807 42.1587 297.192 43.541 295.121C44.9234 293.05 45.6598 290.615 45.657 288.125C45.6532 284.796 44.3296 281.605 41.9761 279.249C39.6226 276.894 36.4311 275.567 33.1009 275.56V275.56Z" fill="#5BA1F4"/>
</g>
</svg>
