<svg width="60" height="60" viewBox="0 0 60 60" fill="none" xmlns="http://www.w3.org/2000/svg">
<path d="M25.8567 13.41C28.9505 13.41 32.0616 13.41 35.1554 13.4273C35.4147 13.6865 35.3455 14.0321 35.3628 14.3432C35.3801 15.7603 35.3628 17.1773 35.3628 18.5944C35.3628 19.372 35.4319 19.4238 36.2097 19.4238C36.59 19.4238 36.9875 19.4066 37.3677 19.4238C37.9035 19.4584 38.1455 19.2165 38.2146 18.698C38.4048 17.2119 38.6295 15.7257 38.8541 14.2222C38.906 13.9112 38.9233 13.5828 39.1825 13.3409C39.4764 13.1681 39.8048 13.2027 40.1331 13.2027C41.5677 13.2027 43.0196 13.2027 44.4541 13.2199C45.785 13.41 47.0294 13.9285 48.3084 14.3086C50.2096 14.8789 52.1109 15.4492 53.9948 16.054C54.5652 16.2441 54.6343 16.1923 54.6516 15.6047C54.6689 15.1036 54.6516 14.6197 54.6516 14.1185C54.6516 13.8593 54.617 13.6001 54.8417 13.3927C55.8269 13.3927 56.8294 13.3927 57.8146 13.3927C59.0936 13.41 59.9923 14.2568 59.9923 15.5183C59.9923 25.8351 59.9923 36.152 59.9923 46.4688C59.8022 46.6589 59.5775 46.6762 59.3355 46.6934C59.1281 46.7107 58.9034 46.6934 58.696 46.6934C39.5628 46.6934 20.4468 46.6934 1.31357 46.6934C0.864194 46.6934 0.397529 46.7971 0.0172839 46.4688C0 36.1692 0 25.8524 0 15.5183C0 14.2914 0.881478 13.4273 2.12592 13.41C3.14566 13.3927 4.14813 13.41 5.16788 13.41C5.42714 13.6692 5.37528 14.0149 5.37528 14.3259C5.39257 15.743 5.37528 17.16 5.37528 18.5944C5.37528 19.3547 5.42714 19.4066 6.17034 19.4238C12.3925 19.4238 18.6147 19.4238 24.8369 19.4238C25.5801 19.4238 25.632 19.3547 25.632 18.5944C25.632 17.1773 25.632 15.7603 25.632 14.3259C25.6666 14.0149 25.6147 13.6692 25.8567 13.41Z" fill="#377FE9"/>
<path d="M25.8566 13.4102C25.8566 15.2593 25.8393 17.1084 25.8566 18.9575C25.8566 19.4413 25.7702 19.6314 25.2171 19.6314C18.7357 19.6141 12.2542 19.6141 5.77275 19.6314C5.23695 19.6314 5.13325 19.4413 5.13325 18.9575C5.15053 17.1084 5.13325 15.2593 5.13325 13.4102C5.13325 10.1787 5.15053 6.94709 5.11597 3.71552C5.11597 3.23165 5.21967 3.05884 5.73819 3.05884C12.2196 3.07612 18.7011 3.07612 25.1825 3.05884C25.7183 3.05884 25.822 3.23165 25.8048 3.71552C25.8566 6.94709 25.8566 10.1787 25.8566 13.4102Z" fill="#78B8EA"/>
<path d="M0 46.5035C0.190123 46.5035 0.380245 46.5208 0.587652 46.5208C20.1876 46.5208 39.8048 46.5208 59.4047 46.5208C59.5948 46.5208 59.7849 46.5035 59.9923 46.5035C59.9923 47.1429 60.0096 47.7996 59.9923 48.439C59.9923 49.8215 59.1627 50.651 57.78 50.651C49.5529 50.651 41.3085 50.651 33.0813 50.651C32.8566 50.8584 32.5801 50.8584 32.3036 50.8584C30.7653 50.8584 29.227 50.8584 27.6888 50.8584C27.4122 50.8584 27.1357 50.8757 26.911 50.651C18.7184 50.651 10.5259 50.651 2.35061 50.651C0.777774 50.651 0.0172839 49.8734 0.0172839 48.3008C0 47.7132 0 47.1084 0 46.5035Z" fill="#E7E4FA"/>
<path d="M54.8589 13.4274C54.8589 13.9459 54.8416 14.4643 54.8416 14.9827C54.8416 15.4839 54.8416 15.9677 54.8416 16.538C53.3379 16.0714 51.886 15.6221 50.4342 15.1901C48.4811 14.6025 46.528 14.015 44.575 13.4274C43.6762 13.3237 42.812 13.03 41.9651 12.7707C41.6885 12.6843 41.3774 12.5979 41.2564 12.2696C41.1355 11.6993 41.1873 11.1118 41.1873 10.5415C41.1873 8.74424 41.1873 6.92972 41.1873 5.13249C41.1873 4.78687 41.1355 4.44124 41.412 4.14747C45.854 2.78226 50.2959 1.39977 54.8589 0C54.8589 2.1083 54.8589 4.16475 54.8589 6.20392C54.9971 6.35945 55.0317 6.54954 55.0317 6.73963C55.049 7.75922 55.049 8.7788 55.0317 9.81567C55.0317 10.0058 54.9798 10.1959 54.8589 10.3514C54.8416 11.3537 54.8416 12.3906 54.8589 13.4274Z" fill="#F5CB4F"/>
<path d="M33.0987 55.8354C35.2937 55.8354 37.4888 55.8526 39.6839 55.8354C40.1678 55.8354 40.3752 55.9218 40.3579 56.4748C40.3061 57.4598 40.3234 58.4621 40.3579 59.4471C40.3752 59.8791 40.2024 60.0001 39.7876 60.0001C33.2543 59.9828 26.7382 59.9828 20.2049 60.0001C19.7901 60.0001 19.6346 59.8791 19.6346 59.4471C19.6518 58.4275 19.6691 57.4252 19.6346 56.4056C19.6173 55.9218 19.8074 55.8354 20.2395 55.8354C22.4518 55.8526 24.6815 55.8354 26.8938 55.8354C27.1185 55.628 27.395 55.628 27.6716 55.628C29.2098 55.628 30.7481 55.628 32.2864 55.628C32.5802 55.628 32.874 55.6107 33.0987 55.8354Z" fill="#E7E4FA"/>
<path d="M41.3936 4.11304C41.3936 6.86073 41.3936 9.62571 41.3936 12.3734C40.7196 12.7709 39.9938 12.5117 39.3026 12.5635C38.162 12.5981 37.0388 12.5808 35.8982 12.5808C35.639 12.5808 35.3798 12.5635 35.1724 12.3734C33.9973 12.3561 34.1528 12.5289 34.1355 11.3193C34.1355 10.9736 34.1355 10.6453 34.1355 10.2997C34.0837 10.2305 34.0146 10.1614 33.9973 10.0923C33.8763 8.86534 33.8763 7.63838 33.9973 6.41142C33.9973 6.32502 34.0664 6.25589 34.1355 6.20405C34.1355 5.68562 34.1701 5.16718 34.1355 4.66603C34.101 4.16488 34.3602 4.11304 34.7577 4.13032C36.9696 4.11304 39.1816 4.11304 41.3936 4.11304Z" fill="#E7E4FA"/>
<path d="M35.1727 12.3905C36.5552 12.3905 37.9204 12.3905 39.3029 12.3905C39.5276 12.7707 39.3893 13.099 39.1819 13.4274C38.9227 15.2592 38.6462 17.0737 38.4043 18.9055C38.3352 19.4239 38.2142 19.735 37.5921 19.6658C37.0045 19.5967 36.3824 19.614 35.7949 19.6658C35.3283 19.7004 35.1727 19.5622 35.1727 19.061C35.2073 17.1947 35.1727 15.3283 35.1727 13.4447C35.1727 13.0817 35.1727 12.7361 35.1727 12.3905Z" fill="#C6BDC4"/>
<path d="M33.0976 55.8351C31.0412 55.8351 28.9675 55.8351 26.911 55.8351C26.911 54.7982 26.911 53.7614 26.911 52.7245C27.1184 52.5171 27.3776 52.5344 27.6368 52.5344C29.2094 52.5344 30.782 52.5344 32.3546 52.5344C32.6138 52.5344 32.873 52.5344 33.0804 52.7245C33.0804 53.7614 33.0976 54.7982 33.0976 55.8351Z" fill="#8D94A2"/>
<path d="M54.8414 10.3169C54.8414 8.9344 54.8414 7.55191 54.8414 6.16942C55.5327 6.16942 56.2066 6.15214 56.8979 6.16942C58.0557 6.1867 58.9543 7.08532 58.9716 8.20859C58.9889 9.34915 58.073 10.2823 56.8979 10.3169C56.2239 10.3342 55.5327 10.3169 54.8414 10.3169Z" fill="#EB455A"/>
<path d="M34.1352 6.18658C34.1352 7.55179 34.1352 8.93428 34.1352 10.2995C33.2366 10.2995 32.3379 10.2995 31.4393 10.3168C31.1283 10.3168 31.0246 10.2304 31.0419 9.9193C31.0591 8.81331 31.0591 7.69004 31.0419 6.56677C31.0419 6.25571 31.1455 6.15202 31.4393 6.1693C32.3379 6.18658 33.2366 6.18658 34.1352 6.18658Z" fill="#EB455A"/>
<path d="M33.0804 52.7247C31.0239 52.7247 28.9675 52.7247 26.911 52.7247C26.911 52.0334 26.911 51.3595 26.911 50.6682C28.9675 50.6682 31.0239 50.6682 33.0976 50.6682C33.0804 51.3422 33.0804 52.0334 33.0804 52.7247Z" fill="#636263"/>
<path d="M30.9034 25.8352C31.1281 25.9907 31.0417 26.2327 31.0417 26.4228C31.0417 31.5207 31.0417 36.6359 31.059 41.7338C31.059 42.2695 30.8861 42.3732 30.4022 42.3732C21.864 42.3559 13.343 42.3559 4.80478 42.3732C4.32083 42.3732 4.13071 42.2695 4.148 41.7338C4.16528 36.6359 4.16528 31.5207 4.16528 26.4228C4.16528 26.2154 4.06158 25.9907 4.30355 25.8352C5.06404 26.0771 5.70354 26.5783 6.37761 26.993C9.92081 29.1877 13.4986 31.3479 17.0245 33.5771C17.4739 33.8536 17.8023 33.8364 18.2516 33.5599C22.2269 31.0887 26.2368 28.652 30.2121 26.1635C30.4195 26.0253 30.6787 25.9735 30.9034 25.8352Z" fill="#886FF6"/>
<path d="M53.8045 27.8917C54.3403 27.8917 54.8761 27.909 55.4119 27.8917C55.7403 27.8744 55.8613 27.9608 55.8613 28.3237C55.844 32.1774 55.844 36.0311 55.8613 39.8848C55.8613 40.2304 55.7576 40.3168 55.4119 40.3168C49.8293 40.2995 44.2466 40.2995 38.6812 40.3168C38.3182 40.3168 38.2491 40.1786 38.2663 39.8675C38.2836 38.6405 38.2663 37.4136 38.2663 36.1866C38.0589 35.9274 38.0762 35.6336 38.0762 35.3226C38.0762 33.1279 38.0589 30.9332 38.0762 28.7385C38.0762 27.8398 38.2318 27.6843 39.1478 27.6843C43.7453 27.667 48.3601 27.6843 52.9576 27.6843C53.2342 27.6843 53.5453 27.6843 53.8045 27.8917Z" fill="#EB455A"/>
<path d="M30.9032 25.8352C29.7452 26.7338 28.4489 27.4078 27.2217 28.1682C24.197 30.0518 21.1378 31.9009 18.1131 33.8018C17.7501 34.0265 17.5082 34.061 17.1452 33.8364C13.0144 31.2788 8.86624 28.7384 4.73539 26.1981C4.57984 26.0944 4.42428 25.9735 4.28601 25.8525C13.1526 25.8352 22.0193 25.8352 30.9032 25.8352Z" fill="#B8B0F0"/>
<path d="M53.8046 27.8918C48.896 27.8918 43.9874 27.9091 39.0788 27.8918C38.4393 27.8918 38.2491 28.03 38.2491 28.704C38.2837 31.1925 38.2491 33.6982 38.2491 36.1867C37.3677 36.1867 36.4862 36.1694 35.6047 36.1867C35.2763 36.1867 35.1553 36.1003 35.1553 35.7547C35.1726 31.901 35.1726 28.0473 35.1553 24.1936C35.1553 23.6406 35.501 23.7616 35.7948 23.7616C40.9454 23.7616 46.0787 23.7616 51.2293 23.7616C51.9207 23.7616 52.612 23.7789 53.3034 23.7443C53.7182 23.7271 53.8046 23.8826 53.8046 24.2628C53.7873 25.4724 53.8046 26.6821 53.8046 27.8918Z" fill="#9D2849"/>
<path d="M12.4443 15.4666C12.4443 12.6843 12.4443 9.98849 12.4443 7.22351C14.8464 8.606 17.1966 9.93665 19.6506 11.3364C17.1966 12.7535 14.8637 14.0841 12.4443 15.4666Z" fill="#EB455A"/>
<path d="M49.1376 33.0761C48.1007 33.0761 47.0811 33.0588 46.0443 33.0934C45.6122 33.1107 45.5086 32.9552 45.5086 32.5404C45.5086 31.0024 45.4913 31.0024 47.0466 31.0024C48.7747 31.0024 50.4855 31.0197 52.2136 30.9851C52.6802 30.9851 52.7839 31.1234 52.7839 31.5727C52.7666 33.0761 52.7839 33.0761 51.2804 33.0761C50.5546 33.0761 49.8461 33.0761 49.1376 33.0761Z" fill="#E7E4FA"/>
<path d="M50.1748 37.2062C49.4836 37.2062 48.7923 37.1889 48.1184 37.2062C47.7555 37.2235 47.5999 37.1371 47.5826 36.7223C47.5654 35.1324 47.5481 35.1324 49.1207 35.1324C50.1748 35.1324 51.229 35.1497 52.2831 35.1324C52.6287 35.1324 52.767 35.2016 52.7843 35.5818C52.8361 37.2062 52.8361 37.2062 51.2117 37.2062C50.8488 37.2062 50.5032 37.2062 50.1748 37.2062Z" fill="#E7E4FA"/>
<path d="M43.4164 37.2062C42.8634 37.2062 42.2931 37.1889 41.7401 37.2062C41.4636 37.2062 41.3772 37.1198 41.3599 36.8433C41.239 35.1324 41.2217 35.1324 42.9152 35.1324C43.641 35.1324 44.3841 35.1497 45.1099 35.1324C45.421 35.1324 45.5074 35.2361 45.5247 35.5299C45.6111 37.2062 45.6284 37.2062 43.9348 37.2062C43.762 37.2062 43.5892 37.2062 43.4164 37.2062Z" fill="#E7E4FA"/>
<path d="M42.4314 33.0761C41.3773 33.0761 41.3773 33.0761 41.3773 31.8491C41.3773 31.0023 41.3773 31.0023 42.6215 31.0023C43.451 31.0023 43.451 31.0023 43.451 32.3157C43.451 33.0761 43.451 33.0761 42.4314 33.0761Z" fill="#E7E4FA"/>
</svg>
