<svg width="61" height="60" viewBox="0 0 61 60" fill="none" xmlns="http://www.w3.org/2000/svg">
<path d="M11.3676 59.9648C11.3676 59.9296 11.3676 59.8826 11.3676 59.8474C11.6143 59.636 11.9079 59.6712 12.2014 59.6712C13.7751 59.6712 15.3487 59.6712 16.9224 59.6712C17.6857 59.6712 17.7444 59.6125 17.7444 58.8374C17.7444 58.309 17.7327 57.7923 17.9206 57.2873C18.3551 56.9115 18.7309 56.9585 19.0127 57.4165C19.0715 57.5104 19.1184 57.6278 19.1654 57.7335C19.3181 58.0506 19.5412 58.262 19.9053 58.1211C20.2811 57.9684 20.2576 57.6396 20.1519 57.3343C19.8113 56.3478 19.4238 55.3731 19.0597 54.3866C18.954 54.093 18.8131 53.8112 18.8131 53.4941C19.9405 51.392 21.5846 49.9358 23.9803 49.4425C24.0625 49.4308 23.9568 49.4543 24.0273 49.419C24.0743 49.3956 24.0625 49.3603 24.0155 49.3251C24.3796 49.1372 24.7671 49.2077 25.1429 49.2311C25.5305 49.2546 25.7184 49.1372 25.7184 48.7379C25.9415 48.8084 25.9298 49.008 25.9298 49.1724C25.9885 51.1688 28.1023 53.3062 30.7681 52.8012C32.2831 52.4254 33.3635 51.5564 33.8919 50.0532C33.9859 49.7714 33.9859 49.4308 34.2442 49.2077C36.7456 49.3721 39.247 49.4778 41.7484 49.7009C45.389 50.018 48.043 52.7073 48.4071 56.1012C48.548 57.393 48.6184 58.6965 48.6302 60.0001C36.2054 59.9648 23.7807 59.9648 11.3676 59.9648Z" fill="#8FD7F8"/>
<path d="M0.211385 23.4304C0.0352309 23.0546 0.211385 22.62 0 22.256C0 21.4339 0 20.6119 0 19.8016C0.12918 19.0852 0.234873 18.3571 0.399284 17.6407C0.90426 15.4095 2.36047 14.2233 4.65048 14.1646C4.74443 14.1646 4.85012 14.1529 4.94407 14.1529C5.44905 14.0589 5.4373 14.423 5.41382 14.7283C5.39033 15.1981 5.3551 15.6561 5.33161 16.1258C5.21417 18.5802 5.07325 21.0229 5.09674 23.4773C5.09674 23.6535 5.07325 23.8296 4.9793 23.9823C4.65048 24.2876 4.23945 24.1937 3.86366 24.1819C2.8537 24.135 1.84375 24.0997 0.869029 23.7709C0.6459 23.677 0.399284 23.5948 0.211385 23.4304Z" fill="#407092"/>
<path d="M25.6836 46.5066C25.5661 46.3774 25.4017 46.3892 25.249 46.3892C23.4405 46.4362 21.632 46.3187 19.8235 46.2483C17.7801 46.1778 15.7484 46.0251 13.7168 45.9077C10.9923 44.6511 9.51258 42.4433 9.01935 39.5544C8.7375 37.9455 8.74924 36.2897 8.62006 34.6573C8.37345 31.4513 8.34996 28.2218 8.3617 25.0158C8.37345 22.8197 8.26775 20.6119 8.47914 18.4041C8.57309 17.3824 8.53786 16.3372 8.60832 15.3038C8.71401 13.6714 8.77273 12.0273 8.98412 10.4067C9.30119 7.91704 10.5108 5.93237 12.5189 4.44092C12.883 4.17082 13.294 4.00641 13.7051 3.83026C14.1161 3.64236 14.5389 3.74805 14.9616 3.73631C15.4431 3.71282 15.9246 3.71282 16.4061 3.60713C16.6292 3.40748 16.9111 3.43097 17.1812 3.43097C17.6744 3.43097 18.1559 3.41923 18.6374 3.32528C19.9996 3.34877 21.3619 3.17261 22.7242 3.18436C22.9943 3.18436 23.2761 3.14912 23.511 3.34877C24.4975 3.40748 25.4839 3.32528 26.4586 3.25482C26.9284 2.926 27.4569 3.11389 27.9618 3.06692C28.1732 3.05518 28.3846 3.05518 28.596 3.07866C29.9817 3.05518 31.3557 3.06692 32.7415 3.06692C33.0116 3.06692 33.2934 3.05518 33.5166 3.25482C34.4913 3.32528 35.4778 3.40748 36.4525 3.34877C37.1688 3.03169 37.9204 3.23133 38.6603 3.21959C39.9991 3.36051 41.3378 3.29005 42.6766 3.41923C42.9819 3.44272 43.3108 3.36051 43.5691 3.59538C44.5438 3.81851 45.542 3.77154 46.5285 3.80677C50.8267 3.95944 54.338 7.38858 54.4907 11.6515C54.5142 12.133 54.6081 12.6145 54.6081 13.1077C54.6081 13.6479 54.6786 14.1529 55.4184 14.1294C54.9252 14.3878 54.8547 14.8106 54.9487 15.3155C55.1014 16.2198 55.0896 17.1475 55.1014 18.0518C55.1366 20.0365 55.3362 22.0211 55.2423 24.0176C55.2775 25.1215 55.254 26.2136 55.254 27.3175C55.254 27.5524 55.2423 27.7873 55.0661 27.9634C54.9839 29.8894 54.9722 31.8271 54.8078 33.7413C54.6316 35.8669 54.7138 38.0277 54.1384 40.1063C53.3281 43.0422 50.5096 45.4497 47.5032 45.7903C45.683 45.9899 43.851 46.0486 42.0307 46.1426C39.6115 46.26 37.2041 46.3774 34.7849 46.3657C34.4208 46.3657 34.3269 46.4949 34.3269 46.8472C34.3151 47.5048 34.4326 48.1742 34.2447 48.8201C34.139 48.7614 34.1037 48.6557 34.0685 48.55C33.9981 48.0803 34.0333 47.6105 34.0333 47.1525C34.045 46.6828 33.8336 46.5653 33.3874 46.5888C30.8742 46.718 28.3611 46.7415 25.848 46.5418C25.7893 46.5536 25.7423 46.5301 25.6836 46.5066Z" fill="#8FD7F8"/>
<path d="M13.7046 3.84187C13.2701 4.28813 12.6712 4.52301 12.1897 4.92229C10.4164 6.40199 9.38294 8.26922 9.13633 10.5592C8.94843 12.2621 8.87797 13.9649 8.76053 15.6677C8.56089 18.4744 8.54915 21.2694 8.54915 24.0762C8.54915 26.2135 8.46694 28.3626 8.57263 30.4882C8.69007 32.8486 8.74879 35.2209 8.9954 37.5813C9.08935 38.4856 9.1011 39.4016 9.32422 40.2941C9.89966 42.6193 11.2619 44.3691 13.3053 45.6022C13.458 45.6962 13.6341 45.7314 13.7046 45.9193C9.44166 46.0015 5.80113 42.6076 5.48406 38.3564C5.27267 35.5379 5.06129 32.7312 5.01431 29.9127C5.00257 29.2668 4.94385 28.6327 4.90862 27.9868C4.87339 27.9163 4.88513 28.022 4.87339 27.9398C4.65026 26.6363 4.61503 25.321 4.89688 24.0174C4.94385 22.4203 4.92036 20.8232 5.01431 19.226C5.09652 17.7111 5.12 16.1962 5.26093 14.6812C5.28441 14.4346 5.34313 14.1528 4.94385 14.141C5.2257 14.0823 5.26093 13.8944 5.29616 13.6361C5.43708 12.4969 5.41359 11.3461 5.66021 10.2187C6.5175 6.42547 9.97012 3.74793 13.7046 3.84187Z" fill="#75CDF8"/>
<path d="M55.0776 24.0056C55.0424 22.7608 54.9837 21.516 54.972 20.2712C54.9485 18.4979 54.878 16.7246 54.7253 14.963C54.6784 14.3993 54.7488 14.047 55.4182 14.141C57.7317 14.2702 59.1292 15.4445 59.6224 17.6993C60.0335 19.6018 60.1509 21.5042 59.7868 23.4302C59.6342 23.5594 59.4698 23.6416 59.2819 23.712C58.0605 24.1231 56.7922 24.1935 55.5122 24.17C55.3477 24.1583 55.1951 24.1231 55.0776 24.0056Z" fill="#407092"/>
<path d="M34.1976 48.6087C34.2094 48.6791 34.2211 48.7613 34.2446 48.8318C34.2446 48.9492 34.2446 49.0667 34.2446 49.1841C33.9393 51.1335 32.7179 52.4841 30.8272 52.9186C30.2048 52.5663 29.5941 52.1905 29.1126 51.6385C28.4785 50.9104 28.1027 50.0766 28.0087 49.1136C27.9735 48.7144 28.1027 48.456 28.5372 48.4443C30.3105 48.4208 32.072 48.4208 33.8453 48.4443C33.9628 48.456 34.0919 48.503 34.1976 48.6087Z" fill="#407092"/>
<path d="M55.0775 24.0056C56.6746 24.0526 58.2365 23.8765 59.775 23.4185C59.5988 25.7202 58.5067 27.2469 56.6277 27.7871C56.1227 27.9398 55.5942 27.9867 55.0658 27.975C55.0775 26.6597 55.0775 25.3327 55.0775 24.0056Z" fill="#365E7D"/>
<path d="M43.5688 3.61872C41.9364 3.60697 40.3041 3.53651 38.6717 3.39559C38.4721 3.17246 38.5425 2.92584 38.6012 2.67923C38.9183 1.4344 39.7169 0.612348 40.8912 0.130859C42.5941 0.706297 43.5218 1.90415 43.5688 3.61872Z" fill="#DC636E"/>
<path d="M23.5107 3.36036C21.8783 3.40733 20.2577 3.45431 18.6254 3.50128C18.4257 3.27815 18.4844 3.03154 18.5314 2.78492C18.8367 1.49312 19.6118 0.612348 20.8449 0.130859C22.442 0.635836 23.3345 1.70451 23.5107 3.36036Z" fill="#DC636E"/>
<path d="M33.5165 3.26656C31.8723 3.26656 30.2282 3.25481 28.5959 3.25481C28.5372 1.89255 29.3357 1.05875 30.3574 0.354135C30.4983 0.260186 30.6862 0.224955 30.8154 0.119263C32.4008 0.577264 33.3755 1.7164 33.5165 3.26656Z" fill="#DC636E"/>
<path d="M20.8565 0.130961C20.8213 0.377577 20.5982 0.401064 20.4455 0.48327C19.2594 1.14091 18.6605 2.13912 18.637 3.50138C17.8972 3.65405 17.1573 3.60708 16.4175 3.61882C16.3705 1.17614 18.7779 -0.491452 20.8565 0.130961Z" fill="#D94A54"/>
<path d="M40.8914 0.130925C40.8562 0.401029 40.5978 0.412772 40.4217 0.518465C39.3413 1.17611 38.7071 2.10386 38.6719 3.39566C37.932 3.38391 37.1922 3.37217 36.4641 3.36042C36.7224 1.02344 38.6014 -0.33882 40.8914 0.130925Z" fill="#D94A54"/>
<path d="M30.8152 0.119201C30.7917 0.365818 30.5568 0.377561 30.4041 0.483254C29.4999 1.08218 28.8305 1.85726 28.6896 2.98465C28.6778 3.0786 28.6191 3.1608 28.5839 3.25475C27.8793 3.25475 27.1629 3.2665 26.4583 3.2665C26.6344 1.09392 28.6543 -0.362288 30.8152 0.119201Z" fill="#D94A54"/>
<path d="M24.004 49.3016C24.0744 49.3134 24.1566 49.3251 24.3915 49.3486C23.8865 49.513 23.5225 49.607 23.1702 49.7479C21.5026 50.3821 20.1873 51.439 19.2478 52.9657C19.1538 53.1183 19.0834 53.3297 18.8837 53.4119C18.5667 53.3062 18.5784 52.9891 18.461 52.7543C18.3083 52.4489 18.1439 52.1319 17.7563 52.1319C17.3688 52.1319 17.1809 52.4372 17.0517 52.7543C16.4293 54.2692 15.8774 55.8076 15.2902 57.3343C15.1727 57.6514 15.161 57.9802 15.5485 58.1211C15.9361 58.262 16.1592 58.0154 16.3354 57.6983C16.7346 56.9585 17.2396 56.8176 18.0499 57.1816C17.9325 57.9332 17.9207 58.6848 17.9325 59.4481C17.9442 59.8827 17.6389 59.8709 17.3336 59.8709C15.3489 59.8709 13.3642 59.8709 11.3795 59.8709C11.403 58.2385 11.3561 56.5944 11.7788 54.9973C12.6009 51.9322 15.3606 49.8066 18.5432 49.6539C20.3517 49.5483 22.1719 49.3251 24.004 49.3016Z" fill="#75CDF8"/>
<path d="M34.1974 48.6086C32.3419 48.6086 30.4864 48.6203 28.6309 48.5968C28.1612 48.5968 28.0907 48.7377 28.1612 49.184C28.3843 50.7811 29.2651 51.885 30.6626 52.6249C30.78 52.6836 30.9327 52.7306 30.8153 52.9185C28.2434 53.4235 26.2118 51.5797 25.836 49.689C25.7772 49.3719 25.7538 49.0431 25.7068 48.7143C25.695 47.9744 25.695 47.2346 25.6833 46.5065C25.8712 46.3773 26.0943 46.4125 26.3057 46.4125C28.7484 46.5065 31.2028 46.5182 33.6455 46.4008C34.0917 46.3773 34.2796 46.4947 34.2327 46.9762C34.1974 47.5164 34.2092 48.0566 34.1974 48.6086Z" fill="#365E7D"/>
<path d="M4.90894 24.0059C4.90894 25.3329 4.92068 26.6482 4.92068 27.9752C2.13744 27.9869 0.446359 26.3546 0.211487 23.4304C1.12749 23.6301 2.03175 23.8884 2.99473 23.9589C3.62888 23.9941 4.26304 23.9589 4.90894 24.0059Z" fill="#365E7D"/>
<path d="M18.0382 57.1698C17.8385 57.1698 17.6506 57.1815 17.451 57.1463C16.9108 57.0641 16.582 57.2403 16.4293 57.7922C16.3001 58.2737 15.9243 58.4616 15.4781 58.2972C15.0083 58.121 14.9613 57.7217 15.1375 57.2755C15.7364 55.7371 16.3236 54.1869 16.9108 52.6367C17.0634 52.2492 17.3101 51.9321 17.7446 51.9321C18.1791 51.9321 18.4257 52.2609 18.5784 52.6485C18.6723 52.9068 18.778 53.1535 18.872 53.4118C19.3417 54.6801 19.8232 55.9602 20.2929 57.2285C20.5396 57.9096 20.2342 58.3911 19.6118 58.3324C19.2595 58.2972 19.0716 58.0623 19.0129 57.7805C18.9072 57.205 18.5549 57.0758 18.0382 57.1698Z" fill="#F5F0F0"/>
<path d="M22.9705 55.1499C22.9705 55.9485 22.9705 56.747 22.9705 57.5456C22.9705 58.0036 22.8178 58.3089 22.3128 58.3324C21.7844 58.3559 21.573 58.0153 21.5612 57.5573C21.5495 55.9602 21.5495 54.3631 21.5612 52.7659C21.5612 52.3079 21.7961 51.9321 22.2776 51.9321C22.7943 51.9321 22.9822 52.2844 22.9705 52.8012C22.947 53.5997 22.9705 54.3748 22.9705 55.1499Z" fill="#F5F0F0"/>
<path d="M30.4044 38.0629C28.6311 38.0629 27.3041 38.0864 25.9771 38.0629C23.2878 38.0042 20.5985 37.9807 17.9209 37.8045C16.3943 37.6988 14.8441 37.8045 13.3527 37.3818C11.368 36.8181 10.1819 35.4675 9.73563 33.4946C9.47727 32.3203 9.46553 31.1107 9.35984 29.9128C9.20717 28.163 9.2424 26.4132 9.08973 24.6751C8.89009 22.3147 9.14845 19.9659 9.1602 17.6172C9.17194 15.7382 9.40681 13.871 9.60645 11.992C9.8883 9.3497 11.873 7.35329 14.6327 7.23585C17.0989 7.13016 19.5651 6.98923 22.0195 6.8718C23.4405 6.80134 24.8614 6.83657 26.2824 6.78959C27.3863 6.74262 28.502 6.88354 29.6059 6.6839C30.193 6.57821 30.7685 6.80134 31.3439 6.78959C32.8471 6.78959 34.3503 6.80134 35.8535 6.78959C37.251 6.77785 38.6485 6.90703 40.0577 6.94226C41.5256 6.97749 43.0053 7.07144 44.4733 7.16539C45.7534 7.23585 47.0217 7.34154 48.1373 8.15185C49.4878 9.12658 50.1924 10.4653 50.3569 12.086C50.5448 13.918 50.6739 15.75 50.8266 17.5937C50.8266 17.629 50.8266 17.6759 50.8266 17.7112C50.7796 19.1322 50.9323 20.5531 50.9323 21.9741C50.944 24.8278 50.7914 27.6933 50.5682 30.5352C50.4743 31.7213 50.4626 32.9427 50.075 34.0935C49.3587 36.2191 47.4092 37.5462 45.1662 37.6401C42.3477 37.7576 39.5292 37.8867 36.7225 38.0159C34.4677 38.0864 32.2129 37.9689 30.4044 38.0629Z" fill="#75CDF8"/>
<path d="M17.768 54.5042C17.862 54.7508 17.9677 54.9621 18.0264 55.1735C18.0734 55.3379 18.2848 55.5611 18.0616 55.6903C17.8972 55.7842 17.6506 55.7372 17.4392 55.7372C17.2513 55.7372 17.2983 55.5846 17.3335 55.4789C17.451 55.1618 17.5214 54.8212 17.768 54.5042Z" fill="#7DD0F7"/>
<path d="M14.6443 9.02089C17.8386 8.86822 21.0211 8.7273 24.2154 8.62161C27.7854 8.50417 31.3555 8.55114 34.9256 8.56289C37.1216 8.57463 39.3294 8.69207 41.5255 8.78602C42.8056 8.84473 44.0974 8.89171 45.3657 9.02089C46.9041 9.17356 48.3838 10.0543 48.6187 12.591C49.0297 16.9478 49.1823 21.3047 49.0532 25.6734C48.9827 28.1395 48.8183 30.6057 48.4777 33.0601C48.2546 34.6572 46.8689 35.7729 45.0486 35.8316C43.0287 35.8903 40.997 36.0312 38.9771 36.1135C34.9843 36.2661 30.9797 36.3601 26.9869 36.3013C24.3211 36.2661 21.6435 36.1604 18.9777 36.0665C17.6389 36.0195 16.3002 35.9256 14.9614 35.8316C14.8087 35.8199 14.6561 35.7611 14.5151 35.7259C13.8105 35.3149 13.6109 34.5868 13.4347 33.8704C13.2233 33.0249 13.1881 32.1441 13.1176 31.2751C13.0002 29.8658 12.8593 28.4566 12.8241 27.0356C12.8123 26.7773 12.7653 26.4719 13.0707 26.3193C13.6696 26.6598 14.3272 26.6716 14.9966 26.6598C15.7952 26.6363 16.5938 26.6716 17.3923 26.6481C17.956 26.6246 18.2848 26.3427 18.2731 25.92C18.2614 25.5207 17.956 25.2623 17.4041 25.2506C16.2767 25.2271 15.1376 25.2506 14.0102 25.2388C13.6696 25.2388 13.376 25.4267 13.0472 25.462C12.9532 25.4267 12.8475 25.3798 12.8241 25.2976C12.6596 24.546 12.5305 23.7944 12.9063 23.0663C13.6344 23.7591 14.5504 23.6182 15.4311 23.6182C16.0888 23.6182 16.7582 23.6417 17.4158 23.6065C17.9443 23.583 18.2614 23.3129 18.2731 22.9136C18.2731 22.4204 17.9443 22.2207 17.5215 22.1738C16.3237 22.0211 15.1141 22.0446 13.9045 22.162C13.5052 22.1972 13.2821 22.5496 12.9297 22.6552C12.6479 22.4673 12.7066 22.1738 12.7066 21.9154C12.6831 20.1421 12.8241 18.3688 12.9063 16.5955C12.9767 14.9984 13.1411 13.4013 13.2938 11.8159C13.3643 11.1113 13.5404 10.4301 13.8692 9.80771C14.0454 9.44366 14.2568 9.13833 14.6443 9.02089Z" fill="#D9EDF9"/>
<path d="M13.0002 23.0663C12.8827 23.8531 12.6714 24.6399 13.1176 25.4032C13.1998 25.7203 13.2116 26.0374 13.1176 26.3545C12.8827 26.8595 13.0002 27.3879 13.0237 27.8929C13.1059 29.2552 13.2351 30.6174 13.3642 31.9797C13.4817 33.3067 13.5991 34.6455 14.5386 35.7259C13.0237 35.7494 11.6731 34.4458 11.497 32.9544C11.2504 30.911 11.1212 28.8676 11.0038 26.8125C10.8628 24.5929 10.9216 22.3734 10.9216 20.1538C10.9333 17.8051 11.1095 15.4681 11.3561 13.1311C11.4265 12.4383 11.4383 11.7219 11.7084 11.076C12.2603 9.79595 13.3055 9.17354 14.656 9.02087C13.8927 9.76072 13.5874 10.712 13.4934 11.7337C13.2585 14.1998 13.0589 16.666 12.9884 19.1439C12.9532 20.1304 12.9415 21.1168 12.9062 22.1033C12.8945 22.2677 12.8593 22.4556 13.0119 22.5965C13.1411 22.7492 13.1411 22.9136 13.0002 23.0663Z" fill="#BFE2F7"/>
<path d="M29.9934 26.2489C27.1162 26.2489 24.6853 23.8649 24.7205 21.0934C24.7323 20.471 25.0141 20.1305 25.5543 20.107C26.1298 20.0835 26.4468 20.3888 26.5056 21.0465C26.623 22.5144 27.3041 23.6066 28.6664 24.1938C29.923 24.734 31.1091 24.5226 32.1777 23.6888C33.0115 23.0311 33.3873 22.1386 33.4813 21.1052C33.5517 20.4006 33.8453 20.0835 34.4443 20.1187C34.9962 20.1539 35.2663 20.4945 35.2663 21.1756C35.2663 23.9002 32.8354 26.2489 29.9934 26.2489Z" fill="#DC636E"/>
<path d="M20.845 18.8386C19.2478 19.4493 17.4158 18.9561 16.4411 17.6408C15.3842 16.2081 15.4312 14.3056 16.5938 12.8846C17.3454 11.9803 19.1891 11.0643 20.9507 11.9451C20.9859 12.1917 20.7628 12.2622 20.6219 12.3796C18.4728 14.0707 18.461 16.6543 20.5866 18.3454C20.7393 18.4628 21.0094 18.545 20.845 18.8386Z" fill="#75CDF8"/>
<path d="M41.9367 18.8386C40.3396 19.4493 38.5076 18.9561 37.5328 17.6408C36.4759 16.208 36.4994 14.2821 37.6973 12.8963C38.578 11.8629 40.3396 11.1113 42.0541 11.9568C42.0894 12.2152 41.8662 12.2857 41.7253 12.3914C39.5293 13.9533 39.6584 16.8657 41.6431 18.3219C41.8075 18.4158 42.0894 18.5215 41.9367 18.8386Z" fill="#75CDF8"/>
<path d="M41.9363 18.8386C41.9363 18.6155 41.7367 18.5567 41.6075 18.4628C39.2823 16.7952 39.4584 13.5892 41.8659 12.086C41.9246 12.0508 41.9833 11.992 42.042 11.9451C43.4747 12.6497 44.2733 13.8006 44.2616 15.4094C44.2616 17.0301 43.4278 18.1692 41.9363 18.8386Z" fill="#8FD7F8"/>
<path d="M20.8448 18.8386C20.8448 18.6155 20.6451 18.5567 20.516 18.4628C18.2729 16.8539 18.3199 13.8006 20.5982 12.2269C20.7274 12.1447 20.8448 12.039 20.9622 11.9451C22.3832 12.6614 23.2053 13.8006 23.1818 15.3977C23.1583 17.0183 22.348 18.1809 20.8448 18.8386Z" fill="#8FD7F8"/>
<path d="M13 23.0664C13 22.902 13 22.7493 13 22.5849C13.1762 22.0329 13.6694 21.9272 14.1274 21.9155C15.3253 21.9038 16.5349 21.7863 17.7445 21.9977C18.2259 22.0799 18.4608 22.397 18.4961 22.8315C18.543 23.3013 18.179 23.7475 17.6975 23.7475C16.3939 23.771 15.0904 23.7827 13.7869 23.7358C13.3993 23.7358 13.1057 23.4774 13 23.0664Z" fill="#90D7F8"/>
<path d="M44.2146 23.7708C43.6274 23.7708 43.0403 23.7825 42.4648 23.7708C41.8894 23.759 41.5253 23.4185 41.4901 22.89C41.4666 22.4672 41.8072 22.0797 42.3239 22.0092C43.6157 21.8448 44.9192 21.8213 46.211 22.0092C46.8335 22.1032 47.0683 22.4437 46.9861 23.0192C46.9039 23.5476 46.5281 23.759 46.0349 23.7708C45.4242 23.7825 44.8135 23.7708 44.2146 23.7708Z" fill="#90D7F8"/>
<path d="M13.1177 26.3544C12.9651 26.0374 12.9651 25.7203 13.1177 25.4032C13.2939 25.1331 13.564 25.0509 13.8693 25.0509C15.1142 25.0509 16.359 25.0509 17.6038 25.0509C18.0853 25.0509 18.4846 25.4267 18.5081 25.8495C18.5316 26.3427 18.1792 26.789 17.6743 26.789C16.3942 26.8124 15.1142 26.8007 13.8224 26.789C13.5053 26.8007 13.2704 26.6128 13.1177 26.3544Z" fill="#8FD7F8"/>
<path d="M44.2383 26.8124C43.6512 26.8124 43.064 26.8242 42.4885 26.8124C41.8779 26.8007 41.5021 26.4484 41.4903 25.8964C41.4903 25.4267 41.9131 25.0509 42.4768 25.0509C43.6629 25.0509 44.849 25.0391 46.0469 25.0509C46.6223 25.0509 46.9863 25.3914 46.9981 25.9199C46.9981 26.4366 46.634 26.8007 46.0586 26.8124C45.4479 26.8242 44.8373 26.8124 44.2383 26.8124Z" fill="#8FD7F8"/>
</svg>
