<svg width="79" height="60" viewBox="0 0 79 60" fill="none" xmlns="http://www.w3.org/2000/svg">
<path d="M49.833 24.3401C52.5921 23.9363 55.2742 24.2625 57.8791 25.2565C61.3472 26.5612 64.0447 28.8443 66.0023 31.9972C67.7903 34.8706 68.5764 38.0235 68.4223 41.4094C68.3914 42.0617 68.638 42.217 69.2238 42.1394C71.0735 41.8753 72.7844 42.3258 74.3412 43.2887C76.6533 44.7021 78.1639 46.7367 78.6109 49.4858C78.6263 49.579 78.7034 49.6567 78.7496 49.7499C78.7496 50.6352 78.7496 51.5049 78.7496 52.3902C78.3334 53.726 77.9481 55.0772 77.0849 56.2421C75.3739 58.5563 73.0927 59.9231 70.2719 59.9541C63.459 60.0473 56.6614 59.9697 49.8484 59.9697C49.571 59.6746 49.5864 59.3018 49.5864 58.9446C49.5864 47.7618 49.5864 36.5791 49.5864 25.3963C49.571 25.008 49.6018 24.6508 49.833 24.3401Z" fill="#A2D3FE"/>
<path d="M49.8335 24.3402C49.8335 36.2064 49.8335 48.0725 49.8335 59.9387C43.6217 59.9387 37.3944 60.0319 31.1826 59.9231C26.4197 59.8455 22.2888 56.4751 21.1789 51.8467C21.1481 51.7535 21.1019 51.6603 21.0556 51.5671C20.4699 50.8682 20.6086 49.9674 20.6086 49.2063C20.6395 46.4417 21.5335 43.9722 23.3831 41.8909C25.017 40.1203 26.99 38.9555 29.3638 38.505C31.2597 38.1478 33.1402 38.2565 34.959 38.8933C35.4985 39.0797 35.7143 39.0486 35.7914 38.3963C35.9918 36.6102 36.5467 34.9328 37.3174 33.3175C38.2114 31.5935 39.2903 30.0092 40.693 28.658C42.3885 27.0427 44.3461 25.8312 46.5195 25.0081C46.7353 24.9304 46.9511 24.8217 47.1823 24.9459C48.0917 24.744 48.9703 24.5421 49.8335 24.3402Z" fill="#BEE0FE"/>
<path d="M0.0311279 26.8097C0.0311279 21.1406 0.0311279 15.4716 0.0311279 9.787C0.277751 9.75594 0.323993 9.95785 0.370235 10.1287C0.878895 11.7129 2.00411 12.7535 3.34513 13.6388C6.22754 15.5337 9.46447 16.4501 12.7785 17.1335C15.6609 17.7237 18.5741 18.0809 21.5182 18.0809C21.7031 18.0809 21.8727 18.0964 22.0577 18.143C22.5663 18.3605 23.1829 18.0188 23.6299 18.5002C23.7994 18.8419 23.7686 19.1992 23.7686 19.5564C23.7686 24.3246 23.7686 29.0773 23.7686 33.8455C23.7686 34.1716 23.784 34.5133 23.6607 34.8395C23.3987 35.3365 22.9208 35.2433 22.5047 35.2278C19.314 35.1035 16.1233 34.8395 12.9788 34.2338C9.92689 33.628 6.96741 32.7427 4.20831 31.2672C3.36054 30.8168 2.58984 30.2887 1.86539 29.6675C0.971379 28.9064 0.262337 28.0211 0.0311279 26.8097Z" fill="#06CBAA"/>
<path d="M0.0308279 26.8096C0.50866 27.4619 0.755284 28.254 1.34101 28.8597C3.02113 30.5682 5.0866 31.5933 7.27539 32.4165C10.3428 33.5658 13.518 34.2337 16.7704 34.5754C19.0208 34.8239 21.2713 35.0413 23.5371 35.0258C23.5679 35.0569 23.5988 35.1034 23.645 35.1345C23.7991 35.4141 23.7837 35.7247 23.7837 36.0353C23.7837 37.6506 23.7837 39.2815 23.7837 40.8967C23.7837 41.285 23.7529 41.6733 23.5525 42.015C21.225 44.8107 20.3927 47.9947 21.0709 51.5825C15.2598 51.2719 9.55665 50.4953 4.31591 47.7306C2.57413 46.8143 1.01732 45.6649 0.231209 43.7235C0.107898 43.4129 0 43.1022 0 42.7605C0.015414 37.4332 0.015414 32.1214 0.0308279 26.8096Z" fill="#00BC9C"/>
<path d="M23.5217 35.0102C23.5217 29.481 23.5217 23.9672 23.5217 18.438C23.7375 18.1895 24.0304 18.2205 24.3078 18.2205C26.8666 18.1429 29.4099 17.972 31.9377 17.5837C35.93 16.9625 39.8143 16.0461 43.3441 13.9493C44.9163 13.0174 46.2881 11.8836 46.8739 10.0354C46.9201 9.89559 46.9818 9.74028 47.1821 9.77134C47.1976 14.8191 47.1976 19.8824 47.213 24.9302C44.5155 25.8932 42.1418 27.3376 40.1842 29.4654C39.1206 30.6303 38.3037 31.9505 37.5022 33.3017C37.2247 33.4881 36.9165 33.6279 36.5928 33.7056C33.4329 34.4666 30.2422 34.9947 26.9745 35.1034C26.1267 35.1345 25.2943 35.3053 24.4466 35.2587C24.1537 35.2277 23.7992 35.2587 23.5217 35.0102Z" fill="#00BC9C"/>
<path d="M47.1821 9.78695C46.5655 12.1322 44.8083 13.4369 42.8507 14.5086C39.9992 16.0617 36.901 16.916 33.7257 17.5062C30.35 18.143 26.9436 18.3759 23.5217 18.4381C23.013 18.3293 22.4581 18.5468 21.9648 18.2827C22.0419 18.174 22.1652 18.1119 22.2885 18.0808C23.275 17.8013 23.275 17.8013 23.275 16.7451C23.275 11.6041 23.275 6.46318 23.275 1.33775C23.275 0.887336 23.1825 0.405856 23.5217 0.00203404C29.641 -0.0445608 35.637 0.700957 41.3402 3.10836C43.3132 3.94706 45.1474 5.01874 46.4114 6.85147C47.0125 7.73678 47.2746 8.71527 47.1821 9.78695Z" fill="#81D8B5"/>
<path d="M23.5372 0.0176068C23.5372 5.70218 23.5372 11.3867 23.5372 17.0713C23.5372 18.4536 23.6605 18.2517 22.3657 18.2673C22.2424 18.2673 22.1037 18.2828 21.9804 18.2828C16.493 18.2207 11.1444 17.4285 6.04235 15.2852C3.97688 14.4465 2.01931 13.3748 0.724535 11.4023C0.385428 10.9053 0.262116 10.3306 0.0309068 9.78699C-0.169475 7.72129 0.955744 6.30791 2.43548 5.14304C4.79382 3.27924 7.58374 2.30075 10.4353 1.55524C14.443 0.514618 18.5431 0.0797333 22.6894 0.0020752C22.9669 0.0020752 23.2597 0.0176068 23.5372 0.0176068Z" fill="#94E7C7"/>
<path d="M23.5372 35.0259C28.0843 34.9793 32.5852 34.5444 36.9936 33.364C37.1632 33.3174 37.3481 33.3329 37.5177 33.3174C36.7624 35.1346 36.0842 36.9673 35.9763 38.9398C35.9455 39.53 35.6372 39.3436 35.2981 39.2194C32.3386 38.1322 29.4254 38.272 26.6046 39.6853C25.4486 40.26 24.4775 41.0987 23.5526 42.0151C23.5372 39.6853 23.5372 37.3556 23.5372 35.0259Z" fill="#11A791"/>
</svg>
