<svg width="53" height="60" viewBox="0 0 53 60" fill="none" xmlns="http://www.w3.org/2000/svg">
<path d="M39.8547 0C40.7108 0.799216 41.7289 1.39863 42.6776 2.08031C45.778 4.30166 48.9017 6.49951 52.0253 8.69736C52.3492 8.93242 52.4996 9.17924 52.4996 9.60235C52.488 15.714 52.4765 21.8257 52.4996 27.9373C52.5112 31.9569 51.308 35.6239 49.4685 39.1146C46.4606 44.8031 42.1801 49.3634 37.1823 53.2654C33.9083 55.8276 30.3798 57.9785 26.6777 59.8355C26.5389 59.906 26.4 59.9412 26.2612 60C26.1108 59.8119 26.0761 59.5769 26.0761 59.3418C26.0761 57.8022 26.0645 56.2742 26.0761 54.7346C26.0761 54.523 26.0993 54.3115 26.2034 54.1117C26.5851 53.6415 27.152 53.4652 27.6495 53.1832C30.9004 51.2909 33.9661 49.1283 36.7427 46.5896C40.144 43.4868 43.0825 39.9961 45.1302 35.8002C46.0557 33.8962 46.7614 31.9216 47.0506 29.8061C47.0853 29.5475 47.0969 29.3007 47.0969 29.0421C47.0969 23.5769 47.0853 18.0999 47.1085 12.6347C47.1085 12.0588 46.9234 11.6944 46.4606 11.3771C43.8229 9.54358 41.2314 7.66308 38.6053 5.81783C38.2235 5.5475 37.8302 5.42997 37.3674 5.42997C33.9199 5.44172 30.4839 5.44172 27.0363 5.42997C26.724 5.42997 26.3653 5.51224 26.1455 5.15965C25.972 4.48972 26.0761 3.79628 26.0645 3.11459C26.0414 2.33888 26.053 1.55142 26.0645 0.77571C26.0645 0.505387 26.053 0.22331 26.2496 0C30.7731 0 35.3081 0 39.8547 0Z" fill="#012453"/>
<path d="M26.3425 54.0999C26.2152 54.2644 26.2384 54.4642 26.2384 54.6523C26.2384 56.4388 26.2384 58.2135 26.2384 60C23.5081 58.7071 20.8935 57.1792 18.3946 55.475C13.3853 52.0784 8.9428 48.047 5.43741 43.0284C3.12362 39.7375 1.31886 36.1998 0.43962 32.2037C0.150396 30.8639 0.011569 29.5122 0.011569 28.1371C0.0231379 21.9432 0.0231379 15.7493 0 9.56709C0 9.15573 0.150396 8.94417 0.462758 8.72086C4.45405 5.9001 8.43377 3.06758 12.4135 0.246817C12.5176 0.164545 12.6217 0.0822723 12.7258 0C17.2262 0 21.7265 0 26.2268 0C26.2268 1.75122 26.2268 3.50245 26.2268 5.25367C26.2037 5.27718 26.1921 5.30069 26.169 5.32419C25.9029 5.47698 25.6021 5.42997 25.3244 5.42997C22.0389 5.42997 18.7417 5.44172 15.4561 5.41822C14.7504 5.41822 14.172 5.60627 13.5935 6.02938C11.0715 7.85113 8.52632 9.64936 5.98115 11.4358C5.5531 11.7414 5.37956 12.0588 5.37956 12.5877C5.39113 18.0176 5.36799 23.4476 5.4027 28.8893C5.41427 30.7463 5.98115 32.5093 6.67529 34.2135C7.95944 37.3751 9.81047 40.1606 12.0201 42.7228C15.8379 47.1538 20.3961 50.6445 25.4517 53.477C25.7178 53.6298 25.9839 53.7826 26.25 53.9471C26.2847 53.9824 26.3194 54.0411 26.3425 54.0999Z" fill="#00358E"/>
<path d="M26.3424 54.1C26.3076 54.0882 26.2729 54.0765 26.2382 54.0529C26.1341 53.9354 26.0763 53.7826 26.0763 53.6298C26.0763 52.4898 25.9953 51.338 26.1225 50.1979C26.2267 49.8688 26.5043 49.7278 26.7704 49.5632C30.218 47.4712 33.4341 45.0735 36.2569 42.1705C38.4319 39.9374 40.3292 37.481 41.7638 34.6837C42.9554 32.3566 43.7074 29.9237 43.6611 27.2322C43.5801 23.0128 43.6264 18.7934 43.6495 14.574C43.6495 13.9863 43.4991 13.5985 43.0016 13.2576C41.1622 11.9766 39.3343 10.6719 37.518 9.36734C37.0899 9.06176 36.6387 8.93248 36.1181 8.93248C33.0986 8.94423 30.0791 8.94423 27.0596 8.93248C26.7473 8.93248 26.3886 9.01475 26.1573 8.68566C25.9837 7.65138 26.0763 6.6171 26.0994 5.58282C26.0994 5.46529 26.1688 5.35951 26.2498 5.27724L26.2382 5.23022C29.9519 5.24198 33.6655 5.25373 37.3791 5.24198C37.8997 5.24198 38.3162 5.37126 38.7558 5.6886C41.463 7.63963 44.1933 9.56715 46.912 11.4829C47.1665 11.6592 47.3169 11.8355 47.3169 12.1881C47.2822 17.8531 47.4094 23.5182 47.2475 29.1832C47.178 31.4868 46.3451 33.6259 45.3617 35.671C43.2562 40.0314 40.2135 43.6514 36.6734 46.8482C33.5035 49.716 30.0213 52.0549 26.3424 54.1Z" fill="#C5E0EB"/>
<path d="M26.2266 50.0803C26.2266 51.4084 26.2266 52.7365 26.2266 54.0646C24.7342 53.3829 23.3691 52.4897 22.0039 51.5847C17.1218 48.3761 12.795 44.5445 9.45162 39.6669C7.67 37.0577 6.23545 34.2605 5.52974 31.1341C5.30993 30.1586 5.20581 29.1714 5.20581 28.1723C5.20581 22.8834 5.21738 17.5827 5.19424 12.2938C5.19424 11.9177 5.3215 11.7061 5.61073 11.4946C8.43355 9.52003 11.2217 7.53375 14.0329 5.5357C14.218 5.40642 14.3916 5.26538 14.6461 5.26538C18.5101 5.28889 22.3741 5.28889 26.2382 5.30064C26.2382 6.46421 26.2266 7.61602 26.2266 8.77958C26.2035 8.80309 26.1803 8.8266 26.1688 8.8501C25.9027 9.00289 25.6019 8.95588 25.3242 8.95588C22.3047 8.95588 19.2852 8.96763 16.2657 8.95588C15.7567 8.95588 15.3402 9.09692 14.9353 9.39075C13.119 10.6954 11.2911 12 9.45162 13.2811C9.02357 13.5749 8.85003 13.9157 8.85003 14.4446C8.8616 19.2282 8.83846 24.0117 8.87317 28.807C8.88474 30.5582 9.52103 32.1684 10.2383 33.7316C12.0431 37.6101 14.6692 40.8423 17.7813 43.6865C20.2455 45.9431 22.9063 47.9177 25.7754 49.6219C25.9374 49.7159 26.1109 49.8217 26.215 49.9862C26.215 50.0215 26.2266 50.045 26.2266 50.0803Z" fill="#EEF4F9"/>
<path d="M26.2267 8.77966C29.6048 8.77966 32.9945 8.79142 36.3726 8.79142C36.7544 8.79142 37.0668 8.88544 37.3791 9.10875C39.3806 10.5544 41.4051 11.9765 43.4181 13.3987C43.6611 13.575 43.7768 13.7395 43.7768 14.0568C43.7652 18.9579 43.8115 23.859 43.7421 28.7601C43.7189 30.6523 43.0132 32.4036 42.2034 34.096C40.5027 37.6337 38.0964 40.619 35.2967 43.3105C32.5433 45.955 29.4775 48.1411 26.2151 50.0804L26.2267 50.0333C26.03 49.81 26.03 49.528 26.03 49.2576C26.03 45.4378 26.03 41.6063 26.03 37.7865C26.03 37.5397 26.0184 37.2811 26.1688 37.0461C26.4465 36.811 26.782 36.8698 27.1059 36.8698C29.5817 36.8698 32.069 36.8698 34.5447 36.8698C35.4818 36.8698 35.4934 36.858 35.4934 35.9413C35.4934 31.6279 35.4934 27.3144 35.4934 22.9893C35.4934 22.9305 35.4934 22.8717 35.4934 22.813C35.4818 22.0608 35.4355 22.0137 34.7067 22.002C34.1861 21.9902 33.6655 22.0608 33.1565 21.9315C32.7515 21.7199 32.8557 21.3203 32.8672 20.9912C32.9135 19.7336 32.7168 18.5348 32.1268 17.43C31.0856 15.4672 29.4775 14.2919 27.3257 13.8688C26.9092 13.7865 26.4233 13.9041 26.0994 13.4927C25.9259 12.2704 26.0531 11.048 26.0184 9.8257C26.0068 9.48485 25.949 9.12051 26.2035 8.81492L26.2267 8.77966Z" fill="#0274F8"/>
<path d="M26.2386 8.81473C26.2386 10.4132 26.2386 11.9998 26.2386 13.5983C26.2154 13.6218 26.1923 13.6453 26.1807 13.6688C25.9031 13.8098 25.5907 13.8451 25.2899 13.8804C22.1316 14.2917 19.598 17.2183 19.5864 20.4504C19.5864 20.7677 19.598 21.0733 19.5749 21.3906C19.5633 21.6022 19.5517 21.8255 19.3088 21.9313C18.7997 22.0606 18.2791 21.99 17.7585 22.0018C17.0181 22.0253 16.9603 22.0606 16.9603 22.801C16.9487 24.9048 16.9603 27.0087 16.9603 29.1242C16.9603 31.3926 16.9603 33.6492 16.9603 35.9176C16.9603 36.7285 16.995 36.7638 17.8164 36.7638C20.2921 36.7638 22.7679 36.7638 25.2437 36.7638C25.5444 36.7638 25.8568 36.7285 26.1576 36.8578C26.227 36.8931 26.2617 36.9636 26.2617 37.0459C26.2617 41.3828 26.2617 45.7197 26.2617 50.0567C24.7115 49.2809 23.2885 48.2819 21.8887 47.2594C17.9436 44.4034 14.4614 41.0655 11.8005 36.9166C10.3428 34.6365 9.17438 32.2388 8.76946 29.5238C8.70005 29.0772 8.68848 28.6306 8.68848 28.184C8.68848 23.518 8.68848 18.852 8.67691 14.1742C8.67691 13.8098 8.76946 13.5748 9.08182 13.3632C11.1064 11.9528 13.1194 10.5072 15.1324 9.0733C15.3406 8.93226 15.5373 8.80298 15.815 8.80298C19.2741 8.80298 22.7563 8.80298 26.2386 8.81473Z" fill="#00B2FD"/>
<path d="M26.2499 37.0343C26.2499 37.0108 26.2384 36.9756 26.2268 36.9521C26.088 36.7758 26.0533 36.5642 26.0533 36.3527C26.0417 34.8365 26.0417 33.3203 26.0533 31.8042C26.0533 31.6044 26.0648 31.4163 26.169 31.24C26.4466 30.9462 26.8052 31.0167 27.1407 31.0285C27.6035 31.0402 27.8117 30.8757 27.7886 30.3938C27.7655 29.7356 27.7886 29.0657 27.777 28.4075C27.7655 27.8081 27.7192 27.7728 27.106 27.7493C26.7821 27.7376 26.4466 27.8081 26.1805 27.5495C26.0417 27.338 26.0417 27.1029 26.0417 26.8678C26.0301 25.434 26.0301 23.9883 26.0417 22.5544C26.0417 22.3076 26.0301 22.049 26.1921 21.8257C26.3772 21.6494 26.6086 21.6494 26.8284 21.6377C27.7423 21.6377 28.6447 21.6142 29.5587 21.6494C30.5073 21.6142 31.456 21.6377 32.4046 21.6377C32.636 21.6377 32.8558 21.6612 33.0525 21.814C33.8045 21.814 34.5564 21.8492 35.2969 21.814C35.6671 21.8022 35.7365 21.9315 35.7365 22.2724C35.7249 27.0206 35.7249 31.7572 35.7365 36.5055C35.7365 36.9168 35.6208 37.0343 35.2159 37.0343C32.4278 37.0226 29.6396 37.0226 26.8631 37.0226C26.6664 37.0108 26.4582 37.0226 26.2499 37.0343Z" fill="#FEB428"/>
<path d="M33.0643 21.8022C31.8958 21.8022 30.7274 21.8022 29.5705 21.814C29.316 21.4378 29.4432 21.0147 29.4316 20.6151C29.3738 19.0637 28.3442 17.7121 26.9906 17.4418C26.7129 17.383 26.4006 17.4653 26.1692 17.2302C26.1345 17.1714 26.1114 17.1009 26.0882 17.0422C26.0072 16.0902 26.0535 15.1381 26.0535 14.1861C26.0535 13.9981 26.0651 13.7983 26.227 13.6572V13.6102C29.7556 13.7865 32.2892 15.9726 32.9833 19.4751C33.1337 20.2273 33.0412 21.0147 33.0643 21.8022Z" fill="#FD8B01"/>
<path d="M26.2384 21.8257C26.2384 23.7297 26.2384 25.6455 26.2384 27.5495C26.2153 27.573 26.1921 27.5965 26.169 27.6201C25.8566 27.7728 25.5327 27.7141 25.2088 27.7258C24.8617 27.7258 24.6766 27.8551 24.6766 28.243C24.6766 28.9952 24.6766 29.7591 24.6766 30.5113C24.6766 30.8874 24.8617 31.0167 25.2088 31.0285C25.5327 31.0285 25.8566 30.9815 26.169 31.1343C26.1921 31.1578 26.2153 31.1813 26.2384 31.2048C26.2384 33.1205 26.2384 35.0363 26.2384 36.9638C23.2073 36.9756 20.1647 36.9756 17.1336 36.9873C16.8213 36.9873 16.7519 36.8816 16.7519 36.576C16.7634 31.7924 16.7634 27.0206 16.7519 22.2371C16.7519 21.908 16.8444 21.8022 17.1683 21.814C17.9203 21.8375 18.6607 21.814 19.4127 21.814C19.6094 21.6612 19.8292 21.6377 20.0606 21.6377C20.9977 21.6377 21.9232 21.6142 22.8603 21.6494C23.7626 21.6259 24.6535 21.6377 25.5558 21.6377C25.7641 21.6377 25.9723 21.6377 26.169 21.7552C26.1806 21.7787 26.2153 21.8022 26.2384 21.8257Z" fill="#FDE058"/>
<path d="M22.8834 21.8023C21.7265 21.8023 20.5581 21.8023 19.4012 21.8023C19.3896 20.4624 19.3665 19.1108 19.9565 17.8532C21.2175 15.1617 23.2999 13.7396 26.2384 13.6338C26.2268 14.8091 26.2268 15.9727 26.2153 17.148C26.0417 17.3243 25.8104 17.3478 25.579 17.3948C24.0172 17.7592 23.057 18.9815 23.0338 20.6152C23.0222 21.0148 23.1495 21.4379 22.8834 21.8023Z" fill="#FEB428"/>
<path d="M26.2386 17.242C28.159 17.2303 29.5704 18.6759 29.582 20.6387C29.582 21.0265 29.582 21.4144 29.5704 21.8022C28.4598 21.814 27.3492 21.8258 26.2386 21.8258V21.7905C26.065 21.626 26.065 21.4144 26.065 21.2028C26.0535 20.0745 26.0535 18.958 26.065 17.8297C26.0535 17.6181 26.065 17.3948 26.2386 17.242Z" fill="#0274F8"/>
<path d="M26.2381 27.5613C26.6777 27.5613 27.1173 27.573 27.557 27.5613C27.8346 27.5495 27.9734 27.6435 27.9734 27.9609C27.9619 28.9129 27.9619 29.8649 27.9734 30.8169C27.9734 31.1342 27.8346 31.2165 27.557 31.2047C27.1173 31.193 26.6777 31.2047 26.2381 31.2047C26.1224 31.0637 26.0761 30.8992 26.0646 30.7229C26.0414 29.8296 26.0414 28.9364 26.0646 28.0549C26.0646 27.8551 26.1108 27.6905 26.2381 27.5613Z" fill="#FD8B01"/>
<path d="M26.2386 17.2419C26.2386 18.7581 26.2386 20.2743 26.227 21.7904C25.1164 21.7904 23.9942 21.8022 22.8836 21.8022C22.872 21.1793 22.8142 20.5563 22.9298 19.9452C23.2306 18.335 24.5032 17.2654 26.2154 17.1597C26.2154 17.1832 26.227 17.2067 26.2386 17.2419Z" fill="#00B2FD"/>
<path d="M26.2385 27.5613C26.2385 28.7719 26.2385 29.9824 26.2385 31.193C25.7989 31.193 25.3593 31.1813 24.9197 31.193C24.642 31.2048 24.5032 31.1107 24.5032 30.7934C24.5147 29.8414 24.5147 28.8894 24.5032 27.9374C24.5032 27.6201 24.642 27.5378 24.9197 27.5495C25.3593 27.573 25.7989 27.5613 26.2385 27.5613Z" fill="#FEB428"/>
</svg>
