<svg width="60" height="60" viewBox="0 0 60 60" fill="none" xmlns="http://www.w3.org/2000/svg">
<path d="M49.6757 23.0039C50.2204 23.3407 50.7522 23.7034 51.3099 24.0272C51.699 24.2474 51.8417 24.4935 51.6601 24.9598C51.4007 25.6592 51.2191 26.3975 50.9857 27.1099C50.8949 27.4078 50.9338 27.6151 51.1802 27.8353C51.7509 28.3534 52.3086 28.8974 52.8274 29.4803C53.0738 29.7523 53.2814 29.8041 53.6056 29.7005C54.3449 29.4544 55.0972 29.2601 55.8235 29.014C56.1607 28.8974 56.3683 28.9492 56.5758 29.2601C57.1205 30.089 57.6134 30.9439 58.0674 31.8247C58.236 32.1485 58.1841 32.3558 57.9117 32.5889C57.3151 33.107 56.7444 33.6769 56.1478 34.208C55.9013 34.4282 55.8365 34.6095 55.9662 34.9333C56.2515 35.6587 56.4591 36.4099 56.5628 37.1741C56.6147 37.5239 56.7833 37.6793 57.1205 37.7441C57.8858 37.8995 58.6251 38.1067 59.3903 38.2492C59.7794 38.3269 59.9221 38.5083 59.948 38.8839C60.0129 39.8683 60.0259 40.8657 59.9351 41.8501C59.9091 42.1868 59.7794 42.3423 59.4422 42.407C58.664 42.5625 57.8858 42.7697 57.1076 42.9251C56.7703 42.9899 56.6017 43.1453 56.5499 43.508C56.4331 44.2722 56.2256 45.0235 55.9532 45.7488C55.8235 46.0726 55.9013 46.254 56.1348 46.4742C56.7444 47.0182 57.3281 47.601 57.9377 48.1451C58.1711 48.3523 58.1971 48.5336 58.0544 48.8056C57.6134 49.6864 57.1205 50.5413 56.5758 51.3832C56.3683 51.707 56.1737 51.8107 55.7846 51.6682C55.0583 51.4091 54.306 51.2148 53.5667 50.9817C53.2814 50.891 53.0609 50.891 52.8404 51.163C52.3345 51.7848 51.7768 52.3547 51.1543 52.8469C50.8819 53.0671 50.8689 53.2873 50.9727 53.5722C51.2191 54.3235 51.4396 55.0877 51.686 55.8519C51.7898 56.1628 51.725 56.357 51.4396 56.5513C50.6095 57.0953 49.7535 57.5875 48.8715 58.0409C48.5602 58.2093 48.3397 58.1963 48.0933 57.9114C47.5875 57.3285 47.0298 56.7845 46.5239 56.2016C46.2905 55.9296 46.0829 55.813 45.6938 55.9685C44.9934 56.2534 44.2671 56.4477 43.5148 56.5513C43.1257 56.6031 42.9831 56.7845 42.9182 57.1601C42.7755 57.9243 42.568 58.6626 42.4124 59.4268C42.3475 59.7506 42.2178 59.8931 41.8676 59.932C40.83 60.0227 39.8054 60.0227 38.7678 59.932C38.4565 59.9061 38.3268 59.7636 38.2619 59.4657C38.1063 58.6885 37.8987 57.9114 37.7431 57.1342C37.6783 56.8104 37.5486 56.6161 37.1854 56.5513C36.3942 56.4348 35.629 56.2275 34.8897 55.9296C34.5784 55.8001 34.4098 55.9037 34.2282 56.1239C33.6964 56.7068 33.1257 57.2767 32.6069 57.8725C32.3735 58.1316 32.1789 58.2093 31.8417 58.0409C30.9597 57.5875 30.1037 57.0953 29.2736 56.5643C28.9623 56.357 28.8975 56.1628 29.0142 55.826C29.2476 55.1136 29.4292 54.3753 29.6757 53.6758C29.8054 53.3002 29.7535 53.0671 29.4422 52.7821C28.8715 52.2899 28.3527 51.7459 27.8469 51.1889C27.6264 50.9428 27.4189 50.8781 27.1205 50.9817C26.4461 51.2019 25.7457 51.3573 25.0972 51.6293C24.5395 51.8495 24.2152 51.707 23.9688 51.2019C23.878 51.0076 23.7353 50.8392 23.6056 50.6708C22.996 50.1657 22.7107 49.4403 22.4124 48.7409C22.2827 48.443 22.5161 48.2098 22.7107 48.0155C23.2295 47.4845 23.7613 46.9534 24.293 46.4223C24.5784 46.1892 24.5524 45.9042 24.4487 45.6063C24.2412 45.0235 24.0725 44.4147 23.9558 43.8059C23.891 43.4173 23.6575 43.2101 23.2814 43.1194C22.6588 42.964 22.0362 42.8086 21.4007 42.679C20.843 42.5754 20.5317 42.2386 20.5058 41.6558C20.4798 40.8009 20.4798 39.9331 20.5058 39.0782C20.5187 38.5342 20.7911 38.1974 21.3358 38.0808C21.9195 37.9643 22.5032 37.7959 23.0998 37.6793C23.6316 37.5757 23.9299 37.3166 24.0077 36.7597C24.0725 36.2545 24.2412 35.7623 24.4098 35.2701C24.6821 34.7649 24.5524 34.4023 24.0855 34.0655C23.5537 33.6769 23.1257 33.1459 22.6458 32.6796C22.3475 32.3817 22.3086 32.0578 22.5032 31.6822C22.9312 30.8921 23.3722 30.102 23.865 29.3507C24.1504 28.9103 24.5265 28.7679 25.0323 28.9233C25.603 29.0917 26.1997 29.2342 26.7574 29.4544C27.2373 29.6486 27.6264 29.5839 27.9636 29.1823C28.3397 28.742 28.7418 28.3275 29.1828 27.9518C29.52 27.6669 29.6108 27.3172 29.4292 26.9156C29.2606 26.268 29.0401 25.6463 28.8715 24.9986C28.7548 24.5712 28.8715 24.2474 29.2347 23.9883C29.9999 23.4314 30.843 23.0039 31.686 22.5635C32.0492 22.3692 32.3864 22.434 32.6847 22.7319C33.1646 23.2241 33.6964 23.6775 34.1115 24.2215C34.3709 24.5582 34.6562 24.6489 35.0713 24.5323C35.6679 24.351 36.2645 24.1438 36.8741 24.0531C37.3151 23.9883 37.5486 23.7422 37.6393 23.3018C37.7561 22.6672 37.9506 22.0454 38.0674 21.4107C38.1711 20.8797 38.4954 20.6206 38.9882 20.5818C39.8832 20.517 40.7911 20.517 41.699 20.5818C42.2048 20.6206 42.5161 20.8797 42.6199 21.4107C42.7237 22.0066 42.9052 22.5765 43.022 23.1723C43.0868 23.4573 43.1128 23.7811 43.437 23.9365C44.2023 24.1697 44.9934 24.2862 45.7457 24.5582C46.044 24.6748 46.2904 24.5842 46.485 24.3251C46.8482 23.8458 47.3021 23.4314 47.7172 23.0039C48.5083 22.2138 48.9104 22.2138 49.6757 23.0039Z" fill="#F72F45"/>
<path d="M43.4759 24.0402C43.1257 24.1049 43.035 23.8718 42.9831 23.5998C42.8145 22.8226 42.6069 22.0584 42.4643 21.2812C42.3994 20.9315 42.2567 20.7631 41.8936 20.7372C40.8819 20.6595 39.8702 20.6595 38.8715 20.7372C38.5084 20.7631 38.3657 20.9445 38.3008 21.2942C38.1582 22.0713 37.9506 22.8356 37.782 23.6127C37.7172 23.8977 37.5875 24.0531 37.2892 24.1049C36.4591 24.2474 35.6549 24.4546 34.8767 24.7655C34.5784 24.8821 34.4357 24.7266 34.2801 24.5453C33.7353 23.9624 33.1776 23.3925 32.6588 22.7967C32.4254 22.5376 32.2308 22.4599 31.8936 22.6283C30.9986 23.0946 30.1167 23.5868 29.2866 24.1567C29.0272 24.3381 28.9753 24.5194 29.0531 24.8044C29.2606 25.5038 29.4552 26.2032 29.6627 26.9027C28.9753 27.2395 28.2619 27.097 27.5615 26.9934C27.3281 26.8768 27.2503 26.6566 27.1724 26.4234C26.939 25.711 26.7444 24.9727 26.511 24.2603C26.3553 23.7941 26.472 23.4314 26.8612 23.1205C28.5602 21.8123 30.402 20.7502 32.3735 19.9212C32.8145 19.7399 33.1257 19.9212 33.3981 20.2321C33.8391 20.7631 34.306 21.2683 34.8119 21.7475C35.4344 22.3304 35.7457 22.2527 35.9662 21.4367C36.1348 20.8149 36.2775 20.1803 36.4072 19.5456C36.5239 18.9757 36.8352 18.6907 37.4059 18.613C39.0531 18.3928 40.7133 18.3539 42.3735 18.5094C43.3203 18.6 43.3592 18.6 43.3592 17.6286C43.3592 15.8411 43.3722 14.0536 43.3462 12.2662C43.3203 9.94765 43.3462 7.61617 43.3333 5.29764C43.3333 4.40391 43.2944 4.36505 42.3735 4.36505C30.7263 4.36505 19.0661 4.36505 7.41887 4.36505C6.52393 4.36505 6.49799 4.40391 6.48502 5.32355C6.47205 7.69388 6.51096 10.0513 6.47205 12.4216C6.51096 17.0198 6.48502 21.631 6.48502 26.2292C6.48502 26.4623 6.47205 26.7084 6.32937 26.9027C6.12185 27.084 5.84948 27.097 5.59007 27.097C3.99474 27.1099 2.39941 27.1099 0.817052 27.097C0.557648 27.097 0.298245 27.097 0.0907222 26.9027C0.0907222 19.2606 0.0647818 11.6185 0.0907222 3.97647C0.0129011 1.80042 1.91952 0 4.11147 0C10.1945 0 16.2645 0 22.3475 0C30.0648 0 37.782 0 45.4993 0C47.8339 0 49.6886 1.82633 49.6757 4.14485C49.6757 9.66269 49.6627 15.1676 49.6627 20.6854C49.2606 20.8667 48.9623 20.5688 48.6381 20.4393C48.1971 20.258 47.8728 20.2968 47.5356 20.6595C47.0557 21.1906 46.5239 21.6569 46.057 22.1879C45.5123 22.8096 44.7989 22.6672 44.5265 21.8771C44.319 21.2683 44.2152 20.6206 44.0726 19.9989C44.0077 19.7399 43.9818 19.4549 43.7872 19.2088C43.5538 19.429 43.6445 19.6751 43.6445 19.8953C43.6316 21.0092 43.6445 22.1361 43.6316 23.25C43.6445 23.522 43.6964 23.82 43.4759 24.0402Z" fill="#D4DADA"/>
<path d="M0.0129702 26.8898C2.07523 26.8768 4.15045 26.8639 6.21271 26.8509C6.42023 26.6696 6.69261 26.6696 6.95201 26.6696C12.153 26.6696 17.3671 26.6566 22.5681 26.6696C22.7237 26.6696 22.8664 26.6825 23.0091 26.7214C23.5279 26.9157 23.2685 27.2136 23.0999 27.4726C22.4903 28.3405 21.9326 29.2213 21.4267 30.1409C21.0636 30.8015 20.7912 31.5009 20.441 32.1615C20.2594 32.5112 20.3243 32.8091 20.6096 33.0811C21.1543 33.6252 21.8158 34.0526 22.3087 34.6614C22.4643 34.8557 22.7886 35.0888 22.2957 35.2961C20.5318 35.4126 18.7808 35.3479 17.0169 35.3349C16.8483 35.3349 16.6796 35.2961 16.5499 35.1536C12.5032 35.1536 8.45655 35.1536 4.40986 35.1406C1.75097 35.1406 0 33.392 0 30.7497C0 29.4674 0.0129702 28.185 0.0129702 26.8898Z" fill="#4BBDE4"/>
<path d="M16.5501 35.1665C18.5345 35.1665 20.5319 35.1535 22.5163 35.1535C23.2167 34.8686 23.9171 34.8297 24.6045 35.1795C24.4359 35.8918 24.2284 36.5913 24.1117 37.3037C24.0598 37.6275 23.8393 37.6534 23.6318 37.7182C22.8665 37.9125 22.0883 38.1068 21.3101 38.2492C20.9469 38.314 20.7783 38.4694 20.7654 38.8321C20.7135 39.8424 20.7135 40.8527 20.7654 41.863C20.7783 42.1868 20.921 42.3423 21.2712 42.42C22.0753 42.5754 22.8665 42.7827 23.6577 42.964C23.9301 43.0288 24.0857 43.1324 24.1376 43.4562C24.2543 44.1945 24.4229 44.9328 24.7213 45.6193C24.9028 46.0597 24.851 46.3576 24.41 46.5519C23.4242 46.9275 22.3866 46.6944 21.375 46.7462C18.755 46.7721 16.122 46.7591 13.5021 46.7591C13.1519 46.7591 12.7628 46.8368 12.4644 46.5519C13.8004 42.7309 15.1752 38.9487 16.5501 35.1665Z" fill="#3778A8"/>
<path d="M12.4255 46.5132C15.3957 46.5132 18.3658 46.5132 21.349 46.5261C21.3619 47.0054 20.9469 47.1997 20.6745 47.4717C20.3114 47.8214 20.2724 48.1323 20.467 48.5986C20.7523 49.2851 21.2322 49.8809 21.336 50.6321C17.5876 50.6451 13.8522 50.6839 10.1038 50.6321C8.15831 50.6062 6.45921 48.9612 6.21278 47.0442C6.14793 46.5909 6.32951 46.5132 6.74456 46.5132C8.6382 46.5261 10.5318 46.5261 12.4255 46.5132Z" fill="#4BBDE4"/>
<path d="M43.4759 24.0401C43.4759 22.4858 43.4759 20.9444 43.4759 19.3901C43.4759 19.1958 43.3851 18.9108 43.7094 18.8849C43.9947 18.859 44.0596 19.0922 44.0985 19.2994C44.293 20.1154 44.4616 20.9314 44.6562 21.7345C44.734 22.0842 44.8767 22.3303 45.3177 22.3951C45.7068 22.4598 45.7846 22.2137 45.9662 22.0195C46.5369 21.4107 47.1465 20.8149 47.7171 20.219C47.9117 20.0118 48.1063 20.0118 48.3527 20.1284C48.7807 20.3356 49.2217 20.491 49.6627 20.6724C49.6627 21.4495 49.6627 22.2137 49.6756 22.9909C48.4305 22.4599 48.3527 22.408 47.4577 23.522C46.6406 24.5452 45.8235 25.0374 44.5654 24.338C44.2541 24.1696 43.8391 24.1437 43.4759 24.0401Z" fill="#B8B9B9"/>
<path d="M21.3359 50.632C20.843 49.9326 20.5836 49.1036 20.1815 48.3653C19.9999 48.0415 20.0777 47.8213 20.3372 47.5881C20.6873 47.2513 21.0116 46.8757 21.3488 46.526C22.3605 46.526 23.3722 46.526 24.3838 46.539C23.8521 47.0571 23.3203 47.6011 22.7626 48.1062C22.5032 48.3394 22.4772 48.5337 22.6458 48.8316C22.9831 49.4274 23.3073 50.0362 23.6316 50.632C22.8663 50.6968 22.1011 50.6709 21.3359 50.632Z" fill="#4197CD"/>
<path d="M40.376 32.0448C44.9934 32.0319 48.7028 35.8141 48.651 40.4511C48.5991 44.7644 45.0323 48.6631 40.2333 48.5854C35.8754 48.5206 31.9843 44.9586 32.0881 40.1143C32.1788 35.7104 35.7716 32.0707 40.376 32.0448Z" fill="#D12435"/>
<path d="M24.5912 35.1665C23.8908 35.1535 23.2034 35.1535 22.503 35.1406C21.9712 34.3893 21.2319 33.8583 20.5445 33.2884C20.0257 32.848 20.1035 32.4594 20.3499 31.9542C21.1411 30.2833 21.9842 28.6513 23.1255 27.1876C23.1904 27.1099 23.2293 27.0063 23.2812 26.9027C23.3071 26.8768 23.3331 26.8509 23.346 26.825C23.787 26.6177 24.2669 26.7473 24.7209 26.7214C24.8246 26.7214 24.9154 26.7473 25.0192 26.7602C25.3823 26.8768 25.7455 26.9934 26.1087 27.1099C26.5756 27.2783 26.9777 27.2524 27.3279 26.8897C27.3538 26.8768 27.3927 26.8768 27.4187 26.8768C28.145 26.8768 28.8843 26.8897 29.6106 26.8897C29.8571 27.3042 29.8052 27.6021 29.4031 27.9389C28.8584 28.3922 28.3655 28.9104 27.8986 29.4414C27.6392 29.7264 27.4187 29.7911 27.0555 29.6616C26.3421 29.4155 25.6158 29.2342 24.9025 28.9881C24.5393 28.8715 24.3058 28.9363 24.0983 29.273C23.5795 30.089 23.0996 30.931 22.6456 31.7858C22.4511 32.1485 22.5289 32.3558 22.8143 32.6019C23.346 33.0682 23.8389 33.5863 24.3836 34.0396C24.8246 34.3893 24.9543 34.7261 24.5912 35.1665Z" fill="#4197CD"/>
<path d="M39.8443 29.0528C39.8703 29.9724 39.8703 29.9724 38.9235 30.1019C38.0285 30.2185 38.0285 30.2185 37.821 29.3636C37.5356 28.172 37.5356 28.172 38.7548 28.0295C39.8054 27.9129 39.8054 27.9129 39.8443 29.0528Z" fill="#D5D8D8"/>
<path d="M42.7107 29.9077C42.7496 29.7782 42.7755 29.6616 42.8144 29.5321C42.9441 29.1047 42.8533 28.3793 43.2035 28.3146C43.8131 28.2109 44.4357 28.5736 45.0323 28.8197C45.188 28.8845 45.175 29.014 45.1101 29.1435C45.0583 29.2601 45.0064 29.3767 44.9545 29.4932C44.3708 30.8792 44.3708 30.8792 42.9701 30.3093C42.7625 30.2315 42.6328 30.1409 42.7107 29.9077Z" fill="#D4D9D9"/>
<path d="M50.5966 37.472C50.415 37.5238 50.3112 37.4202 50.2593 37.2647C50.1167 36.8632 49.974 36.4487 49.8054 36.0601C49.7016 35.8399 49.7924 35.7493 49.974 35.6715C50.5058 35.4513 51.0894 34.8426 51.5174 35.0498C51.9844 35.27 52.0362 36.0731 52.2438 36.643C52.3086 36.8243 52.3086 36.9927 52.0881 37.0575C51.5823 37.187 51.0894 37.3295 50.5966 37.472Z" fill="#D4D9D9"/>
<path d="M51.7901 40.3216C52.8796 40.2957 52.8796 40.2957 52.7499 41.3837C52.6202 42.5754 52.6202 42.5754 51.4399 42.3293C50.5709 42.1609 50.5709 42.1609 50.6747 41.2542C50.6876 41.1506 50.7006 41.034 50.6876 40.9304C50.6228 40.4252 50.8303 40.2309 51.3232 40.3087C51.4918 40.3346 51.6474 40.3216 51.7901 40.3216Z" fill="#D4DADA"/>
<path d="M40.8823 51.5905C40.8694 50.6838 40.8694 50.6838 41.7513 50.5543C42.6722 50.4247 42.6722 50.4247 42.8927 51.3185C43.1651 52.4713 43.1651 52.4713 41.9459 52.6267C40.9083 52.7433 40.9083 52.7433 40.8823 51.5905Z" fill="#D5D8D9"/>
<path d="M51.4917 45.8006C51.5047 45.9301 50.5967 47.4456 50.467 47.4974C50.4152 47.5233 50.3244 47.5363 50.2984 47.5104C49.8315 47.1736 49.3646 46.8368 48.8977 46.4871C48.755 46.3835 48.8458 46.2669 48.9106 46.1503C49.1311 45.7876 49.3516 45.412 49.5721 45.0493C49.6499 44.9069 49.7277 44.8032 49.9223 44.8939C50.4022 45.14 50.8821 45.3602 51.362 45.5934C51.4398 45.6452 51.4917 45.7099 51.4917 45.8006Z" fill="#D4D9D9"/>
<path d="M48.1455 30.6072C48.5475 30.9958 48.9107 31.3714 49.3128 31.6952C49.7149 32.019 49.637 32.2133 49.2739 32.5242C48.0936 33.5604 48.1066 33.5733 47.043 32.4206C46.9392 32.304 46.7966 32.2263 46.9392 32.0449C47.2765 31.6304 47.6137 31.203 47.9509 30.7885C47.9898 30.7238 48.0547 30.6849 48.1455 30.6072Z" fill="#D4D9D9"/>
<path d="M33.9557 32.1743C33.8001 32.1872 33.7352 32.0577 33.6574 31.967C32.4771 30.6847 32.5161 30.4775 34.0595 29.6226C34.3319 29.4672 34.5264 29.4283 34.6432 29.778C34.6821 29.8816 34.7469 29.9594 34.7988 30.063C34.9934 30.4386 35.4473 30.9956 35.3306 31.164C35.0452 31.5784 34.5005 31.8116 34.0725 32.1095C34.0336 32.1354 33.9947 32.1484 33.9557 32.1743Z" fill="#D4D9D9"/>
<path d="M33.9169 48.4172C33.7354 48.6503 33.5797 48.8446 33.4111 49.0518C32.594 50.0881 32.594 50.0881 31.6861 49.1814C30.9987 48.5078 30.9987 48.5078 31.712 47.8861C32.5162 47.1737 32.5162 47.1737 33.3073 47.8861C33.5019 48.0674 33.6964 48.2358 33.9169 48.4172Z" fill="#D4D9D9"/>
<path d="M37.2632 52.3546C36.7833 52.1863 36.2904 52.0179 35.8105 51.8624C35.5641 51.7847 35.5252 51.6293 35.6289 51.4221C35.6678 51.3443 35.6938 51.2666 35.7327 51.1889C36.3163 49.7641 36.3163 49.7641 37.7431 50.3211C37.9376 50.3988 38.0932 50.4636 38.0154 50.7226C37.8987 51.15 37.7949 51.5904 37.7041 52.0308C37.6523 52.2769 37.5615 52.4324 37.2632 52.3546Z" fill="#D4D9D9"/>
<path d="M30.428 33.1199C30.8949 33.4825 31.4267 33.8452 31.8807 34.2856C31.9974 34.3892 31.6861 34.6742 31.5694 34.8685C30.9728 35.8399 30.9598 35.8399 29.9481 35.3348C29.144 34.9462 29.131 34.9332 29.5849 34.169C29.7406 33.897 29.9222 33.625 30.0908 33.353C30.1686 33.2624 30.2075 33.1199 30.428 33.1199Z" fill="#D4D9D9"/>
<path d="M29.0144 40.3216C27.8471 40.3346 27.8471 40.3346 27.9898 39.1818C28.1324 38.1067 28.1324 38.1067 29.196 38.314C29.4035 38.3528 29.624 38.3787 29.8315 38.4305C29.9612 38.4694 30.1558 38.4694 30.1428 38.6766C30.1039 39.1688 30.065 39.661 30.0131 40.1403C30.0001 40.3216 29.8445 40.3087 29.7278 40.3087C29.4813 40.3216 29.2479 40.3216 29.0144 40.3216Z" fill="#D4D9D9"/>
<path d="M30.9858 44.7515C30.7913 45.1012 30.3373 45.166 29.9742 45.3344C29.7148 45.4639 29.3775 45.8525 29.1441 45.5287C28.7809 45.0365 28.5734 44.4147 28.4826 43.8059C28.4307 43.4433 28.8717 43.4951 29.0663 43.4692C29.5202 43.4174 30.0261 42.8863 30.4152 43.3137C30.7264 43.6635 30.7913 44.2204 30.9858 44.7515Z" fill="#D4D9D9"/>
<path d="M48.0674 49.9455C48.0026 50.0361 47.9636 50.1139 47.9118 50.1786C47.8339 50.2563 47.7432 50.3211 47.6653 50.3859C46.3035 51.3962 45.9922 51.2925 45.4215 49.6864C45.3826 49.5698 45.2788 49.4533 45.4604 49.3626C45.9533 49.1165 46.4461 48.4171 46.8482 48.5854C47.3411 48.7538 47.6653 49.4533 48.0674 49.9455Z" fill="#D4D9D9"/>
<path d="M25.1105 26.9156C25.0197 26.9027 24.9289 26.8897 24.8381 26.8638C24.3193 26.799 23.8005 26.5141 23.2817 26.8768C23.2817 26.8768 23.2946 26.9156 23.2817 26.9156C19.2479 26.9027 15.2012 26.9027 11.1675 26.8897C9.50734 26.8897 7.86013 26.8768 6.19995 26.8768C6.19995 22.0584 6.19995 17.24 6.19995 12.4086C6.44638 12.1884 6.75767 12.2143 7.05598 12.2143C12.0884 12.2143 17.1208 12.2143 22.1533 12.2143C22.3867 12.2143 22.6332 12.2143 22.8536 12.292C23.2168 12.5381 22.9315 12.6288 22.7369 12.6936C22.283 12.8361 21.842 12.9915 21.4269 13.2246C19.7538 14.1443 18.8848 15.595 18.807 17.4731C18.7421 19.2735 18.781 21.0869 18.794 22.9003C18.794 23.5868 18.8588 23.6256 19.676 23.6256C20.4412 23.6256 20.4931 23.5868 20.4931 22.9003C20.506 21.2164 20.4931 19.5455 20.4931 17.8617C20.506 15.6986 21.8939 14.3127 24.0599 14.3127C27.938 14.3127 31.816 14.3127 35.6941 14.3127C36.0443 14.3127 36.5501 14.1572 36.6928 14.5458C36.8225 14.9085 36.3556 15.1416 36.1221 15.4007C35.8108 15.7375 35.4996 16.0613 35.1623 16.3592C34.8121 16.683 34.8251 16.968 35.1753 17.2788C35.292 17.3824 35.3958 17.4861 35.4996 17.6026C35.8109 17.9653 36.0962 17.9135 36.4204 17.5897C37.6267 16.3592 38.8459 15.1416 40.078 13.937C40.4023 13.6262 40.4671 13.3542 40.1169 13.0174C39.9483 12.849 39.6111 12.6547 39.9224 12.3309C41.1027 12.2014 42.283 12.0589 43.4503 12.4216C43.4503 14.3386 43.4373 16.2556 43.4633 18.1726C43.4762 18.6777 43.2946 18.8461 42.8277 18.7684C41.6993 18.5741 40.5579 18.6518 39.4166 18.6389C38.6254 18.6259 37.8342 18.7554 37.056 18.872C36.7447 18.9238 36.628 19.0533 36.5761 19.3642C36.4075 20.1802 36.2 20.9833 35.9924 21.7993C35.8108 22.4728 35.3439 22.5894 34.8251 22.0972C34.2025 21.5014 33.6059 20.8926 33.0612 20.2191C32.8796 19.9859 32.698 19.9471 32.3997 20.0766C30.4412 20.9315 28.5994 21.9806 26.9003 23.2759C26.5501 23.5479 26.4594 23.7681 26.602 24.1956C26.9003 25.0893 27.1338 25.996 27.4062 26.9027L27.4191 26.9415C26.6539 27.2653 25.8887 27.0063 25.1105 26.9156Z" fill="#ECFBFB"/>
<path d="M23.0223 12.4216C18.1325 12.4086 13.2428 12.4086 8.34003 12.3957C7.62667 12.3957 6.91331 12.3827 6.21292 12.3827C6.21292 9.81807 6.22589 7.25344 6.19995 4.70177C6.19995 4.26138 6.30371 4.1189 6.77064 4.1189C18.8199 4.13185 30.8692 4.13185 42.9185 4.1189C43.3854 4.1189 43.4892 4.26138 43.4892 4.70177C43.4633 7.26639 43.4762 9.83102 43.4762 12.3827C42.27 12.3957 41.0508 12.4086 39.8446 12.4086C39.4944 12.4216 39.3128 12.1496 39.1053 11.9423C38.2233 11.0874 37.3673 10.2067 36.4983 9.33882C35.9924 8.84662 35.8498 8.84662 35.3828 9.29996C34.8121 9.85693 34.7862 10.0642 35.2791 10.5823C35.7071 11.0356 36.187 11.4372 36.5891 11.9294C36.9003 12.305 36.8225 12.4734 36.3297 12.5511C36.161 12.577 35.9795 12.564 35.8109 12.564C31.842 12.564 27.8731 12.564 23.9172 12.564C23.5929 12.577 23.2817 12.6418 23.0223 12.4216Z" fill="#FCA12E"/>
<path d="M46.5758 40.3087C46.5887 43.6764 43.7353 46.526 40.363 46.526C37.0167 46.526 34.2022 43.7282 34.1633 40.3735C34.1244 37.0187 36.9649 34.1562 40.3501 34.1303C43.7093 34.0914 46.5628 36.9281 46.5758 40.3087Z" fill="#FEFEFE"/>
<path d="M25.1102 26.9155C25.8884 26.9155 26.6666 26.9155 27.4318 26.9155C27.1465 27.3818 26.7963 27.5761 26.2256 27.3041C25.8754 27.1357 25.4604 27.0969 25.1102 26.9155Z" fill="#50BDE3"/>
<path d="M23.2814 26.8639C23.8002 26.1126 24.319 26.7214 24.8378 26.8509C24.319 26.8639 23.8002 26.8639 23.2814 26.8639Z" fill="#D5DCDC"/>
<path d="M23.0219 12.4216C27.5615 12.4216 32.101 12.4216 36.8481 12.4216C36.1218 11.6963 35.5252 11.0616 34.8896 10.4787C34.5005 10.129 34.5394 9.92177 34.8896 9.57204C35.9143 8.56174 35.9013 8.54878 36.9259 9.57204C37.8857 10.5305 38.8585 11.4761 39.8183 12.4216C39.8313 12.4475 39.8313 12.4605 39.8442 12.4864C40.1296 12.7973 40.6613 13.1211 40.6484 13.4319C40.6484 13.8594 40.0777 14.1314 39.7534 14.4682C38.5991 15.6339 37.4318 16.7737 36.2904 17.9524C36.0051 18.2503 35.8364 18.2762 35.5381 17.9654C34.4486 16.8644 34.4227 16.8773 35.5122 15.8023C35.9143 15.4137 36.3163 15.0251 36.7184 14.6495C36.5887 14.3904 36.3942 14.4941 36.2385 14.4941C32.127 14.4811 28.0154 14.4811 23.8909 14.4941C22.0102 14.4941 20.6873 15.8282 20.6873 17.7063C20.6743 19.5586 20.6743 21.4108 20.7003 23.263C20.7003 23.6645 20.6224 23.807 20.1815 23.807C18.625 23.807 18.625 23.82 18.625 22.2398C18.625 20.7372 18.625 19.2218 18.625 17.7193C18.638 15.0899 20.2593 13.0952 22.8403 12.5253C22.9182 12.4993 22.97 12.4605 23.0219 12.4216Z" fill="#2D366D"/>
<path d="M10.3499 9.30011C9.31229 9.30011 9.31229 9.30011 9.31229 8.05665C9.31229 7.22768 9.31229 7.22768 10.5704 7.24063C11.3745 7.24063 11.3745 7.24063 11.3745 8.52295C11.3875 9.30011 11.3875 9.30011 10.3499 9.30011Z" fill="#2D366D"/>
<path d="M14.4747 7.24048C15.5252 7.24048 15.5252 7.24048 15.5252 8.47098C15.5252 9.31291 15.5252 9.31291 14.2153 9.31291C13.45 9.31291 13.45 9.31291 13.45 7.99173C13.463 7.24048 13.463 7.24048 14.4747 7.24048Z" fill="#2D366D"/>
<path d="M18.6119 7.24048C19.6625 7.24048 19.6625 7.24048 19.6625 8.47098C19.6625 9.31291 19.6625 9.31291 18.3525 9.31291C17.5873 9.31291 17.5873 9.31291 17.5873 7.99173C17.6003 7.24048 17.6002 7.24048 18.6119 7.24048Z" fill="#2D366D"/>
</svg>
