<svg width="68" height="60" viewBox="0 0 68 60" fill="none" xmlns="http://www.w3.org/2000/svg">
<path d="M67.4867 23.0587C65.8223 23.0721 64.1447 23.1122 62.4803 23.0721C61.9123 23.0587 61.8067 23.2458 61.8067 23.7805C61.8199 30.9587 61.8067 38.1369 61.8331 45.3151C61.8331 45.8498 61.767 46.0904 61.1462 46.077C58.5571 46.0369 55.9681 46.0503 53.3791 46.0636C52.8639 46.0636 52.7318 45.9032 52.7318 45.3953C52.745 38.2171 52.7318 31.0389 52.7582 23.8607C52.7582 23.2057 52.5865 23.0453 51.9657 23.0721C50.5126 23.1255 49.0728 23.0721 47.6198 23.0988C47.1839 23.1122 47.065 22.9785 47.065 22.5374C47.0782 19.8773 47.0914 17.2039 47.065 14.5438C47.065 14.0358 47.1971 13.9155 47.6858 13.9155C52.2298 13.9289 56.7739 13.9155 61.3179 13.9155C63.2993 13.9155 65.2675 13.9155 67.2489 13.9155C67.3282 13.9155 67.4206 13.8754 67.4999 13.8621C67.4867 16.9365 67.4867 19.9976 67.4867 23.0587Z" fill="#295FCB"/>
<path d="M0.0132094 29.9695C0.0132094 24.8633 0.0264188 19.7436 0 14.6374C0 14.1027 0.105675 13.9155 0.673679 13.9155C3.26272 13.9423 5.85176 13.9423 8.4408 13.9155C8.95597 13.9155 9.10127 14.0492 9.10127 14.5839C9.08806 24.8499 9.08806 35.1159 9.10127 45.3819C9.10127 45.8899 8.9956 46.0636 8.45401 46.0636C5.83855 46.0369 3.22309 46.0369 0.620841 46.0636C0.118885 46.0636 0 45.93 0 45.4354C0.0132094 40.289 0.0132094 35.1293 0.0132094 29.9695Z" fill="#3377FE"/>
<path d="M28.7306 43.7243C23.143 43.6574 19.0085 41.0776 16.4855 36.0782C12.2849 27.7505 17.6083 17.6449 26.7624 16.3616C27.4229 16.268 28.0701 16.2146 28.7306 16.2547C28.9948 16.5488 28.9419 16.923 28.9419 17.2706C28.9419 19.5564 28.9419 21.8288 28.9419 24.1146C28.9419 24.5156 28.9419 24.9166 29.1401 25.2775C29.0872 25.7588 28.691 25.6117 28.44 25.6251C27.053 25.6919 25.9434 26.2934 25.1508 27.4163C24.1469 28.8332 24.0148 30.3838 24.7678 31.9344C25.5075 33.4716 26.7888 34.2603 28.4796 34.3539C28.757 34.3672 29.1533 34.1801 29.259 34.6747C28.9287 35.0089 28.9419 35.4366 28.9419 35.851C28.9419 38.1368 28.9419 40.4092 28.9419 42.695C28.9419 43.0693 28.9948 43.4302 28.7306 43.7243Z" fill="#3377FE"/>
<path d="M29.1268 25.4247C28.7437 25.3311 28.7305 25.0504 28.7305 24.7162C28.7437 21.9091 28.7305 19.0886 28.7305 16.2815C34.0407 16.3617 38.0299 18.7812 40.5925 23.4329C45.2158 31.8142 39.9585 42.3208 30.5534 43.6441C29.9458 43.7243 29.3381 43.7912 28.7173 43.7377C28.7173 40.944 28.7305 38.1502 28.7041 35.3698C28.7041 34.9287 28.8097 34.6614 29.2324 34.5812C29.391 34.3272 29.6684 34.3138 29.9193 34.2336C33.0235 33.2044 34.0407 29.4749 31.8611 27.0154C31.3063 26.3871 30.5798 26.0128 29.7872 25.7722C29.5759 25.6786 29.2721 25.692 29.1268 25.4247Z" fill="#295FCB"/>
<path d="M28.7305 0.0136913C34.0275 -0.0130431 38.9546 1.35041 43.5251 4.02385C44.278 4.46497 44.9913 4.98629 45.7442 5.45414C46.0481 5.64128 46.0481 5.81505 45.8499 6.0824C45.2423 6.8978 44.6479 7.72656 44.0667 8.55533C43.8685 8.84941 43.7232 8.91624 43.4062 8.689C40.1963 6.40321 36.6562 4.94619 32.7858 4.31793C31.4385 4.09069 30.0911 4.01048 28.7305 3.97038C28.4796 3.85008 28.4267 3.60947 28.4135 3.35549C28.3871 2.44652 28.3871 1.53755 28.4135 0.628582C28.4267 0.387973 28.4796 0.147363 28.7305 0.0136913Z" fill="#29B0CB"/>
<path d="M28.7306 56.0356C32.8916 55.9554 36.8544 55.0465 40.553 53.0815C41.5041 52.5735 42.442 52.0389 43.3006 51.3839C43.7101 51.063 43.895 51.1566 44.1592 51.5443C44.6876 52.3329 45.2424 53.1082 45.8236 53.8568C46.0613 54.1776 46.0481 54.338 45.7047 54.5786C42.2438 57.0248 38.4395 58.669 34.2918 59.471C32.4557 59.8186 30.6063 60.0458 28.7438 59.9923C28.4928 59.872 28.44 59.6314 28.4268 59.3774C28.4004 58.4685 28.4004 57.5595 28.4268 56.6505C28.4268 56.3966 28.4796 56.156 28.7306 56.0356Z" fill="#29B0CB"/>
<path d="M28.7306 0.0136166C28.5325 1.33697 28.5325 2.64695 28.7306 3.97031C25.0716 4.02377 21.5447 4.71887 18.2027 6.2561C16.7629 6.91109 15.3627 7.67302 14.0946 8.62209C13.6587 8.9429 13.4605 8.8627 13.1831 8.44832C12.668 7.67302 12.1264 6.91109 11.5584 6.18926C11.281 5.84171 11.3206 5.66794 11.6773 5.41396C15.3627 2.80736 19.4048 1.13646 23.8167 0.401265C25.4415 0.133921 27.0794 -0.0532194 28.7306 0.0136166Z" fill="#2EE5E5"/>
<path d="M28.7304 56.0356C28.5322 57.3589 28.5322 58.6689 28.7304 59.9923C24.6619 60.0457 20.7651 59.2036 17.0269 57.6129C15.1379 56.8109 13.3811 55.7816 11.6903 54.6187C11.3204 54.3647 11.294 54.1909 11.5714 53.8434C12.1658 53.0681 12.7338 52.2794 13.2754 51.4774C13.5 51.1566 13.6453 51.0897 13.9887 51.3437C17.5024 53.8567 21.3992 55.3271 25.6526 55.8618C26.6697 55.9554 27.7001 55.9688 28.7304 56.0356Z" fill="#2EE5E5"/>
<path d="M28.7305 8.02065C33.2746 7.99392 37.3827 9.35737 41.121 11.9506C41.3719 12.1244 41.4248 12.2714 41.2266 12.5254C40.6058 13.3542 39.9982 14.1963 39.4037 15.0518C39.1792 15.3726 39.0207 15.3592 38.7301 15.1454C36.4977 13.5814 34.0407 12.5789 31.346 12.1912C30.4874 12.0709 29.6024 12.0308 28.7305 11.964C28.4796 11.8437 28.4267 11.6031 28.4135 11.3491C28.3871 10.4401 28.3871 9.53114 28.4135 8.62217C28.4267 8.38156 28.4796 8.14095 28.7305 8.02065Z" fill="#29B0CB"/>
<path d="M28.7306 48.0284C32.3896 47.9482 35.758 46.9323 38.783 44.8069C39.0339 44.6332 39.1792 44.6198 39.3642 44.8871C39.9718 45.756 40.5926 46.6249 41.2267 47.467C41.4777 47.7878 41.306 47.9215 41.0682 48.0819C38.347 49.9934 35.3485 51.2232 32.0726 51.7311C30.9762 51.9049 29.8666 52.052 28.7438 51.9718C28.4928 51.8514 28.44 51.6108 28.4268 51.3569C28.4004 50.4479 28.4004 49.5389 28.4268 48.63C28.4268 48.3893 28.4796 48.1487 28.7306 48.0284Z" fill="#29B0CB"/>
<path d="M28.7303 48.0286C28.5322 49.352 28.5322 50.662 28.7303 51.9853C24.1598 52.0254 20.0253 50.6753 16.2606 48.0687C15.9832 47.8816 15.9172 47.7345 16.1417 47.4405C16.7626 46.6117 17.3702 45.7696 17.9646 44.9141C18.1364 44.6735 18.2685 44.5933 18.5458 44.7804C21.5972 46.9459 25.0185 47.9618 28.7303 48.0286Z" fill="#2EE5E5"/>
<path d="M28.7305 8.02058C28.5324 9.34394 28.5324 10.6539 28.7305 11.9773C25.0187 12.0307 21.5974 13.06 18.5461 15.2121C18.3215 15.3725 18.1762 15.3859 18.0045 15.1453C17.3836 14.2631 16.7496 13.3808 16.1023 12.512C15.8381 12.151 16.1023 12.0575 16.3137 11.9104C18.797 10.1727 21.5182 8.99639 24.4903 8.4216C25.8905 8.14089 27.3039 7.92701 28.7305 8.02058Z" fill="#2EE5E5"/>
</svg>
