<svg width="60" height="60" viewBox="0 0 60 60" fill="none" xmlns="http://www.w3.org/2000/svg">
<path d="M43.9215 52.3539C42.3097 54.3036 40.5584 56.1006 38.3374 57.4865C36.3576 58.7198 34.2129 59.5889 31.8269 59.8825C31.7508 59.8943 31.6873 59.953 31.6239 59.9883C31.0782 59.9883 30.5325 59.9883 29.9741 59.9883C29.8598 59.8708 29.7964 59.7299 29.7964 59.5654C29.7837 58.5906 29.7202 57.604 29.8345 56.6291C29.9487 56.3238 30.2533 56.3355 30.5198 56.312C33.0707 56.1006 35.3043 55.1845 37.2841 53.7046C37.8425 53.2818 38.3121 52.7885 38.8324 52.3304C39.9492 51.3086 40.8629 50.1458 41.6498 48.9008C42.6524 47.5149 43.4011 45.9998 44.0611 44.4494C44.8606 42.4997 45.5332 40.5148 45.9267 38.4476C46.3962 36.357 46.6247 34.2546 46.7643 32.117C47.0054 28.5464 46.6754 25.0229 45.914 21.5346C45.5332 19.4674 44.8733 17.4825 44.0357 15.5328C43.4519 13.9472 42.6016 12.4791 41.6752 11.0579C40.8883 9.80116 39.9619 8.65014 38.8324 7.64005C36.9668 5.78432 34.784 4.45711 32.0935 3.8816C31.5351 3.76415 30.964 3.7524 30.4182 3.65844C30.1898 3.62321 29.9487 3.62321 29.8472 3.36481C29.7076 2.37822 29.7837 1.40337 29.7964 0.416778C29.7964 0.264091 29.8598 0.111404 29.9868 0.00569743C33.2356 -0.0530284 36.0784 1.02753 38.6801 2.71883C40.736 4.05778 42.3859 5.77257 43.8961 7.60482C44.6702 8.13335 44.9875 8.96726 45.4952 9.67197C45.952 10.318 46.2947 11.0344 46.6881 11.7156C48.173 14.3231 49.0867 17.1301 49.8862 19.9607C50.3812 22.0161 50.7239 24.0833 50.9142 26.1739C51.0031 27.4541 51.0665 28.7461 51.0665 30.0263C51.0665 31.2713 51.0031 32.5163 50.9015 33.7613C50.6477 35.9459 50.3558 38.107 49.772 40.2446C49.0486 43.0635 48.0461 45.8001 46.612 48.384C45.9774 49.6643 45.1652 50.8388 44.3276 52.0015C44.2388 52.1777 44.0991 52.2834 43.9215 52.3539Z" fill="#66CBFE"/>
<path d="M29.9866 56.4999C29.9866 57.6627 29.9866 58.8372 29.9739 60C29.4282 60 28.8825 60 28.3241 60C27.7149 59.7416 27.0296 59.7181 26.3951 59.5537C23.9457 58.9429 21.8517 57.7567 19.9227 56.2768C18.4378 55.1375 17.2576 53.7398 16.0519 52.3774C15.2651 51.7549 14.8717 50.8858 14.3386 50.1106C13.9452 49.5233 13.6026 48.8891 13.2599 48.2666C11.8385 45.6944 10.9121 42.946 10.1252 40.1624C9.63027 38.06 9.3003 35.9342 9.04648 33.7848C8.99572 32.4106 8.86881 31.0364 8.8815 29.6505C8.89419 28.4995 9.00841 27.3602 9.07187 26.2209C9.24954 24.6353 9.4526 23.038 9.76987 21.4641C9.88409 20.8886 10.0237 20.3131 10.176 19.7493C10.8613 17.1419 11.7624 14.5932 13.0315 12.1737C13.133 11.9858 13.2472 11.7978 13.3107 11.5864C13.9706 10.4824 14.6178 9.3666 15.4047 8.32128C15.557 8.10986 15.6712 7.92194 15.4174 7.71053C16.0392 7.67529 16.3692 7.29945 16.7245 6.86488C19.1104 4.02255 21.9786 1.77922 25.7225 0.628193C27.1058 0.205367 28.5272 -0.0412814 29.9866 0.0056993C29.9866 1.16847 29.9866 2.33124 29.9866 3.49401C29.5932 3.78764 29.0983 3.68194 28.6668 3.74066C26.0651 4.11651 23.8696 5.20881 21.9786 6.86488C21.6867 7.12327 21.3441 7.31119 21.1156 7.61657C19.9861 8.66189 19.047 9.84815 18.2094 11.1166C17.2829 12.4791 16.5596 13.9355 15.8996 15.4271C15.0493 17.459 14.3767 19.5379 13.9452 21.6873C13.2345 24.9407 12.968 28.2176 13.0949 31.5297C13.1711 33.5616 13.3995 35.5818 13.7929 37.5785C13.8564 37.9073 13.9833 38.2127 14.0848 38.5416C14.0721 38.9527 14.1483 39.352 14.2625 39.7396C14.7067 41.3722 15.2143 42.993 15.9123 44.5551C16.5088 46.0702 17.3083 47.4914 18.1967 48.8773C19.0216 50.1693 20.0369 51.3438 21.1283 52.4479C22.004 53.1173 22.7908 53.8808 23.7427 54.468C25.494 55.5251 27.3723 56.1828 29.4536 56.3355C29.6567 56.3473 29.8597 56.3238 29.9866 56.4999Z" fill="#98EDFE"/>
<path d="M46.5484 11.7155C45.7489 10.3061 44.8732 8.93191 43.9087 7.61646C47.8937 7.96881 51.6121 8.97889 54.7341 11.4571C57.615 13.7592 59.2902 16.6602 59.8486 20.1251C60.3055 23.0026 59.6836 25.7745 58.6049 28.4641C58.3891 29.0044 58.0465 29.5094 57.9703 30.1084C57.5388 31.1303 56.9424 32.0699 56.3205 33.0095C56.0667 33.3971 55.8129 33.7729 55.6225 34.1958C55.4067 34.325 55.2544 34.5011 55.1022 34.6891C53.6681 36.5683 52.0563 38.3183 50.2923 39.9392C50.1019 40.1036 49.9623 40.362 49.6323 40.315C50.0765 38.3536 50.5207 36.3804 50.6476 34.3719C50.6603 34.1958 50.7238 34.0313 50.7618 33.8669C50.9522 33.3384 51.3837 32.9508 51.7137 32.5045C52.3228 31.6706 52.9701 30.8484 53.465 29.944C54.2011 28.6286 54.9245 27.3131 55.3433 25.8684C56.5616 22.0748 56.1301 18.5395 53.3762 15.4035C51.866 13.6887 49.8481 12.6669 47.6018 11.9974C47.2464 11.8917 46.8911 11.8095 46.5484 11.7155Z" fill="#CED6E5"/>
<path d="M10.3537 19.6788C10.0492 21.0764 9.73189 22.4741 9.54152 23.8953C9.43999 24.6352 9.33846 25.3752 9.23694 26.1151C8.67853 27.1252 7.81554 27.9356 7.20638 28.9222C6.95256 29.3333 6.68604 29.7209 6.48299 30.1437C5.64538 31.3417 5.12505 32.6572 4.64279 33.9961C4.24937 35.1589 3.99555 36.3569 3.97017 37.5549C3.90672 40.3385 4.85854 42.805 6.8891 44.8839C8.65315 46.6809 10.9121 47.6675 13.4123 48.2548C14.2245 49.6642 15.1129 51.0266 16.0647 52.3538C12.8793 52.0719 9.82072 51.3672 7.07947 49.7699C4.9093 48.5131 3.18333 46.8453 1.93961 44.7547C0.898947 43.0282 0.30247 41.1842 0.086723 39.1992C-0.20517 36.4391 0.442071 33.8434 1.48273 31.2947C1.6731 30.8249 2.04114 30.4138 2.00306 29.8736C2.44725 28.84 3.05642 27.8886 3.70366 26.9608C3.94479 26.6202 4.16054 26.2678 4.3509 25.892C5.17582 24.9993 5.86113 24.0245 6.68604 23.1318C7.67594 22.0513 8.67853 20.9707 9.78265 19.9724C9.93494 19.8315 10.0745 19.62 10.3537 19.6788Z" fill="#E0E5EF"/>
<path d="M55.546 34.2194C55.5587 34.0667 55.5206 33.9023 55.6221 33.7614C56.4344 32.6221 57.145 31.4241 57.8177 30.2143C57.8431 30.1673 57.9192 30.1439 57.97 30.1204C59.1375 32.5046 59.9371 34.9829 59.9751 37.602C60.0767 43.9327 55.9521 49.2767 49.467 51.3086C47.6649 51.8724 45.8247 52.2483 43.921 52.354C44.8348 51.062 45.7866 49.7935 46.4592 48.3723C46.7004 48.2079 46.9796 48.1374 47.2714 48.0552C50.6599 47.1274 53.3377 45.3773 54.8987 42.3588C56.1425 39.9393 56.1932 37.4376 55.5587 34.8772C55.5079 34.6657 55.3556 34.4426 55.546 34.2194Z" fill="#6680FE"/>
<path d="M4.43945 25.8803C4.19832 26.7612 3.5257 27.4307 3.05613 28.1941C2.72616 28.7579 2.54849 29.4156 2.00277 29.8737C1.2667 28.2764 0.619456 26.6555 0.28949 24.9407C-0.58619 20.3719 0.505236 16.2845 3.83028 12.761C6.38117 10.0596 9.70621 8.67368 13.4247 7.96897C14.0846 7.85151 14.7445 7.72232 15.4172 7.71057C15.6075 7.7693 16.1025 7.59312 15.7471 8.08642C14.9984 9.11999 14.2877 10.1653 13.6785 11.2811C13.615 11.3986 13.4881 11.4808 13.3866 11.5747C13.2216 11.8214 12.9297 11.8331 12.6759 11.9036C9.50316 12.7492 6.95227 14.3818 5.34051 17.095C4.24908 18.9389 3.77952 20.9121 4.02064 23.0145C4.10948 23.7897 4.23639 24.5649 4.43945 25.3166C4.5029 25.5045 4.57905 25.7042 4.43945 25.8803Z" fill="#80A9FE"/>
<path d="M29.8468 47.1154C31.4078 46.7748 32.8799 46.1876 34.3394 45.612C36.37 44.8016 38.3371 43.862 40.1773 42.7345C41.789 41.7479 43.3627 40.7143 44.8095 39.528C45.2156 39.1992 45.6471 38.8821 46.0659 38.5649C45.8628 40.0213 45.3806 41.419 44.8856 42.8167C44.6699 43.3922 44.543 44.0147 44.1749 44.5315C43.9211 44.9073 43.5277 45.1305 43.1343 45.3654C41.4464 46.3872 39.7204 47.3621 37.8929 48.1725C37.5121 48.3369 37.1441 48.5366 36.7761 48.7245C35.4562 49.1826 34.1744 49.7229 32.8545 50.1692C31.9662 50.4745 31.0524 50.686 30.1767 51.0148C30.0244 50.9913 29.9102 50.9091 29.8595 50.7799C29.6945 49.6289 29.8341 48.4779 29.7706 47.3268C29.7833 47.2446 29.8087 47.1741 29.8468 47.1154Z" fill="#CED6E5"/>
<path d="M46.0657 21.429C44.0986 19.8551 42.0807 18.3635 39.8851 17.0715C36.9281 15.345 33.7808 14.0178 30.4684 12.996C30.3542 12.9607 30.24 12.9137 30.1131 12.8668C30.0877 12.6554 30.2781 12.5966 30.4177 12.5614C32.4355 11.9976 34.4534 11.4456 36.5728 11.3164C37.5246 11.5278 38.3495 12.0211 39.1998 12.4322C40.5958 13.1134 41.9538 13.8651 43.261 14.699C43.5909 14.9104 43.9336 15.0983 44.1366 15.439C45.0631 17.3769 45.7103 19.3618 46.0657 21.429Z" fill="#6680FE"/>
<path d="M36.7125 11.4571C34.4535 11.6685 32.258 12.1501 30.1259 12.8783C30.0751 12.8783 30.037 12.8783 29.9863 12.89C29.7451 12.6316 29.8086 12.3145 29.7959 12.0091C29.7451 11.1517 29.9228 10.2826 29.6817 9.42521C29.6182 9.29601 29.5548 9.17856 29.6055 9.03762C30.3543 9.17856 31.0269 8.8497 31.7249 8.69701C34.1235 8.16848 36.5348 7.73391 38.9969 7.61646C40.1137 8.60305 41.0528 9.73058 41.7762 10.9991C41.3067 11.3397 40.7229 11.2222 40.2025 11.2575C39.035 11.3044 37.8801 11.4924 36.7125 11.4571Z" fill="#CED6E5"/>
<path d="M38.9714 52.3892C36.154 52.2482 33.4001 51.7314 30.6842 51.0502C30.5446 51.015 30.405 50.9915 30.2527 50.9563C30.2527 50.6626 30.5446 50.7096 30.7096 50.6626C32.5751 50.1458 34.39 49.4999 36.1667 48.7599C36.3824 48.6659 36.5982 48.619 36.8266 48.619C37.1439 48.4545 37.4739 48.5133 37.8038 48.5485C38.6795 48.6425 39.5552 48.7012 40.4309 48.6894C40.8877 48.6777 41.3573 48.6894 41.7507 48.9596C41.3319 49.8522 40.6593 50.5922 40.0121 51.3321C39.7075 51.7079 39.4283 52.1308 38.9714 52.3892Z" fill="#6680FE"/>
<path d="M49.7338 19.902C50.5079 20.2778 51.0029 20.9473 51.5867 21.5111C52.9827 22.8735 54.2137 24.3769 55.4066 25.9038C55.267 26.8199 54.8229 27.642 54.4167 28.4642C54.1629 28.9692 53.9218 29.4978 53.5664 29.9558C53.3634 29.8971 53.2619 29.7444 53.173 29.5917C52.5512 28.5582 51.7897 27.6068 51.0282 26.6554C50.9013 26.491 50.8633 26.3031 50.7617 26.1387C50.5333 24.2007 50.2795 22.2745 49.7972 20.3718C49.7591 20.2191 49.7591 20.0664 49.7338 19.902Z" fill="#6680FE"/>
<path d="M29.7195 9.24919C30.0622 9.29617 29.9733 9.55457 29.9733 9.75424C29.986 10.7996 29.9733 11.8449 29.9733 12.8902C28.6281 13.1486 27.3844 13.6654 26.1279 14.1587C23.4501 15.204 20.8993 16.4725 18.5133 18.0111C16.8508 19.0916 15.2518 20.2662 13.7796 21.5581C14.2619 19.4323 14.8456 17.3416 15.7848 15.3449C17.2189 14.3466 18.7545 13.4892 20.3155 12.6788C21.2927 12.1737 22.3206 11.7627 23.2979 11.2576C25.138 10.5412 26.9782 9.83645 28.8819 9.29617C29.1611 9.21396 29.4276 9.06127 29.7195 9.24919Z" fill="#E0E5EF"/>
<path d="M29.8469 47.1155C29.8469 47.1507 29.8469 47.1742 29.8469 47.2095C29.6692 47.4326 29.39 47.4796 29.1362 47.5501C27.5117 47.9846 25.8619 48.3722 24.1867 48.6306C23.9202 48.6776 23.641 48.6776 23.3744 48.6424C21.4454 48.0081 19.7067 47.0098 17.9808 46.0232C17.232 45.6004 16.4705 45.1776 15.8106 44.6255C14.9222 42.852 14.4527 40.961 13.9323 39.0701C13.8943 38.9291 13.8689 38.7529 14.0339 38.6355C17.3462 41.3839 20.9758 43.6742 25.037 45.3655C26.6107 46.0467 28.2224 46.5987 29.8469 47.1155Z" fill="#80A9FE"/>
<path d="M23.2603 48.5251C25.2401 48.4428 27.1057 47.8673 29.0094 47.421C29.2886 47.3505 29.5678 47.2801 29.847 47.2096C30.0627 47.374 29.9739 47.6089 29.9739 47.8086C29.9866 48.8187 29.9739 49.8405 29.9739 50.8506C27.6133 51.4966 25.2021 51.9312 22.7654 52.2365C22.1689 52.307 21.5724 52.2953 21.0013 52.4832C19.8845 51.4144 18.92 50.2398 18.1078 48.9714C18.6154 48.6542 19.2119 48.7952 19.7576 48.76C20.9252 48.6777 22.0801 48.4898 23.2603 48.5251Z" fill="#E0E5EF"/>
<path d="M29.7198 9.24918C27.7019 9.73073 25.7729 10.4707 23.8566 11.2106C23.6662 11.2811 23.4758 11.3751 23.2601 11.3633C23.0951 11.4455 22.9047 11.4808 22.7144 11.4573C21.331 11.3281 19.935 11.2106 18.539 11.1754C18.374 11.1754 18.2091 11.1402 18.0822 11.011C18.9578 9.8012 19.7574 8.54447 20.9884 7.60486C23.9073 7.79278 26.7755 8.32131 29.5929 9.02602C29.6437 9.10824 29.6817 9.17871 29.7198 9.24918Z" fill="#80A9FE"/>
<path d="M10.2263 40.2094C8.08155 38.3301 6.20328 36.2278 4.51538 33.9844C4.85804 32.6572 5.50528 31.4592 6.1779 30.2495C6.22867 30.1555 6.3175 30.1085 6.43172 30.1085C6.68554 30.179 6.749 30.4139 6.86322 30.5901C7.45969 31.4592 8.06886 32.3166 8.75418 33.1388C8.95723 33.3737 9.08414 33.6321 9.21105 33.8905C9.37604 34.9593 9.52833 36.0398 9.706 37.0969C9.85829 38.013 10.0613 38.9291 10.239 39.8335C10.2771 39.9627 10.3913 40.0919 10.2263 40.2094Z" fill="#80A9FE"/>
<path d="M39.4669 30.3435C39.4669 33.1741 39.4796 35.993 39.4796 38.8236C39.4796 39.6457 38.8451 40.1273 38.2105 40.5384C36.8272 41.4427 35.2027 41.8186 33.5656 42.0652C32.3853 42.2414 31.1924 42.3706 29.9994 42.3001C29.8218 42.1357 29.7964 41.9125 29.7964 41.7011C29.7964 39.1172 29.771 36.5215 29.8091 33.9376C29.8091 33.8554 29.8218 33.7849 29.8471 33.7027C29.8598 33.6322 29.8979 33.5735 29.936 33.5147C30.6594 33.2094 31.4589 33.3268 32.2204 33.2564C33.921 33.0802 35.5835 32.7513 37.1572 32.1288C38.0075 31.7882 38.7308 31.2949 39.2004 30.5432C39.2512 30.4375 39.3146 30.3318 39.4669 30.3435Z" fill="#CED6E5"/>
<path d="M29.9737 33.5146C29.9737 36.4392 29.9737 39.3637 29.9864 42.2882C27.3593 42.2765 24.7957 41.9711 22.4098 40.8906C21.1154 40.3151 20.4047 39.4577 20.4554 38.0013C20.557 35.4526 20.4808 32.8921 20.4935 30.3434C20.6839 30.3199 20.7473 30.4609 20.8108 30.5783C21.293 31.33 22.0291 31.7998 22.8794 32.1404C24.8719 32.9391 26.9913 33.2445 29.1488 33.3502C29.428 33.3737 29.7452 33.2914 29.9737 33.5146Z" fill="#E0E5EF"/>
<path d="M29.9738 33.5146C27.5499 33.5146 25.1766 33.1975 22.9176 32.3283C21.8643 31.929 20.9759 31.3535 20.4937 30.3434C20.4937 27.4188 20.4937 24.4943 20.4937 21.5697C20.5825 21.5463 20.6586 21.5815 20.7094 21.652C21.5343 22.9909 22.9557 23.4725 24.4279 23.8835C26.0269 24.3299 27.6768 24.4943 29.352 24.5648C29.5804 24.5765 29.8215 24.5648 30.0246 24.694C30.0754 24.7527 30.1134 24.8114 30.1388 24.8819C30.2277 25.1755 30.2023 25.4691 30.2023 25.751C30.2023 28.0413 30.2023 30.3199 30.2023 32.6102C30.1896 32.9156 30.2403 33.2444 29.9738 33.5146Z" fill="#CED6E5"/>
<path d="M29.9863 33.5031C29.9863 30.5785 29.9863 27.654 29.9863 24.7294C30.2147 24.4945 30.532 24.565 30.8112 24.5532C32.5625 24.5063 34.2885 24.2831 35.951 23.7663C37.1948 23.3905 38.3877 22.8854 39.1619 21.8284C39.2253 21.7344 39.3142 21.6404 39.4664 21.6874C39.4664 24.565 39.4664 27.4543 39.4664 30.3319C38.9588 31.4594 37.9181 32.0349 36.7633 32.4342C34.5804 33.2212 32.3087 33.5265 29.9863 33.5031Z" fill="#A2B0CB"/>
<path d="M39.4665 21.6991C38.5401 23.1673 36.9664 23.7075 35.3293 24.1304C33.5906 24.5884 31.7885 24.7646 29.9864 24.7411L29.9737 24.7176C29.7452 24.4945 29.7706 24.2126 29.7706 23.9425C29.7706 22.122 29.7706 20.2897 29.7706 18.4692C29.7706 18.1991 29.7579 17.9172 29.9737 17.694C32.6007 17.6823 35.1516 18.0111 37.5502 19.0917C38.134 19.3501 38.6036 19.7377 39.035 20.1605C39.4919 20.6068 39.5173 21.1354 39.4665 21.6991Z" fill="#E0E5EF"/>
<path d="M29.9863 17.694C29.9863 20.0313 29.9863 22.3685 29.9863 24.7058C27.3846 24.7058 24.8464 24.4005 22.4732 23.3434C21.5975 22.9558 20.8995 22.392 20.4934 21.5581C20.2396 20.3719 21.5722 19.3735 22.8032 18.9037C24.4657 18.2812 26.1663 17.8701 27.9811 17.7762C28.6537 17.7527 29.3137 17.694 29.9863 17.694Z" fill="#F2F4F8"/>
</svg>
