<svg width="64" height="60" viewBox="0 0 64 60" fill="none" xmlns="http://www.w3.org/2000/svg">
<path d="M13.2043 59.9834C12.78 60.0335 12.4305 59.833 12.0935 59.6326C8.37437 57.4527 4.6552 55.2604 0.936032 53.0805C0.461776 52.8049 0.249609 52.3288 0 51.8778C0 47.2926 0 42.7074 0 38.1348C0.087363 38.0095 0.162246 37.8842 0.249609 37.7589C0.59906 37.571 0.848669 37.8216 1.11076 37.9719C3.36971 39.2497 5.62867 40.5276 7.87515 41.8054C9.42272 42.6824 10.9703 43.5719 12.5303 44.4488C12.8673 44.6367 13.2542 44.7996 13.3541 45.2381C13.404 45.5262 13.404 45.8143 13.404 46.115C13.404 50.387 13.404 54.6465 13.404 58.9185C13.3915 59.2693 13.4789 59.6576 13.2043 59.9834Z" fill="#7983EA"/>
<path d="M37.7284 37.7591C37.9156 37.2079 38.4024 36.9949 38.8392 36.7318C41.8844 34.9027 44.9421 33.0737 47.9873 31.2446C48.2369 31.0943 48.4616 30.9189 48.6987 30.756C49.9468 29.5533 51.1574 29.5533 52.4054 30.756C54.1776 31.9462 56.0622 32.9484 57.8843 34.0634C59.4444 35.003 61.0169 35.93 62.5894 36.8696C62.9638 37.0951 63.3383 37.3206 63.5005 37.7716C62.8266 38.3354 62.0153 38.6736 61.2665 39.0996C57.8594 41.0539 54.4397 42.9957 51.0076 44.9376C50.8578 45.0253 50.7205 45.1004 50.5458 45.113C49.46 44.6995 48.499 44.023 47.5006 43.4593C44.368 41.6803 41.2479 39.8638 38.1153 38.0848C37.978 37.9721 37.8283 37.8969 37.7284 37.7591Z" fill="#969EEE"/>
<path d="M13.2042 45.0127C9.14802 42.7076 5.09189 40.3899 1.03575 38.0848C0.78614 37.947 0.549011 37.7716 0.249481 37.7466C0.686296 36.8821 1.58489 36.6065 2.33371 36.1555C5.21669 34.4267 8.11215 32.7229 10.9951 31.0191C11.1199 30.9439 11.2198 30.8437 11.3446 30.756C12.4553 29.5659 13.953 29.5659 15.0513 30.756C16.8734 31.9837 18.7829 33.0361 20.655 34.1761C22.1401 35.0781 23.6253 35.9676 25.1105 36.8571C25.4849 37.0826 25.8593 37.3081 26.0216 37.7466C25.1105 38.4356 24.0871 38.9367 23.1011 39.5005C20.006 41.2794 16.9233 43.0584 13.8282 44.8123C13.641 44.925 13.4663 45.1004 13.2042 45.0127Z" fill="#B4B9F2"/>
<path d="M50.5581 45.0127C54.6143 42.7075 58.6579 40.4024 62.7141 38.0973C62.9637 37.9595 63.2008 37.7716 63.5003 37.759C63.725 38.0597 63.7499 38.4105 63.7499 38.7613C63.7499 42.9456 63.7499 47.1174 63.7499 51.3017C63.7499 52.141 63.3755 52.7549 62.6517 53.1934C59.0199 55.3106 55.4005 57.4528 51.7687 59.5826C51.3943 59.7956 51.0199 60.0336 50.5581 59.996C50.3335 59.758 50.3584 59.4573 50.3584 59.1692C50.3584 54.7218 50.3584 50.2869 50.3584 45.8395C50.3584 45.5514 50.321 45.2382 50.5581 45.0127Z" fill="#5A69E5"/>
<path d="M13.2043 45.0128C17.3104 42.6576 21.404 40.2898 25.51 37.9346C25.6723 37.8469 25.847 37.7968 26.0217 37.7341C26.2339 38.0348 26.2588 38.3856 26.2588 38.7489C26.2588 42.9332 26.2588 47.1175 26.2588 51.3018C26.2588 52.1161 25.9094 52.73 25.2105 53.1559C21.6036 55.2857 18.0093 57.4279 14.4024 59.5702C14.028 59.7957 13.6536 60.0337 13.1918 59.9836C13.2043 54.9975 13.2043 50.0114 13.2043 45.0128Z" fill="#5A69E5"/>
<path d="M31.8749 29.9793C31.4256 30.042 31.0636 29.8165 30.7142 29.6035C27.0574 27.4362 23.4131 25.2688 19.7564 23.089C19.1199 22.7132 18.8079 22.1244 18.7954 21.3727C18.7829 20.4957 18.7829 19.6313 18.7704 18.7544C18.6456 18.604 18.6082 18.4286 18.5957 18.2282C18.5707 17.3137 18.5707 16.4116 18.5957 15.4971C18.5957 15.3092 18.6456 15.1338 18.7704 14.9709C18.7704 12.9289 18.7829 10.8994 18.7829 8.85734C18.7829 8.45645 18.7829 8.06808 19.0325 7.7173C19.382 7.52938 19.6316 7.77994 19.8936 7.93028C22.9014 9.64659 25.9092 11.3754 28.917 13.1043C29.6783 13.5428 30.4271 13.9812 31.1884 14.4072C31.4755 14.57 31.7875 14.7079 31.9747 15.0085C32.0121 15.0712 32.0246 15.1463 32.0371 15.2215C32.0995 15.7602 32.0745 16.2989 32.0745 16.8376C32.0745 20.8716 32.0745 24.9055 32.0745 28.9395C32.0745 29.3154 32.1494 29.6912 31.8749 29.9793Z" fill="#7983EA"/>
<path d="M50.5584 45.0127C50.5584 49.9988 50.5584 54.9974 50.5584 59.9835C50.1091 60.0461 49.7471 59.8206 49.3977 59.6076C45.7409 57.4403 42.0842 55.273 38.4399 53.0932C37.8158 52.7298 37.4914 52.1536 37.4914 51.4395C37.4789 47.1549 37.4914 42.8579 37.4914 38.5733C37.4914 38.2727 37.5538 37.9971 37.741 37.759C38.7394 38.0848 39.5631 38.7112 40.4617 39.2123C42.6583 40.44 44.8298 41.7178 47.0139 42.9832C48.1871 43.6597 49.3727 44.3362 50.5584 45.0127Z" fill="#7983EA"/>
<path d="M31.875 29.9793C31.875 24.9932 31.875 20.0071 31.875 15.021C31.9124 14.8081 32.0996 14.7329 32.2494 14.6452C36.1932 12.3776 40.137 10.1226 44.0684 7.86761C44.2556 7.75486 44.4428 7.57947 44.6924 7.75486C44.9545 8.09311 44.942 8.494 44.942 8.88237C44.942 10.9244 44.9545 12.9539 44.9545 14.996C45.0793 15.1463 45.1167 15.3217 45.1292 15.5096C45.1542 16.4116 45.1542 17.3262 45.1292 18.2282C45.1292 18.4161 45.0793 18.5915 44.9545 18.7418C44.9545 19.5937 44.942 20.4456 44.942 21.2975C44.942 22.1118 44.5926 22.7257 43.8812 23.1391C40.2743 25.2688 36.68 27.4111 33.0856 29.5408C32.7237 29.7914 32.3493 30.0294 31.875 29.9793Z" fill="#5A69E5"/>
<path d="M44.705 7.75483C43.5943 8.21836 42.6083 8.89487 41.5724 9.48368C38.7893 11.0622 36.0186 12.6658 33.2355 14.2568C32.7862 14.5199 32.3369 14.7704 31.8876 15.021V14.9834C31.6879 14.7078 31.6879 14.3946 31.6879 14.0814C31.6879 9.68412 31.6879 5.29937 31.6879 0.902085C31.6879 0.588889 31.6505 0.275692 31.9001 0.0126065C32.3993 -0.0625607 32.7862 0.213052 33.1606 0.451082C36.7176 2.56829 40.2745 4.69803 43.8314 6.82777C44.1933 7.0658 44.5802 7.2913 44.705 7.75483Z" fill="#969EEE"/>
<path d="M31.8875 0.0251631C31.8875 5.01126 31.875 9.99735 31.875 14.9834C29.4039 13.5803 26.9328 12.1647 24.4616 10.749C22.8641 9.83449 21.2791 8.91995 19.6816 8.00542C19.482 7.89267 19.2947 7.75486 19.0576 7.75486C19.2698 7.16605 19.8189 6.94055 20.2807 6.66493C23.6629 4.62289 27.0576 2.58085 30.4647 0.563862C30.8891 0.300776 31.3134 -0.0374762 31.8875 0.0251631Z" fill="#B4B9F2"/>
<path d="M18.7831 14.9958C18.7831 16.2486 18.7831 17.5014 18.7831 18.7667C17.7472 18.7667 16.7113 18.7918 15.6755 18.7417C15.1638 18.7166 15.0514 18.9045 15.0639 19.3806C15.0764 23.1766 15.0639 26.96 15.0639 30.7559C12.9922 29.7036 13.3915 29.7286 11.3572 30.7559C11.3572 26.1331 11.3448 21.5103 11.3448 16.8876C11.3448 15.8227 12.1809 15.0209 13.2543 15.0084C15.0889 14.9958 16.936 14.9958 18.7831 14.9958Z" fill="#A7EAF9"/>
<path d="M44.967 18.7668C44.967 17.514 44.967 16.2612 44.967 15.0084C46.8141 15.0084 48.6612 15.0084 50.5084 15.021C51.5941 15.0335 52.4179 15.8227 52.4179 16.9001C52.4179 21.5229 52.4179 26.1457 52.4054 30.7685C50.2837 29.6786 50.6581 29.7913 48.6987 30.7685C48.6987 27.0101 48.6737 23.2518 48.6987 19.5059C48.6987 18.8921 48.5364 18.7292 47.9374 18.7668C46.9514 18.7918 45.953 18.7668 44.967 18.7668Z" fill="#76E1F7"/>
</svg>
