<svg width="60" height="60" viewBox="0 0 60 60" fill="none" xmlns="http://www.w3.org/2000/svg">
<path d="M35.1842 21.9381C35.1602 23.6292 35.0883 25.3203 35.2201 26.9997C35.3758 27.5869 35.3279 28.1741 35.2321 28.7613C35.1123 29.0196 35.1602 29.3015 35.1602 29.5716C35.1602 31.4389 35.1722 33.3062 35.1842 35.1734C35.3997 35.7606 35.3997 36.3478 35.1842 36.9233C35.1842 38.8845 35.1842 40.8457 35.1842 42.7952C35.3997 43.3824 35.3878 43.9696 35.1842 44.5451C35.1602 46.107 35.1003 47.6689 35.2201 49.2426C35.3878 49.8298 35.3399 50.417 35.2321 51.0042C35.0764 51.5444 35.1482 52.0846 35.1722 52.6248C35.3518 56.559 32.2499 59.5655 28.9682 59.9178C28.9203 59.9178 28.8724 59.9765 28.8125 60C28.2496 60 27.6987 60 27.1358 60C26.2615 59.7651 25.3632 59.6007 24.5608 59.1544C23.3511 58.485 22.3571 57.616 21.7103 56.4064C21.5067 56.0306 21.2672 55.9014 20.824 55.9014C16.8597 55.8779 13.6619 53.0124 13.2906 49.1604C13.2427 48.6906 13.0032 48.7376 12.7038 48.7611C10.5959 48.9138 8.71552 48.3266 7.15854 46.9291C4.83505 44.8504 4.05656 42.2902 4.89494 39.2955C5.01471 38.8493 4.99075 38.6261 4.57157 38.3443C-1.20123 34.4923 -1.58449 26.4125 3.86494 22.1495C4.71529 21.4918 4.90691 21.0338 4.72726 19.9769C4.00866 15.8782 6.5118 12.3551 10.6318 11.4273C11.3265 11.2746 12.0451 11.1689 12.7637 11.3216C13.123 11.3921 13.2787 11.2981 13.3026 10.8753C13.5182 7.55183 16.3208 4.63935 19.6862 4.19308C19.806 4.18133 19.9258 4.11087 20.0336 4.13436C21.1594 4.334 21.6504 3.65286 22.2373 2.84253C23.926 0.493755 26.9801 -0.492731 29.8545 0.235389C32.6211 0.940022 34.7889 3.37101 35.1482 6.17779C35.1961 6.50662 35.1123 6.84719 35.244 7.16428C35.4117 7.75147 35.3638 8.33867 35.256 8.92586C35.1003 9.44259 35.1961 9.97107 35.1842 10.4878C35.1722 11.9088 35.1961 13.3298 35.2081 14.7508C35.4237 15.338 35.4237 15.9252 35.2081 16.5007C35.2081 17.7103 35.2081 18.9316 35.2081 20.1413C35.3997 20.7754 35.3997 21.3509 35.1842 21.9381Z" fill="#FA8175"/>
<path d="M35.1842 21.938C35.1842 21.3508 35.1842 20.7636 35.1842 20.1881C38.3221 20.1881 41.46 20.1999 44.5979 20.1764C45.4842 20.1764 46.2028 20.47 46.8376 21.0807C49.1012 23.3003 51.3768 25.4964 53.6404 27.7042C53.2811 28.1857 52.8738 28.632 52.3588 28.9491C50.1192 26.7647 47.8795 24.5803 45.6399 22.3842C45.3045 22.0554 44.9452 21.9145 44.4781 21.9145C41.3881 21.9497 38.2862 21.938 35.1842 21.938Z" fill="#004777"/>
<path d="M46.2629 11.4039C45.4724 9.75979 45.652 8.4797 46.8258 7.46973C47.8558 6.57719 49.4726 6.49499 50.5865 7.28183C51.7722 8.12739 52.1914 9.64235 51.6045 10.9342C51.0296 12.1908 49.5565 12.9189 48.2031 12.637C48.0234 12.6018 47.8558 12.5548 47.6761 12.5196C46.9934 12.4022 46.5263 12.0381 46.2629 11.4039Z" fill="#33C6C9"/>
<path d="M37.6393 27.0116C38.4777 25.0152 40.2023 24.7098 41.4 25.0269C42.7055 25.3792 43.6157 26.5536 43.6277 27.8689C43.6277 29.2312 42.7534 30.3704 41.388 30.7579C40.0945 31.122 38.7052 30.5818 37.9986 29.4309C37.8669 29.2195 37.771 28.9846 37.6513 28.7615C37.2441 28.1977 37.2441 27.5753 37.6393 27.0116Z" fill="#FEC402"/>
<path d="M56.9818 43.8756C55.2931 43.8873 53.9278 42.5838 53.9038 40.9514C53.8799 39.3072 55.2692 37.9449 56.9699 37.9332C58.6227 37.9214 60 39.272 60 40.9044C60 42.5485 58.6706 43.8638 56.9818 43.8756Z" fill="#FEC402"/>
<path d="M44.4662 35.1851C44.7656 34.5157 45.1489 33.9167 45.8076 33.5292C47.2927 32.6484 49.197 33.1182 50.0474 34.5744C50.8858 36.0072 50.3827 37.8157 48.9216 38.626C47.4125 39.4716 45.5441 38.9431 44.7177 37.4517C44.6219 37.2872 44.5501 37.1111 44.4542 36.9349C44.0949 36.3477 44.1069 35.7605 44.4662 35.1851Z" fill="#FEC402"/>
<path d="M53.9878 21.3862C52.299 21.3979 50.9337 20.0709 50.9217 18.4385C50.9097 16.8061 52.2631 15.4673 53.9518 15.4555C55.6406 15.4438 57.0059 16.7591 57.0059 18.4032C57.0179 20.0474 55.6645 21.3744 53.9878 21.3862Z" fill="#FEC402"/>
<path d="M42.9091 42.8188C43.4121 41.797 44.1068 40.9867 45.3284 40.7753C46.8734 40.5052 48.3106 41.3508 48.7777 42.807C49.2448 44.2515 48.5501 45.7782 47.1249 46.4124C45.7476 47.0348 44.0708 46.5181 43.2804 45.2263C43.1486 45.0149 43.0408 44.78 42.9211 44.5569C42.5737 43.9814 42.6216 43.3942 42.9091 42.8188Z" fill="#33C6C9"/>
<path d="M37.2563 7.21137C37.7233 5.99001 38.6096 5.25014 39.951 5.1327C41.0649 5.03875 41.9751 5.47327 42.6458 6.35407C43.6638 7.70461 43.2925 9.64235 41.8673 10.5701C40.4181 11.5096 38.418 11.0516 37.5557 9.58363C37.4359 9.38399 37.3521 9.16085 37.2563 8.94946C36.885 8.43273 36.897 7.68112 37.2563 7.21137Z" fill="#FEC402"/>
<path d="M52.3586 28.961C52.7179 28.4678 53.1251 28.0332 53.6401 27.7162C55.4726 27.082 56.9697 27.5283 57.7482 28.9845C58.335 30.0767 58.2512 31.1806 57.4847 32.1671C56.6942 33.1888 55.5924 33.5294 54.3588 33.2475C53.1371 32.9657 52.3826 32.1553 52.0951 30.9457C51.9275 30.2528 52.1311 29.6069 52.3586 28.961Z" fill="#33C6C9"/>
<path d="M43.7835 52.0963C45.1249 51.6617 46.3346 51.8144 47.3167 52.8714C48.3467 53.9753 48.3347 55.6312 47.3526 56.7703C46.3705 57.8977 44.7177 58.1444 43.4123 57.3458C42.1427 56.5707 41.6517 54.9735 42.2625 53.6112C42.3224 53.482 42.3703 53.3646 42.4182 53.2354C42.6457 52.5778 43.1248 52.2372 43.7835 52.0963Z" fill="#FEC402"/>
<path d="M53.0892 47.1172C54.778 47.1289 56.1074 48.4442 56.0954 50.1119C56.0834 51.756 54.6822 53.1066 53.0413 53.0713C51.3766 53.0361 49.9992 51.6738 50.0112 50.0532C50.0232 48.4208 51.4005 47.1172 53.0892 47.1172Z" fill="#33C6C9"/>
<path d="M46.2626 11.4038C46.6578 11.8736 47.1369 12.2259 47.6759 12.5195C46.6339 13.5295 45.5679 14.5394 44.5499 15.5729C43.8912 16.2423 43.1247 16.5594 42.1666 16.5476C39.8431 16.5241 37.5196 16.5359 35.1961 16.5359C35.1961 15.9487 35.1961 15.3615 35.1961 14.786C37.5076 14.786 39.8071 14.7743 42.1186 14.786C42.6097 14.786 42.981 14.6334 43.3283 14.2928C44.2864 13.3298 45.2805 12.3668 46.2626 11.4038Z" fill="#004777"/>
<path d="M44.4662 35.1851C44.3584 35.7605 44.3465 36.3477 44.4662 36.9232C41.3643 36.9232 38.2743 36.9232 35.1723 36.9349C35.1723 36.3477 35.1723 35.7605 35.1723 35.1851C38.2862 35.1851 41.3762 35.1851 44.4662 35.1851Z" fill="#004777"/>
<path d="M43.7833 52.0962C43.2563 52.3898 42.8132 52.7774 42.4299 53.2471C41.8191 52.6599 41.1963 52.0845 40.6094 51.4855C40.2861 51.145 39.9148 51.0158 39.4477 51.0275C38.0344 51.051 36.6332 51.0393 35.2199 51.0393C35.1121 50.4521 35.1241 49.8649 35.2079 49.2777C36.6571 49.2777 38.1063 49.2894 39.5555 49.2777C40.4418 49.266 41.1724 49.5478 41.7951 50.182C42.4539 50.8161 43.1246 51.4503 43.7833 52.0962Z" fill="#004777"/>
<path d="M42.9092 42.8187C42.8613 43.3942 42.8253 43.9814 42.9212 44.5568C40.3462 44.5568 37.7592 44.5568 35.1842 44.5686C35.1842 43.9814 35.1842 43.3942 35.1842 42.8187C37.7592 42.8187 40.3342 42.8187 42.9092 42.8187Z" fill="#014777"/>
<path d="M37.6394 27.0112C37.5077 27.5984 37.4957 28.1739 37.6394 28.7611C36.837 28.7611 36.0345 28.7611 35.2321 28.7728C35.1123 28.1856 35.1243 27.5984 35.2201 27.0112C36.0345 27.0112 36.837 27.0112 37.6394 27.0112Z" fill="#034877"/>
<path d="M37.2563 7.21145C37.1126 7.7869 37.1006 8.3741 37.2563 8.94955C36.5856 8.94955 35.9029 8.96129 35.2322 8.96129C35.1125 8.3741 35.1364 7.7869 35.2203 7.19971C35.9029 7.19971 36.5736 7.21145 37.2563 7.21145Z" fill="#044977"/>
<path d="M23.9142 6.81194C25.6269 7.7632 26.4293 9.25467 26.6449 11.1102C26.6808 11.4038 26.6449 11.6974 26.8126 11.9558C27.0282 12.2963 27.3515 12.5077 27.7587 12.402C28.154 12.2963 28.4534 12.0497 28.4534 11.5682C28.4414 9.102 27.3875 7.16426 25.4592 5.63756C25.3035 5.52012 25.1478 5.40268 24.9921 5.28524C25.5191 4.35747 26.4653 3.99341 27.4234 3.67633C29.2918 3.06565 31.0164 3.45319 32.6333 4.48666C33.1004 5.14431 33.28 5.89592 33.3519 6.67102C33.3878 7.04682 33.2681 7.21124 32.8608 7.18775C32.4896 7.16426 32.1063 7.176 31.723 7.18775C31.1961 7.19949 30.8368 7.5753 30.8368 8.08028C30.8368 8.58527 31.1961 8.93759 31.747 8.94933C32.1422 8.96107 32.5494 8.96107 32.9447 8.94933C33.2561 8.93759 33.3639 9.06677 33.3639 9.36037C33.3519 11.0397 33.3519 12.7191 33.3639 14.3985C33.3639 14.6921 33.2561 14.8095 32.9447 14.8095C30.5972 14.7978 28.2498 14.8448 25.9023 14.786C24.4771 14.7508 23.3034 13.5294 23.2076 12.1319C23.1716 11.6857 23.0758 11.2511 22.5968 11.0867C22.2135 10.9575 21.8542 11.0632 21.5907 11.4038C21.459 11.5682 21.423 11.7444 21.423 11.944C21.3512 14.0344 23.0998 16.0661 25.2556 16.4537C26.3694 16.6533 27.4713 16.5476 28.5851 16.5594C30.0224 16.5829 31.4476 16.5711 32.8848 16.5594C33.2321 16.5594 33.3758 16.6533 33.3758 17.0174C33.3639 21.621 33.3639 26.2363 33.3758 30.8399C33.3758 31.3684 33.0764 31.3214 32.7291 31.3214C28.2737 31.3214 23.8064 31.3214 19.3511 31.3214C19.1115 31.3214 18.872 31.2979 18.6444 31.3919C18.2133 31.568 17.9258 31.8499 17.9977 32.3197C18.0815 32.8012 18.369 33.083 18.9438 33.083C23.4232 33.0713 27.9025 33.0713 32.3818 33.083C33.5076 33.083 33.3639 32.9303 33.3639 34.046C33.3639 37.5457 33.3519 41.0336 33.3758 44.5333C33.3758 45.0148 33.2561 45.1675 32.7411 45.1675C31.5913 45.144 30.4415 45.0853 29.3037 45.3788C27.5192 45.8486 26.058 47.6689 26.07 49.4775C26.07 50.0647 26.3934 50.4992 26.8605 50.5344C27.3635 50.5696 27.8067 50.1234 27.8546 49.501C27.9264 48.5614 28.3576 47.8333 29.172 47.3401C29.6151 47.07 30.1301 46.9408 30.6451 46.9173C31.3997 46.8938 32.1542 46.9173 32.9087 46.9056C33.2441 46.8938 33.3519 47.023 33.3519 47.3518C33.3399 49.2074 33.3399 51.0629 33.3519 52.9184C33.3519 53.2472 33.2441 53.3647 32.9087 53.3647C32.4536 53.3647 31.9985 53.306 31.5434 53.4117C30.9805 53.5526 30.7649 53.9049 30.8368 54.4451C30.8967 54.9736 31.2799 55.0793 31.735 55.1028C31.8907 55.1145 32.0584 55.091 32.2141 55.1028C32.4057 55.1145 32.6692 55.0088 32.777 55.1732C32.9088 55.3729 32.6932 55.5725 32.5854 55.7487C31.0164 58.1444 27.9144 58.9665 25.3754 57.6277C24.6089 57.2284 24.01 56.6412 23.495 55.9601C23.3154 55.7135 23.2675 55.5725 23.6148 55.4551C24.4891 55.1498 25.2316 54.633 25.9383 54.0576C26.4173 53.6583 26.5611 53.1768 26.2616 52.801C25.8904 52.3312 25.3754 52.2373 24.8604 52.6601C23.9861 53.3764 23.0519 53.9166 21.9141 54.0928C20.0816 54.3864 18.4408 53.9754 17.0395 52.7775C15.782 51.6971 15.1113 50.3348 15.0394 48.6906C15.0274 48.3618 15.1472 48.1856 15.4466 48.0682C15.9736 47.8451 16.4647 47.5515 16.9078 47.1874C17.3509 46.8351 17.4587 46.3301 17.1473 45.9073C16.9078 45.5785 16.3329 45.4845 15.9137 45.7664C15.1113 46.3184 14.2729 46.7764 13.2908 46.9643C10.3685 47.528 7.51802 45.7899 6.61976 43.1593C5.76942 40.6813 6.90721 37.898 9.12291 36.5827C9.31454 36.4652 9.56605 36.3713 9.66186 36.1364C9.82954 35.7606 9.91337 35.3731 9.56605 35.056C9.17081 34.7037 8.7157 34.7859 8.29651 35.009C7.44616 35.467 6.77546 36.1364 6.16465 36.8645C5.88918 37.1934 5.79337 37.1346 5.48197 36.935C4.29627 36.1599 3.39802 35.1382 2.75127 33.9051C2.16441 30.746 2.96685 28.0096 5.30232 25.7313C5.8293 25.2263 6.45209 24.8388 7.07488 24.463C7.87732 23.9815 7.8893 23.9463 7.54198 23.0655C7.44616 22.8189 7.27849 22.584 7.26651 22.3021C8.045 21.9498 8.85942 21.7267 9.72175 21.7267C10.0212 21.7267 10.3086 21.6914 10.596 21.6092C11.0631 21.4566 11.2907 21.1277 11.2069 20.6815C11.123 20.2469 10.8236 20.0003 10.3326 19.9651C9.29058 19.8946 8.29651 20.1765 7.27849 20.3292C7.07488 20.1295 7.1707 19.8946 7.2186 19.6715C7.64977 17.2992 9.75768 15.2675 12.2009 14.8095C13.1112 14.6334 13.9735 14.7273 14.8598 14.8917C15.6742 15.0444 15.8778 14.9035 15.8419 14.0697C15.8059 13.2241 15.8658 12.402 16.1652 11.5917C16.4048 10.9458 16.7761 10.3703 17.1952 9.81838C17.315 9.66571 17.4348 9.50129 17.6743 9.52478C17.854 9.68919 17.7701 9.88884 17.7102 10.065C17.6144 10.3586 17.5426 10.6639 17.5066 10.9693C17.4707 11.3921 17.6623 11.6857 18.0935 11.7796C18.4768 11.8618 18.8001 11.6504 18.9199 11.2042C18.9918 10.8988 19.0516 10.6052 19.1954 10.3234C19.5427 9.64222 20.0936 9.25467 20.8601 9.16072C20.9919 9.14898 21.1356 9.13723 21.2673 9.102C21.95 8.96107 22.1297 8.70271 21.9979 8.03331C21.974 7.90412 21.9021 7.77494 21.962 7.63402C22.0937 7.51658 22.2614 7.48135 22.4051 7.51658C23.1357 7.70448 23.6028 7.41088 23.9142 6.81194Z" fill="#EE5050"/>
<path d="M23.9142 6.81208C23.7705 7.59892 23.483 7.78682 22.7045 7.66938C22.477 7.63415 22.2255 7.65764 21.9859 7.64589C21.7943 7.73984 21.6027 7.69287 21.3991 7.68112C20.0217 7.58717 18.9678 8.16262 18.1294 9.19608C18.0096 9.33701 17.9378 9.5484 17.6863 9.52491C16.4886 10.6758 15.9377 12.0851 15.9856 13.7175C15.9976 13.9524 16.0095 14.1872 16.0095 14.4221C15.9856 14.9858 15.6742 15.209 15.1113 15.068C12.4524 14.3986 10.2487 15.1737 8.52405 17.2054C7.78149 18.0862 7.37428 19.1549 7.30242 20.3175C6.6437 20.6346 6.6437 20.6346 6.488 19.9887C5.75742 16.7591 8.00905 13.6353 11.3625 13.142C12.177 13.0246 12.9315 13.142 13.71 13.2947C14.6801 13.4826 15.1113 13.189 15.0634 12.2143C15.0035 11.0046 15.1831 9.842 15.8179 8.78505C17.4228 6.0957 20.8601 5.07398 23.7705 6.65941C23.8184 6.68289 23.8663 6.75336 23.9142 6.81208Z" fill="#D7484E"/>
<path d="M7.29007 22.2784C7.72123 22.6895 7.80507 23.2649 7.9967 23.7817C8.09251 24.0283 7.81704 24.181 7.61344 24.3101C6.76309 24.8386 5.87681 25.3319 5.18216 26.06C3.63716 27.6806 2.76285 29.5831 2.76285 31.8262C2.76285 32.5074 2.76285 33.2003 2.77483 33.8814C0.786687 30.2408 1.9125 25.5902 5.39774 23.2062C5.96065 22.8187 6.55948 22.3959 7.29007 22.2784Z" fill="#D7484E"/>
<path d="M32.633 4.48655C32.5013 4.6627 32.4055 4.52178 32.2857 4.45131C30.082 3.15949 27.9142 3.27693 25.7943 4.62747C25.4949 4.81537 25.2553 5.08548 24.9799 5.30862C24.5367 5.09723 24.1056 4.85061 23.6505 4.67445C23.3271 4.54526 23.2672 4.45131 23.4708 4.13423C24.4888 2.51357 26.7405 1.56232 28.6567 1.86766C30.4054 2.14951 31.7587 2.9481 32.633 4.48655Z" fill="#D7484E"/>
<path d="M12.5719 26.154C11.2185 26.154 10.931 25.9073 11.0029 25.1675C11.0748 24.5098 11.6257 24.4511 12.1048 24.4159C13.3384 24.3102 14.2726 23.7582 14.9552 22.76C16.0331 21.1863 15.5062 18.814 13.8534 17.8276C13.2665 17.487 12.6677 17.2286 11.9491 17.2404C11.3622 17.2521 10.9909 16.8646 11.0029 16.3478C11.0149 15.7606 11.2903 15.5023 11.961 15.4905C14.4881 15.4435 16.8835 17.534 17.2428 19.9884C17.4943 21.7148 17.0512 23.2063 15.8774 24.4511C14.8834 25.5198 13.6258 26.0952 12.5719 26.154Z" fill="#FA8176"/>
<path d="M17.9852 37.8744C19.2787 37.8744 20.5722 37.8744 21.8657 37.8744C22.6562 37.8744 22.9436 38.0975 22.9556 38.7199C22.9675 39.2719 22.5963 39.6125 21.8896 39.6242C20.6201 39.6477 19.3386 39.636 18.0691 39.636C16.8594 39.636 15.6378 39.636 14.4281 39.636C13.0029 39.636 11.889 40.6224 11.7214 42.0082C11.6256 42.8538 11.386 43.1474 10.8231 43.1474C10.2363 43.1474 9.96079 42.8773 9.93683 42.2901C9.86497 40.505 11.1345 38.7552 12.955 38.0975C13.6377 37.8509 14.3203 37.8626 15.015 37.8626C15.9971 37.8744 16.9911 37.8744 17.9852 37.8744Z" fill="#FA8176"/>
<path d="M22.9562 46.0483C22.8364 48.2797 21.4112 50.1117 19.0877 50.417C18.7763 50.4523 18.4888 50.5815 18.1535 50.4405C17.7463 50.2644 17.5786 49.9825 17.5786 49.5832C17.5906 49.1487 17.878 48.9256 18.2493 48.7964C18.4649 48.7259 18.7164 48.7142 18.9439 48.6672C20.1895 48.4558 21.2075 47.2697 21.1477 46.0718C21.0878 44.7682 19.95 43.6056 18.6445 43.5116C17.866 43.4529 17.4708 43.1006 17.5666 42.5252C17.6624 41.9262 18.1535 41.7266 18.9559 41.8323C20.4889 42.0202 21.6028 42.7835 22.3693 44.0754C22.7765 44.6978 22.8244 45.4259 22.9562 46.0483Z" fill="#FA8176"/>
<path d="M31.5552 24.9679C31.5552 26.9408 29.7826 28.7376 27.8424 28.7376C27.0998 28.7376 26.8004 28.5263 26.7764 27.9391C26.7525 27.3871 27.0519 27.0465 27.7346 26.9996C28.3214 26.9526 28.7885 26.7412 29.1957 26.3184C29.7946 25.696 29.9263 24.9796 29.6269 24.2163C29.3395 23.4881 28.7885 23.0066 27.9621 22.8775C27.531 22.8187 27.0759 22.7835 26.8483 22.3255C26.5609 21.7148 26.9441 21.1511 27.6507 21.1276C29.7706 21.0337 31.5552 22.7952 31.5552 24.9679Z" fill="#FA8176"/>
<path d="M18.2493 27.9157C16.9079 27.9157 16.4049 27.3872 16.7762 26.7061C16.9917 26.295 17.3989 26.1893 17.8301 26.1541C20.3572 25.978 22.034 24.1694 22.2376 21.7736C22.2855 21.1512 22.6208 20.7637 23.1358 20.7637C23.6867 20.7637 24.07 21.1865 24.0221 21.8441C23.8904 23.6879 23.1717 25.2381 21.6866 26.436C20.5728 27.352 19.3392 27.857 18.2493 27.9157Z" fill="#FA8176"/>
<path d="M11.9131 33.0712C10.7513 33.1887 9.43388 33.0008 8.27214 32.1435C7.02655 31.2274 6.47562 29.9591 6.35586 28.4794C6.31993 27.9744 6.75109 27.5634 7.24214 27.5634C7.72121 27.5634 8.10446 27.9392 8.14039 28.4559C8.26016 30.3584 9.84109 31.4388 11.3142 31.3331C12.0688 31.2744 12.8233 31.3097 13.5778 31.3331C14.0449 31.3449 14.4282 31.521 14.5719 32.0143C14.6797 32.4018 14.512 32.6837 14.2126 32.9303C14.0449 33.0712 13.8533 33.083 13.6617 33.083C13.1587 33.0712 12.6556 33.0712 11.9131 33.0712Z" fill="#FA8176"/>
<path d="M17.6979 9.52464C18.3566 8.56164 19.171 7.81003 20.3687 7.58689C20.9077 7.4812 21.4586 7.43422 21.9975 7.65736C22.5245 8.43245 22.3089 9.23104 21.0873 9.28976C20.1891 9.32499 19.6142 9.75951 19.2668 10.5464C19.183 10.7225 19.1471 10.9104 19.1231 11.1101C19.0632 11.6855 18.6321 12.0613 18.153 11.9791C17.5661 11.8734 17.2428 11.4271 17.3625 10.8282C17.4584 10.3702 17.5901 9.94742 17.6979 9.52464Z" fill="#FA8175"/>
<path d="M27.5906 37.8746C28.1895 37.8746 28.7883 37.8629 29.3752 37.8746C29.8063 37.8863 30.1656 38.0038 30.2375 38.497C30.3094 39.0255 30.1537 39.4131 29.5788 39.5657C29.3872 39.6127 29.1955 39.6362 28.9919 39.6362C27.9739 39.6362 26.9679 39.6479 25.9498 39.6362C25.2073 39.6244 24.836 39.2721 24.8599 38.6967C24.8839 38.1799 25.1594 37.9098 25.6744 37.8863C25.7103 37.8863 25.7582 37.8863 25.7941 37.8863C26.393 37.8746 26.9918 37.8746 27.5906 37.8746Z" fill="#FA8175"/>
</svg>
